<?xml version="1.0" encoding="UTF-8"?><svg xmlns="http://www.w3.org/2000/svg" xmlns:xlink="http://www.w3.org/1999/xlink" fill-opacity="1" color-rendering="auto" color-interpolation="auto" text-rendering="auto" stroke="black" stroke-linecap="square" width="1000" stroke-miterlimit="10" shape-rendering="auto" stroke-opacity="1" fill="black" stroke-dasharray="none" font-weight="normal" stroke-width="1" height="394" font-family="'Dialog'" font-style="normal" stroke-linejoin="miter" font-size="12px" stroke-dashoffset="0" image-rendering="auto">
  <!--Generated by ySVG 2.5-->
  <defs id="genericDefs"/>
  <g>
    <defs id="defs1">
      <clipPath clipPathUnits="userSpaceOnUse" id="clipPath1">
        <path d="M0 0 L1000 0 L1000 394 L0 394 L0 0 Z"/>
      </clipPath>
      <clipPath clipPathUnits="userSpaceOnUse" id="clipPath2">
        <path d="M509 306 L1125 306 L1125 548.704 L509 548.704 L509 306 Z"/>
      </clipPath>
    </defs>
    <g fill="white" text-rendering="geometricPrecision" shape-rendering="geometricPrecision" transform="scale(1.6234,1.6234) translate(-509,-306)" stroke="white">
      <rect x="509" width="616" height="243" y="306" clip-path="url(#clipPath2)" stroke="none"/>
    </g>
    <g fill="rgb(230,230,230)" text-rendering="geometricPrecision" shape-rendering="geometricPrecision" transform="matrix(1.6234,0,0,1.6234,-826.2987,-496.7532)" stroke="rgb(230,230,230)">
      <rect x="744.56" width="151.344" height="200.736" y="347.152" clip-path="url(#clipPath2)" stroke="none"/>
    </g>
    <g stroke-linecap="butt" transform="matrix(1.6234,0,0,1.6234,-826.2987,-496.7532)" fill="rgb(118,50,107)" text-rendering="geometricPrecision" shape-rendering="geometricPrecision" stroke-dasharray="12,4" stroke="rgb(118,50,107)" stroke-width="2" stroke-miterlimit="1.45">
      <rect fill="none" x="744.56" width="151.344" height="200.736" y="347.152" clip-path="url(#clipPath2)"/>
    </g>
    <g fill="rgb(216,0,44)" text-rendering="geometricPrecision" shape-rendering="geometricPrecision" transform="matrix(1.6234,0,0,1.6234,-826.2987,-496.7532)" stroke="rgb(216,0,44)">
      <rect x="516.944" width="146.112" height="200.736" y="347.152" clip-path="url(#clipPath2)" stroke="none"/>
      <rect x="977.408" y="347.152" clip-path="url(#clipPath2)" fill="rgb(57,122,242)" width="146.112" height="200.736" stroke="none"/>
    </g>
    <g transform="matrix(1.6234,0,0,1.6234,-826.2987,-496.7532)" fill-opacity="0.6" fill="rgb(255,255,255)" text-rendering="geometricPrecision" shape-rendering="geometricPrecision" stroke="rgb(255,255,255)" stroke-opacity="0.6">
      <rect x="998.6" width="103.728" height="40.752" y="366.536" clip-path="url(#clipPath2)" stroke="none"/>
    </g>
    <g font-size="18px" stroke-linecap="butt" transform="matrix(1.6234,0,0,1.6234,-826.2987,-496.7532)" text-rendering="geometricPrecision" font-family="'Roboto Condensed'" shape-rendering="geometricPrecision" stroke-miterlimit="1.45">
      <text x="1035.3248" xml:space="preserve" y="393.9037" clip-path="url(#clipPath2)" stroke="none">next</text>
    </g>
    <g transform="matrix(1.6234,0,0,1.6234,-826.2987,-496.7532)" fill-opacity="0.6" fill="rgb(255,255,255)" text-rendering="geometricPrecision" shape-rendering="geometricPrecision" stroke="rgb(255,255,255)" stroke-opacity="0.6">
      <rect x="998.6" width="103.728" height="40.752" y="427.912" clip-path="url(#clipPath2)" stroke="none"/>
    </g>
    <g font-size="18px" stroke-linecap="butt" transform="matrix(1.6234,0,0,1.6234,-826.2987,-496.7532)" text-rendering="geometricPrecision" font-family="'Roboto Condensed'" shape-rendering="geometricPrecision" stroke-miterlimit="1.45">
      <text x="1033.6593" xml:space="preserve" y="455.2797" clip-path="url(#clipPath2)" stroke="none">error</text>
    </g>
    <g transform="matrix(1.6234,0,0,1.6234,-826.2987,-496.7532)" fill-opacity="0.6" fill="rgb(255,255,255)" text-rendering="geometricPrecision" shape-rendering="geometricPrecision" stroke="rgb(255,255,255)" stroke-opacity="0.6">
      <rect x="998.6" width="103.728" height="40.752" y="489.288" clip-path="url(#clipPath2)" stroke="none"/>
    </g>
    <g font-size="18px" stroke-linecap="butt" transform="matrix(1.6234,0,0,1.6234,-826.2987,-496.7532)" text-rendering="geometricPrecision" font-family="'Roboto Condensed'" shape-rendering="geometricPrecision" stroke-miterlimit="1.45">
      <text x="1018.006" xml:space="preserve" y="516.6557" clip-path="url(#clipPath2)" stroke="none">complete</text>
    </g>
    <g transform="matrix(1.6234,0,0,1.6234,-826.2987,-496.7532)" fill-opacity="0.6" fill="rgb(255,255,255)" text-rendering="geometricPrecision" shape-rendering="geometricPrecision" stroke="rgb(255,255,255)" stroke-opacity="0.6">
      <rect x="538.136" width="103.728" height="40.752" y="366.536" clip-path="url(#clipPath2)" stroke="none"/>
    </g>
    <g font-size="18px" stroke-linecap="butt" transform="matrix(1.6234,0,0,1.6234,-826.2987,-496.7532)" text-rendering="geometricPrecision" font-family="'Roboto Condensed'" shape-rendering="geometricPrecision" stroke-miterlimit="1.45">
      <text x="574.8608" xml:space="preserve" y="393.9037" clip-path="url(#clipPath2)" stroke="none">next</text>
    </g>
    <g transform="matrix(1.6234,0,0,1.6234,-826.2987,-496.7532)" fill-opacity="0.6" fill="rgb(255,255,255)" text-rendering="geometricPrecision" shape-rendering="geometricPrecision" stroke="rgb(255,255,255)" stroke-opacity="0.6">
      <rect x="538.136" width="103.728" height="40.752" y="427.912" clip-path="url(#clipPath2)" stroke="none"/>
    </g>
    <g font-size="18px" stroke-linecap="butt" transform="matrix(1.6234,0,0,1.6234,-826.2987,-496.7532)" text-rendering="geometricPrecision" font-family="'Roboto Condensed'" shape-rendering="geometricPrecision" stroke-miterlimit="1.45">
      <text x="573.1953" xml:space="preserve" y="455.2797" clip-path="url(#clipPath2)" stroke="none">error</text>
    </g>
    <g transform="matrix(1.6234,0,0,1.6234,-826.2987,-496.7532)" fill-opacity="0.6" fill="rgb(255,255,255)" text-rendering="geometricPrecision" shape-rendering="geometricPrecision" stroke="rgb(255,255,255)" stroke-opacity="0.6">
      <rect x="538.136" width="103.728" height="40.752" y="489.288" clip-path="url(#clipPath2)" stroke="none"/>
    </g>
    <g font-size="18px" stroke-linecap="butt" transform="matrix(1.6234,0,0,1.6234,-826.2987,-496.7532)" text-rendering="geometricPrecision" font-family="'Roboto Condensed'" shape-rendering="geometricPrecision" stroke-miterlimit="1.45">
      <text x="557.542" xml:space="preserve" y="516.6557" clip-path="url(#clipPath2)" stroke="none">complete</text>
    </g>
    <g fill="white" text-rendering="geometricPrecision" shape-rendering="geometricPrecision" transform="matrix(1.6234,0,0,1.6234,-826.2987,-496.7532)" stroke="white">
      <rect x="768.368" width="103.728" height="27.952" y="354.696" clip-path="url(#clipPath2)" stroke="none"/>
    </g>
    <g font-size="16px" stroke-linecap="butt" transform="matrix(1.6234,0,0,1.6234,-826.2987,-496.7532)" text-rendering="geometricPrecision" font-family="'Roboto Condensed'" shape-rendering="geometricPrecision" stroke-miterlimit="1.45">
      <text x="779.8218" xml:space="preserve" y="374.8868" clip-path="url(#clipPath2)" stroke="none">console.log()</text>
    </g>
    <g transform="matrix(1.6234,0,0,1.6234,-826.2987,-496.7532)" fill-opacity="0.6" fill="rgb(255,255,255)" text-rendering="geometricPrecision" shape-rendering="geometricPrecision" stroke="rgb(255,255,255)" stroke-opacity="0.6">
      <rect x="538.136" width="103.728" height="27.952" y="308.584" clip-path="url(#clipPath2)" stroke="none"/>
    </g>
    <g font-size="20px" stroke-linecap="butt" transform="matrix(1.6234,0,0,1.6234,-826.2987,-496.7532)" text-rendering="geometricPrecision" font-family="'Roboto Condensed'" shape-rendering="geometricPrecision" font-weight="bold" stroke-miterlimit="1.45">
      <text x="512.0361" xml:space="preserve" y="330.3286" clip-path="url(#clipPath2)" stroke="none">source$.subscribe()</text>
    </g>
    <g transform="matrix(1.6234,0,0,1.6234,-826.2987,-496.7532)" fill-opacity="0.6" fill="rgb(255,255,255)" text-rendering="geometricPrecision" shape-rendering="geometricPrecision" stroke="rgb(255,255,255)" stroke-opacity="0.6">
      <rect x="768.368" width="103.728" height="27.952" y="308.584" clip-path="url(#clipPath2)" stroke="none"/>
    </g>
    <g font-size="20px" stroke-linecap="butt" transform="matrix(1.6234,0,0,1.6234,-826.2987,-496.7532)" text-rendering="geometricPrecision" font-family="'Roboto Condensed'" shape-rendering="geometricPrecision" font-weight="bold" stroke-miterlimit="1.45">
      <text x="788.6793" xml:space="preserve" y="330.3286" clip-path="url(#clipPath2)" stroke="none">wrapper</text>
    </g>
    <g transform="matrix(1.6234,0,0,1.6234,-826.2987,-496.7532)" fill-opacity="0.6" fill="rgb(255,255,255)" text-rendering="geometricPrecision" shape-rendering="geometricPrecision" stroke="rgb(255,255,255)" stroke-opacity="0.6">
      <rect x="998.6" width="103.728" height="27.952" y="308.584" clip-path="url(#clipPath2)" stroke="none"/>
    </g>
    <g font-size="20px" stroke-linecap="butt" transform="matrix(1.6234,0,0,1.6234,-826.2987,-496.7532)" text-rendering="geometricPrecision" font-family="'Roboto Condensed'" shape-rendering="geometricPrecision" font-weight="bold" stroke-miterlimit="1.45">
      <text x="1016.4161" xml:space="preserve" y="330.3286" clip-path="url(#clipPath2)" stroke="none">observer</text>
    </g>
    <g text-rendering="geometricPrecision" stroke-miterlimit="1.45" stroke-width="3" shape-rendering="geometricPrecision" transform="matrix(1.6234,0,0,1.6234,-826.2987,-496.7532)" stroke-linecap="butt">
      <path fill="none" d="M655.614 386.912 L998.6 386.912" clip-path="url(#clipPath2)"/>
      <path d="M641.864 386.912 L656.864 394.412 L656.864 379.412 Z" clip-path="url(#clipPath2)" stroke="none"/>
      <path fill="none" d="M655.614 448.288 L998.6 448.288" clip-path="url(#clipPath2)"/>
      <path d="M641.864 448.288 L656.864 455.788 L656.864 440.788 Z" clip-path="url(#clipPath2)" stroke="none"/>
      <path fill="none" d="M655.614 509.664 L998.6 509.664" clip-path="url(#clipPath2)"/>
      <path d="M641.864 509.664 L656.864 517.164 L656.864 502.164 Z" clip-path="url(#clipPath2)" stroke="none"/>
    </g>
  </g>
</svg>
