<?xml version="1.0" encoding="utf-8"?>
<!-- Generator: Adobe Illustrator 16.0.0, SVG Export Plug-In . SVG Version: 6.00 Build 0)  -->
<!DOCTYPE svg PUBLIC "-//W3C//DTD SVG 1.1//EN" "http://www.w3.org/Graphics/SVG/1.1/DTD/svg11.dtd">
<svg version="1.1" id="Layer_1" xmlns="http://www.w3.org/2000/svg" xmlns:xlink="http://www.w3.org/1999/xlink" x="0px" y="0px"
	 width="256px" height="256px" viewBox="0 0 256 256" enable-background="new 0 0 256 256" xml:space="preserve">
<g id="Layer_1_1_">
	<g>
		<path fill="#33475C" d="M18.86,197.545c-0.461-0.286-0.978-0.43-1.551-0.43c-0.819,0-1.485,0.328-1.997,0.982
			c-0.512,0.655-0.768,1.516-0.768,2.579c0,1.085,0.25,1.962,0.752,2.626c0.501,0.665,1.172,0.998,2.012,0.998
			c1.249,0,2.129-0.613,2.641-1.843l4.822,2.426c-0.635,1.372-1.633,2.437-2.995,3.194c-1.361,0.757-2.963,1.136-4.806,1.136
			c-1.741,0-3.266-0.354-4.576-1.06c-1.311-0.706-2.324-1.699-3.041-2.979c-0.717-1.278-1.075-2.769-1.075-4.469
			c0-1.72,0.363-3.229,1.09-4.529c0.726-1.3,1.75-2.308,3.071-3.024c1.321-0.715,2.851-1.074,4.591-1.074
			c1.74,0,3.281,0.379,4.622,1.136c1.341,0.759,2.369,1.833,3.086,3.226l-4.76,2.334C19.694,198.241,19.32,197.832,18.86,197.545z"
			/>
		<path fill="#33475C" d="M39.481,193.139c1.392,0.707,2.472,1.704,3.24,2.994c0.768,1.29,1.151,2.795,1.151,4.516
			c0,1.699-0.384,3.197-1.151,4.498c-0.768,1.301-1.848,2.304-3.24,3.01c-1.393,0.705-3.021,1.06-4.883,1.06
			c-1.863,0-3.496-0.354-4.898-1.06c-1.402-0.706-2.487-1.709-3.255-3.01s-1.151-2.799-1.151-4.498c0-1.721,0.384-3.226,1.151-4.516
			c0.768-1.29,1.853-2.287,3.255-2.994c1.402-0.705,3.035-1.06,4.898-1.06C36.461,192.079,38.089,192.434,39.481,193.139z
			 M32.387,198.021c-0.553,0.686-0.829,1.58-0.829,2.687c0,1.127,0.276,2.026,0.829,2.703c0.553,0.676,1.29,1.013,2.211,1.013
			c0.9,0,1.627-0.337,2.18-1.013c0.553-0.677,0.829-1.576,0.829-2.703c0-1.104-0.276-2.001-0.829-2.687
			c-0.553-0.687-1.28-1.029-2.18-1.029C33.677,196.992,32.94,197.336,32.387,198.021z"/>
		<path fill="#33475C" d="M63.68,186.214V209h-6.203v-1.904c-0.553,0.676-1.218,1.198-1.996,1.566
			c-0.778,0.367-1.638,0.553-2.58,0.553c-1.536,0-2.887-0.357-4.054-1.074s-2.073-1.725-2.718-3.024s-0.967-2.82-0.967-4.562
			c0-1.699,0.312-3.188,0.937-4.468s1.51-2.269,2.656-2.964s2.477-1.044,3.993-1.044c0.982,0,1.873,0.185,2.671,0.553
			s1.484,0.901,2.058,1.597v-8.015H63.68L63.68,186.214z M56.647,203.426c0.553-0.686,0.829-1.591,0.829-2.718
			c0-1.104-0.276-2.001-0.829-2.687c-0.553-0.687-1.28-1.029-2.18-1.029c-0.921,0-1.659,0.344-2.211,1.029
			c-0.552,0.685-0.829,1.58-0.829,2.687c0,1.127,0.276,2.032,0.829,2.718c0.553,0.688,1.29,1.029,2.211,1.029
			C55.368,204.455,56.095,204.111,56.647,203.426z"/>
		<path fill="#33475C" d="M81.645,194.521c1.536,1.627,2.303,3.854,2.303,6.68c0,0.43-0.011,0.747-0.031,0.951h-11.24
			c0.246,0.799,0.65,1.412,1.213,1.843c0.563,0.43,1.244,0.646,2.042,0.646c1.29,0,2.518-0.531,3.685-1.598l3.225,3.163
			c-0.88,0.983-1.95,1.729-3.209,2.242c-1.259,0.512-2.667,0.768-4.222,0.768c-1.843,0-3.439-0.354-4.791-1.06
			c-1.351-0.706-2.391-1.699-3.117-2.979c-0.727-1.278-1.09-2.769-1.09-4.469c0-1.72,0.369-3.229,1.105-4.528
			c0.737-1.301,1.771-2.309,3.102-3.025s2.866-1.074,4.606-1.074C77.97,192.079,80.109,192.893,81.645,194.521z M77.131,197.085
			c-0.471-0.532-1.085-0.799-1.843-0.799c-0.717,0-1.311,0.257-1.781,0.769c-0.471,0.512-0.788,1.197-0.952,2.057h5.251
			C77.827,198.293,77.602,197.617,77.131,197.085z"/>
		<path fill="#33475C" d="M109.468,192.294v15.263c0,1.535-0.384,2.887-1.152,4.055c-0.768,1.166-1.842,2.062-3.225,2.688
			c-1.382,0.624-2.984,0.938-4.806,0.938c-1.474,0-2.887-0.205-4.238-0.614c-1.351-0.41-2.508-0.933-3.47-1.565l2.058-4.178
			c0.737,0.491,1.556,0.87,2.457,1.137c0.9,0.267,1.791,0.399,2.671,0.399c1.106,0,1.976-0.241,2.61-0.722
			c0.634-0.481,0.952-1.133,0.952-1.95v-1.688c-1.105,1.33-2.6,1.995-4.483,1.995c-1.352,0-2.554-0.332-3.608-0.998
			c-1.055-0.665-1.884-1.612-2.488-2.841s-0.906-2.641-0.906-4.236c0-1.557,0.292-2.934,0.875-4.132
			c0.583-1.196,1.397-2.124,2.441-2.778c1.044-0.654,2.231-0.982,3.562-0.982c1.945,0,3.48,0.676,4.606,2.025v-1.812h6.144V192.294z
			 M102.542,202.645c0.522-0.636,0.783-1.465,0.783-2.488c0-1.063-0.261-1.914-0.783-2.549s-1.213-0.953-2.073-0.953
			c-0.84,0-1.52,0.324-2.042,0.969c-0.522,0.645-0.783,1.488-0.783,2.533c0,1.023,0.261,1.854,0.783,2.488
			c0.522,0.635,1.202,0.951,2.042,0.951C101.33,203.596,102.021,203.277,102.542,202.645z"/>
		<path fill="#33475C" d="M127.187,194.521c1.536,1.627,2.303,3.854,2.303,6.68c0,0.43-0.012,0.747-0.031,0.951h-11.24
			c0.246,0.799,0.65,1.412,1.213,1.843c0.563,0.43,1.244,0.646,2.042,0.646c1.29,0,2.518-0.531,3.685-1.598l3.225,3.163
			c-0.88,0.983-1.95,1.729-3.209,2.242c-1.259,0.512-2.667,0.768-4.222,0.768c-1.843,0-3.439-0.354-4.791-1.06
			c-1.351-0.706-2.391-1.699-3.117-2.979c-0.727-1.278-1.09-2.769-1.09-4.469c0-1.72,0.369-3.229,1.105-4.528
			c0.737-1.301,1.771-2.309,3.102-3.025s2.866-1.074,4.606-1.074C123.511,192.079,125.651,192.893,127.187,194.521z
			 M122.672,197.085c-0.471-0.532-1.085-0.799-1.843-0.799c-0.717,0-1.311,0.257-1.781,0.769c-0.471,0.512-0.788,1.197-0.952,2.057
			h5.251C123.368,198.293,123.143,197.617,122.672,197.085z"/>
		<path fill="#33475C" d="M146.732,192.831c0.912,0.522,1.617,1.265,2.119,2.228s0.752,2.077,0.752,3.348V209H143.4v-8.812
			c0-0.818-0.219-1.476-0.659-1.967c-0.44-0.49-1.019-0.736-1.735-0.736c-0.839,0.021-1.504,0.328-1.996,0.922
			c-0.49,0.594-0.736,1.371-0.736,2.334V209h-6.205v-16.706h6.205v2.58c0.593-0.922,1.336-1.623,2.227-2.104
			c0.891-0.48,1.919-0.722,3.086-0.722C144.771,192.049,145.822,192.311,146.732,192.831z"/>
		<path fill="#33475C" d="M166.955,194.521c1.536,1.627,2.303,3.854,2.303,6.68c0,0.43-0.011,0.747-0.031,0.951h-11.24
			c0.246,0.799,0.65,1.412,1.214,1.843c0.563,0.43,1.243,0.646,2.042,0.646c1.29,0,2.518-0.531,3.685-1.598l3.226,3.163
			c-0.881,0.983-1.95,1.729-3.209,2.242c-1.26,0.512-2.668,0.768-4.223,0.768c-1.843,0-3.438-0.354-4.791-1.06
			c-1.351-0.706-2.391-1.699-3.117-2.979c-0.727-1.278-1.09-2.769-1.09-4.469c0-1.72,0.369-3.229,1.105-4.528
			c0.736-1.301,1.771-2.309,3.102-3.025c1.331-0.717,2.866-1.074,4.606-1.074C163.279,192.079,165.419,192.893,166.955,194.521z
			 M162.441,197.085c-0.471-0.532-1.086-0.799-1.844-0.799c-0.717,0-1.311,0.257-1.781,0.769s-0.787,1.197-0.951,2.057h5.251
			C163.137,198.293,162.912,197.617,162.441,197.085z"/>
		<path fill="#33475C" d="M180.268,192.801c0.892-0.502,1.898-0.752,3.025-0.752v5.59c-0.246-0.041-0.604-0.062-1.075-0.062
			c-1.29,0-2.308,0.307-3.056,0.921s-1.121,1.454-1.121,2.519V209h-6.204v-16.706h6.204v2.642
			C178.634,194.014,179.377,193.303,180.268,192.801z"/>
		<path fill="#33475C" d="M198.6,193.66c1.321,1.074,1.981,2.574,1.981,4.499V209H194.5v-1.843
			c-0.512,0.676-1.182,1.198-2.011,1.565c-0.829,0.368-1.787,0.553-2.872,0.553c-1.762,0-3.143-0.476-4.146-1.428
			c-1.003-0.951-1.505-2.227-1.505-3.822c0-1.617,0.548-2.861,1.644-3.731c1.095-0.87,2.697-1.315,4.806-1.336h4.084v-0.062
			c0-0.695-0.246-1.238-0.737-1.629c-0.492-0.389-1.207-0.582-2.15-0.582c-0.674,0-1.457,0.103-2.348,0.307
			c-0.892,0.205-1.787,0.502-2.688,0.891l-1.536-4.113c2.825-1.146,5.507-1.721,8.046-1.721
			C195.441,192.049,197.279,192.586,198.6,193.66z M193.395,204.762c0.513-0.307,0.881-0.727,1.105-1.259v-1.505h-2.825
			c-1.249,0-1.873,0.521-1.873,1.566c0,0.531,0.164,0.94,0.491,1.229c0.327,0.287,0.788,0.43,1.382,0.43
			C192.311,205.223,192.883,205.068,193.395,204.762z"/>
		<path fill="#33475C" d="M215.414,208.201c-0.594,0.328-1.316,0.589-2.165,0.783c-0.851,0.193-1.705,0.291-2.563,0.291
			c-1.781,0-3.205-0.49-4.27-1.474s-1.598-2.323-1.598-4.022v-6.664h-2.303v-3.961h2.303v-4.639h6.173v4.639h4.114v3.961h-4.114
			v5.712c0,0.532,0.123,0.932,0.368,1.198c0.246,0.266,0.594,0.397,1.045,0.397c0.389,0,1.022-0.163,1.904-0.491L215.414,208.201z"
			/>
		<path fill="#33475C" d="M230.77,193.139c1.392,0.707,2.472,1.704,3.239,2.994c0.769,1.29,1.151,2.795,1.151,4.516
			c0,1.699-0.385,3.197-1.151,4.498c-0.768,1.301-1.848,2.304-3.239,3.01c-1.394,0.705-3.021,1.06-4.884,1.06
			s-3.495-0.354-4.897-1.06c-1.402-0.706-2.487-1.709-3.256-3.01c-0.768-1.301-1.15-2.799-1.15-4.498
			c0-1.721,0.384-3.226,1.15-4.516c0.769-1.29,1.854-2.287,3.256-2.994c1.402-0.705,3.035-1.06,4.897-1.06
			S229.376,192.434,230.77,193.139z M223.674,198.021c-0.553,0.686-0.828,1.58-0.828,2.687c0,1.127,0.275,2.026,0.828,2.703
			c0.553,0.676,1.29,1.013,2.211,1.013c0.9,0,1.627-0.337,2.18-1.013c0.554-0.677,0.83-1.576,0.83-2.703
			c0-1.104-0.276-2.001-0.83-2.687c-0.553-0.687-1.279-1.029-2.18-1.029C224.964,196.992,224.227,197.336,223.674,198.021z"/>
		<path fill="#33475C" d="M246.169,192.801c0.892-0.502,1.897-0.752,3.024-0.752v5.59c-0.245-0.041-0.604-0.062-1.074-0.062
			c-1.29,0-2.309,0.307-3.057,0.921s-1.121,1.454-1.121,2.519V209h-6.203v-16.706h6.203v2.642
			C244.536,194.014,245.279,193.303,246.169,192.801z"/>
	</g>
	<g>
		<path fill="#E10098" d="M80.018,177.596c-0.096,0.217-0.225,0.396-0.389,0.53c-0.164,0.138-0.422,0.308-0.776,0.513
			c0.354,0.217,0.613,0.387,0.776,0.51c0.164,0.123,0.293,0.297,0.389,0.521c0.095,0.227,0.143,0.528,0.143,0.91v4.251
			c0,0.545,0.16,0.94,0.48,1.187c0.32,0.246,0.849,0.367,1.584,0.367v1.124h-0.49c-0.995,0-1.717-0.184-2.167-0.552
			c-0.45-0.368-0.675-0.968-0.675-1.799v-4.66c0-0.449-0.082-0.775-0.245-0.98c-0.164-0.205-0.416-0.307-0.756-0.307h-0.511v-1.146
			h0.511c0.667,0,1.001-0.429,1.001-1.287v-4.68c0-0.832,0.225-1.432,0.675-1.8c0.45-0.368,1.171-0.552,2.167-0.552h0.49v1.124
			c-0.735,0-1.264,0.126-1.584,0.378c-0.32,0.253-0.48,0.65-0.48,1.195v4.252C80.161,177.077,80.113,177.377,80.018,177.596z"/>
		<path fill="#E10098" d="M100.825,177.941h1.247v5.232c-0.695,0.586-1.502,1.047-2.422,1.381s-1.857,0.5-2.811,0.5
			c-1.349,0-2.592-0.326-3.73-0.98c-1.138-0.654-2.041-1.54-2.708-2.657s-1.001-2.337-1.001-3.658s0.334-2.534,1.001-3.639
			s1.577-1.979,2.729-2.627c1.151-0.646,2.408-0.972,3.771-0.972c0.967,0,1.904,0.172,2.811,0.513
			c0.906,0.34,1.707,0.817,2.401,1.431l-0.817,1.001c-0.586-0.545-1.261-0.964-2.023-1.257c-0.764-0.293-1.554-0.439-2.371-0.439
			c-1.104,0-2.119,0.271-3.045,0.809c-0.927,0.538-1.663,1.264-2.208,2.177s-0.818,1.914-0.818,3.005
			c0,1.104,0.272,2.115,0.818,3.035c0.545,0.92,1.284,1.648,2.218,2.188c0.933,0.539,1.952,0.808,3.056,0.808
			c0.681,0,1.359-0.112,2.034-0.337c0.674-0.227,1.298-0.542,1.87-0.951v-4.561H100.825z"/>
		<path fill="#E10098" d="M108.868,174.846c0.661-0.43,1.454-0.65,2.381-0.664v1.287c-1.131-0.013-2.041,0.317-2.729,0.991
			c-0.688,0.675-1.08,1.592-1.175,2.75v5.724h-1.37v-10.711h1.37v2.493C107.699,175.898,108.207,175.275,108.868,174.846z"/>
		<path fill="#E10098" d="M119.65,184.934l-0.021-1.8c-0.422,0.627-0.974,1.095-1.655,1.4c-0.682,0.307-1.465,0.46-2.351,0.46
			c-0.723,0-1.359-0.141-1.911-0.419c-0.552-0.279-0.978-0.665-1.277-1.155c-0.3-0.49-0.45-1.042-0.45-1.654
			c0-0.928,0.357-1.656,1.073-2.188c0.716-0.531,1.7-0.798,2.954-0.798h3.598v-0.816c0-0.845-0.252-1.499-0.756-1.962
			c-0.504-0.464-1.24-0.694-2.208-0.694c-1.145,0-2.296,0.428-3.455,1.287l-0.613-0.939c0.722-0.504,1.41-0.877,2.064-1.114
			c0.654-0.238,1.403-0.356,2.248-0.356c1.294,0,2.296,0.322,3.005,0.971c0.708,0.646,1.069,1.543,1.083,2.688l0.021,7.094h-1.349
			V184.934z M118.291,183.186c0.661-0.442,1.107-1.065,1.338-1.871v-1.472h-3.454c-0.94,0-1.656,0.157-2.146,0.472
			c-0.491,0.312-0.736,0.783-0.736,1.41c0,0.641,0.235,1.154,0.705,1.543c0.47,0.389,1.093,0.582,1.87,0.582
			C116.822,183.85,117.63,183.628,118.291,183.186z"/>
		<path fill="#E10098" d="M133.068,174.866c0.783,0.457,1.393,1.097,1.828,1.921c0.437,0.824,0.654,1.762,0.654,2.811
			c0,1.036-0.218,1.963-0.654,2.78c-0.436,0.817-1.041,1.454-1.818,1.911c-0.777,0.456-1.663,0.686-2.657,0.686
			c-0.981,0-1.84-0.223-2.575-0.664c-0.736-0.443-1.309-1.061-1.717-1.852v6.438h-1.369v-14.674h1.369v2.473
			c0.395-0.79,0.964-1.406,1.707-1.85c0.742-0.443,1.598-0.664,2.564-0.664C131.396,174.182,132.285,174.41,133.068,174.866z
			 M132.221,183.246c0.612-0.36,1.09-0.861,1.43-1.502c0.341-0.641,0.512-1.369,0.512-2.188c0-0.805-0.17-1.525-0.512-2.166
			c-0.34-0.642-0.817-1.143-1.43-1.504c-0.613-0.359-1.303-0.541-2.064-0.541c-0.777,0-1.469,0.182-2.075,0.541
			c-0.606,0.361-1.083,0.862-1.431,1.504c-0.348,0.641-0.521,1.361-0.521,2.166c0,0.817,0.17,1.547,0.511,2.188
			c0.34,0.641,0.817,1.142,1.431,1.502c0.613,0.361,1.308,0.542,2.085,0.542C130.918,183.788,131.607,183.607,132.221,183.246z"/>
		<path fill="#E10098" d="M147.191,175.295c0.729,0.743,1.094,1.762,1.094,3.057v6.582h-1.391v-6.256
			c0-1.008-0.279-1.798-0.838-2.371c-0.559-0.572-1.334-0.857-2.33-0.857c-1.186,0.014-2.115,0.406-2.789,1.176
			s-1.013,1.788-1.013,3.057v5.252h-1.368v-15.166h1.368v6.99c0.722-1.689,2.14-2.548,4.251-2.574
			C145.458,174.182,146.462,174.553,147.191,175.295z"/>
		<path fill="#E10098" d="M166.436,186.2c-0.545,0.504-1.127,0.892-1.748,1.165c-0.619,0.271-1.229,0.408-1.828,0.408
			c-1.555,0-3.039-0.906-4.457-2.719h-0.266c-1.363,0-2.613-0.326-3.75-0.98c-1.138-0.654-2.041-1.54-2.707-2.657
			c-0.668-1.117-1.002-2.337-1.002-3.658s0.334-2.534,1.002-3.639c0.666-1.104,1.569-1.979,2.707-2.627
			c1.139-0.646,2.389-0.972,3.75-0.972c1.362,0,2.613,0.324,3.75,0.972c1.139,0.647,2.041,1.522,2.709,2.627
			c0.666,1.104,1,2.315,1,3.639c0,1.132-0.244,2.19-0.736,3.179c-0.49,0.987-1.164,1.822-2.022,2.504s-1.833,1.15-2.923,1.41
			c1.104,1.131,2.132,1.695,3.086,1.695c0.857,0,1.792-0.441,2.8-1.328L166.436,186.2z M152.925,180.783
			c0.546,0.927,1.281,1.658,2.208,2.197c0.926,0.539,1.936,0.808,3.025,0.808c1.076,0,2.074-0.269,2.994-0.808
			s1.652-1.271,2.197-2.197s0.818-1.936,0.818-3.024c0-1.091-0.273-2.092-0.818-3.005s-1.276-1.636-2.197-2.167
			c-0.92-0.53-1.918-0.797-2.994-0.797c-1.09,0-2.1,0.267-3.025,0.797c-0.927,0.531-1.662,1.254-2.208,2.167
			c-0.545,0.913-0.817,1.914-0.817,3.005S152.38,179.855,152.925,180.783z"/>
		<path fill="#E10098" d="M168.971,170.646h1.409v13.02h6.295v1.268h-7.706v-14.287H168.971z"/>
		<path fill="#E10098" d="M188.367,178.064v1.146h-0.512c-0.34,0-0.592,0.103-0.756,0.308c-0.164,0.203-0.246,0.53-0.246,0.979v4.66
			c0,0.831-0.225,1.431-0.674,1.799s-1.172,0.552-2.166,0.552h-0.492v-1.124c0.736,0,1.265-0.123,1.584-0.368
			c0.32-0.244,0.48-0.641,0.48-1.186v-4.251c0-0.382,0.048-0.685,0.143-0.91c0.096-0.226,0.226-0.397,0.39-0.521
			c0.163-0.123,0.422-0.293,0.776-0.512c-0.354-0.205-0.613-0.375-0.776-0.512c-0.164-0.136-0.293-0.312-0.39-0.531
			c-0.096-0.218-0.143-0.518-0.143-0.898v-4.252c0-0.545-0.16-0.942-0.48-1.195c-0.319-0.252-0.848-0.378-1.584-0.378v-1.124h0.492
			c0.994,0,1.717,0.184,2.166,0.552c0.45,0.368,0.674,0.968,0.674,1.8v4.68c0,0.858,0.334,1.287,1.002,1.287H188.367
			L188.367,178.064z"/>
	</g>
</g>
<g id="Layer_3">
</g>
<g id="Layer_2">
	<g>
		<g>
			<g>
				<path fill="#DFE8EF" d="M76.102,159.938c-4.823,2.644-12.732,2.672-17.575,0.063l-46.844-25.226
					c-4.843-2.606-4.876-6.937-0.075-9.618l90.662-50.662c4.801-2.683,13.104-5.933,18.451-7.223l12.833,0.128
					c5.319,1.396,13.641,4.657,18.492,7.249l94.866,50.674c4.851,2.592,4.935,6.979,0.183,9.751l-42.22,24.629
					c-4.751,2.771-12.615,2.934-17.476,0.359l-47.879-25.35c-4.861-2.572-12.786-2.518-17.608,0.126L76.102,159.938z"/>
			</g>
		</g>
	</g>
	
		<linearGradient id="SVGID_1_" gradientUnits="userSpaceOnUse" x1="161.9053" y1="92.0513" x2="131.4047" y2="98.8014" gradientTransform="matrix(1 0 0 -1 84 231)">
		<stop  offset="4.810700e-04" style="stop-color:#22313F"/>
		<stop  offset="1" style="stop-color:#33475C"/>
	</linearGradient>
	<path fill="url(#SVGID_1_)" d="M244.337,125.185c0.32-1.003,0.466-1.995,0.396-2.917c-0.008-0.111-0.028-0.213-0.043-0.32
		c-0.015-1.021-0.156-2.154-0.56-3.259c-1.924-5.28-9.812-7.987-9.812-7.987v9.916l0.521,0.261l-26.302,14.612h-18.842v14.875
		c0,0,4.619,4.481,9.849,3.028c0.94-0.261,1.791-0.634,2.562-1.094c0.405-0.133,0.836-0.312,1.295-0.558l34.541-18.972
		c2.867-1.53,5.238-4.381,6.262-7.212l0.031,0.016C244.234,125.575,244.277,125.433,244.337,125.185z"/>
	
		<linearGradient id="SVGID_2_" gradientUnits="userSpaceOnUse" x1="32.4502" y1="157.3555" x2="120.5875" y2="110.3928" gradientTransform="matrix(1 0 0 -1 84 231)">
		<stop  offset="4.810700e-04" style="stop-color:#22313F"/>
		<stop  offset="1" style="stop-color:#33475C"/>
	</linearGradient>
	<path fill="url(#SVGID_2_)" d="M237.011,119.672c3.974-2.207,3.898-5.677-0.167-7.709l-94.293-47.146
		c-4.064-2.031-10.641-1.889-14.615,0.317L97.761,81.897c-3.973,2.208-3.897,5.677,0.168,7.709l94.293,47.146
		c4.063,2.032,10.641,1.891,14.613-0.316L237.011,119.672z"/>
	<g>
		
			<linearGradient id="SVGID_3_" gradientUnits="userSpaceOnUse" x1="-24.0723" y1="146.4746" x2="23.8926" y2="146.4746" gradientTransform="matrix(0.9986 -0.0523 -0.0523 -0.9986 164.5658 224.9655)">
			<stop  offset="0" style="stop-color:#00FFE2"/>
			<stop  offset="0.1506" style="stop-color:#06F5E0"/>
			<stop  offset="0.4082" style="stop-color:#15DADC"/>
			<stop  offset="0.7394" style="stop-color:#2EADD6"/>
			<stop  offset="1" style="stop-color:#4486D0"/>
		</linearGradient>
		<polygon fill="url(#SVGID_3_)" points="132.941,81.376 160.292,65.754 180.616,74.618 151.725,91.732 		"/>
		
			<linearGradient id="SVGID_4_" gradientUnits="userSpaceOnUse" x1="9.4702" y1="127.2256" x2="8.2164" y2="144.5699" gradientTransform="matrix(0.9986 -0.0523 -0.0523 -0.9986 164.5658 224.9655)">
			<stop  offset="0" style="stop-color:#00FFE2"/>
			<stop  offset="0.1506" style="stop-color:#06F5E0"/>
			<stop  offset="0.4082" style="stop-color:#15DADC"/>
			<stop  offset="0.7394" style="stop-color:#2EADD6"/>
			<stop  offset="1" style="stop-color:#4486D0"/>
		</linearGradient>
		<polygon fill="url(#SVGID_4_)" points="180.616,74.618 181.365,90.595 152.566,107.808 151.725,91.732 		"/>
		
			<linearGradient id="SVGID_5_" gradientUnits="userSpaceOnUse" x1="-25.8535" y1="135.2607" x2="-0.2809" y2="126.0545" gradientTransform="matrix(0.9986 -0.0523 -0.0523 -0.9986 164.5658 224.9655)">
			<stop  offset="0" style="stop-color:#00FFE2"/>
			<stop  offset="0.1506" style="stop-color:#06F5E0"/>
			<stop  offset="0.4082" style="stop-color:#15DADC"/>
			<stop  offset="0.7394" style="stop-color:#2EADD6"/>
			<stop  offset="1" style="stop-color:#4486D0"/>
		</linearGradient>
		<polygon fill="url(#SVGID_5_)" points="132.941,81.376 133.785,97.451 152.566,107.808 151.725,91.732 		"/>
	</g>
	<path fill="#E4EAEF" d="M234.318,110.701"/>
	<path fill="#22313F" d="M127.657,119.395c-4.055-2.055-7.371-7.082-7.371-11.172c0-4.092,3.338-5.799,7.418-3.797l67.14,32.932
		c4.081,2.002,7.071,7.109,6.646,11.354c-0.427,4.241-4.093,6.03-8.146,3.978L127.657,119.395z"/>
	
		<linearGradient id="SVGID_6_" gradientUnits="userSpaceOnUse" x1="37.939" y1="102.0107" x2="116.3408" y2="102.0107" gradientTransform="matrix(1 0 0 -1 84 231)">
		<stop  offset="4.810700e-04" style="stop-color:#22313F"/>
		<stop  offset="1" style="stop-color:#33475C"/>
	</linearGradient>
	<path fill="url(#SVGID_6_)" d="M129.29,118.42c-4.043-2.076-7.351-6.296-7.351-9.38c0-3.082,3.346-3.981,7.437-2.001l63.799,30.906
		c4.091,1.981,7.312,6.578,7.161,10.215c-0.152,3.635-3.583,4.912-7.626,2.834L129.29,118.42z"/>
	
		<linearGradient id="SVGID_7_" gradientUnits="userSpaceOnUse" x1="-24.6021" y1="120.0195" x2="-39.476" y2="89.4454" gradientTransform="matrix(1 0 0 -1 84 231)">
		<stop  offset="0" style="stop-color:#E10098"/>
		<stop  offset="0.2354" style="stop-color:#DE0198"/>
		<stop  offset="0.4064" style="stop-color:#D50496"/>
		<stop  offset="0.557" style="stop-color:#C50A93"/>
		<stop  offset="0.6958" style="stop-color:#AF1290"/>
		<stop  offset="0.8266" style="stop-color:#921C8B"/>
		<stop  offset="0.9497" style="stop-color:#6F2985"/>
		<stop  offset="1" style="stop-color:#5E2F82"/>
	</linearGradient>
	<polygon fill="url(#SVGID_7_)" points="40.958,106.053 21.126,115.969 65.749,140.759 85.58,130.843 	"/>
	<polygon fill="#EDEDED" points="73.335,130.18 73.356,130.168 73.336,130.156 73.356,130.146 73.336,130.135 73.356,130.125 
		73.336,130.113 73.356,130.104 73.336,130.092 73.356,130.082 73.335,130.07 73.356,130.061 73.335,130.048 73.356,130.037 
		73.336,130.025 73.356,130.016 73.336,130.004 73.356,129.994 73.335,129.982 73.356,129.973 73.336,129.961 73.356,129.95 
		73.336,129.939 73.356,129.93 73.335,129.917 73.356,129.906 73.335,129.895 73.356,129.885 73.336,129.874 73.357,129.863 
		73.336,129.852 73.356,129.842 73.336,129.83 73.356,129.82 73.334,129.809 73.356,129.797 73.336,129.785 73.356,129.775 
		73.336,129.764 73.356,129.754 73.336,129.742 73.356,129.732 73.335,129.721 73.356,129.71 73.336,129.699 73.356,129.688 
		40.467,111.561 32.59,115.469 32.611,115.48 32.59,115.49 32.612,115.502 32.59,115.513 32.611,115.523 32.59,115.534 
		32.611,115.545 32.59,115.556 32.611,115.566 32.59,115.577 32.612,115.589 32.59,115.6 32.612,115.611 32.59,115.622 
		32.611,115.633 32.59,115.644 32.611,115.654 32.59,115.665 32.612,115.677 32.59,115.688 32.611,115.699 32.59,115.709 
		32.611,115.721 32.59,115.73 32.611,115.742 32.59,115.752 32.612,115.764 32.59,115.774 32.611,115.785 32.59,115.796 
		32.611,115.807 32.59,115.817 32.611,115.828 32.59,115.839 32.612,115.851 32.59,115.861 32.611,115.873 32.59,115.883 
		32.611,115.895 32.59,115.904 32.611,115.916 32.59,115.926 32.613,115.938 32.59,115.949 32.611,115.961 32.59,115.971 
		32.611,115.982 32.59,115.992 32.611,116.004 32.59,116.014 32.612,116.025 32.59,116.036 32.611,116.047 32.59,116.058 
		32.612,116.069 32.59,116.08 32.611,116.092 32.59,116.102 32.611,116.113 32.59,116.123 32.611,116.135 32.59,116.145 
		32.612,116.156 32.59,116.167 32.611,116.178 32.59,116.188 32.612,116.2 32.59,116.211 32.611,116.223 32.59,116.232 
		32.611,116.244 32.59,116.254 32.611,116.266 32.59,116.275 32.612,116.287 32.59,116.298 32.611,116.309 32.59,116.319 
		32.612,116.331 32.59,116.342 32.611,116.354 32.59,116.363 32.611,116.375 32.59,116.385 32.611,116.396 32.59,116.406 
		32.612,116.418 32.59,116.429 32.611,116.439 32.59,116.45 32.612,116.462 32.59,116.473 32.611,116.484 32.59,116.494 
		32.611,116.506 32.59,116.516 32.611,116.527 32.59,116.537 32.612,116.549 32.59,116.56 32.612,116.571 32.59,116.582 
		32.611,116.594 32.59,116.604 32.611,116.615 32.59,116.625 32.611,116.637 32.59,116.646 32.611,116.658 32.59,116.668 
		32.612,116.68 32.59,116.69 32.612,116.702 32.59,116.713 32.611,116.725 32.59,116.734 32.611,116.746 32.59,116.756 
		32.611,116.768 32.59,116.777 32.611,116.789 32.59,116.799 32.612,116.811 32.59,116.821 32.611,116.832 32.59,116.843 
		32.612,116.854 32.59,116.865 32.611,116.877 32.59,116.887 32.611,116.898 32.59,116.908 32.611,116.92 32.59,116.93 
		32.612,116.941 32.59,116.952 32.612,116.964 32.59,116.975 32.611,116.986 32.59,116.996 32.611,117.008 32.59,117.018 
		32.611,117.029 32.59,117.039 32.611,117.051 32.59,117.061 32.612,117.072 32.59,117.083 32.612,117.095 32.59,117.105 
		32.611,117.117 32.59,117.127 32.611,117.139 32.59,117.148 32.611,117.16 32.59,117.17 32.611,117.182 32.59,117.191 
		32.612,117.203 32.59,117.214 32.611,117.225 32.59,117.235 32.611,117.246 32.59,117.257 32.612,117.269 32.59,117.279 
		32.611,117.291 32.59,117.301 32.612,117.312 32.59,117.323 32.611,117.334 32.59,117.345 32.612,117.356 32.59,117.367 
		32.611,117.379 32.59,117.389 32.611,117.4 32.59,117.41 32.611,117.422 32.59,117.432 32.612,117.443 32.59,117.454 
		32.611,117.465 32.59,117.476 32.611,117.486 32.59,117.497 32.611,117.508 32.59,117.519 32.612,117.53 32.59,117.541 
		32.611,117.553 32.59,117.562 32.611,117.574 32.59,117.584 32.612,117.596 32.59,117.606 32.612,117.618 32.59,117.629 
		32.611,117.641 32.59,117.65 32.611,117.662 32.59,117.672 65.48,135.801 73.356,131.893 73.335,131.881 73.356,131.87 
		73.336,131.859 73.356,131.85 73.336,131.838 73.356,131.827 73.336,131.816 73.356,131.807 73.335,131.794 73.356,131.783 
		73.336,131.771 73.356,131.762 73.336,131.75 73.356,131.74 73.336,131.729 73.356,131.719 73.334,131.707 73.356,131.695 
		73.336,131.684 73.356,131.674 73.336,131.662 73.357,131.652 73.336,131.641 73.356,131.631 73.334,131.619 73.356,131.607 
		73.336,131.598 73.356,131.587 73.336,131.576 73.356,131.564 73.336,131.555 73.356,131.544 73.335,131.532 73.356,131.521 
		73.336,131.51 73.356,131.5 73.336,131.488 73.356,131.479 73.336,131.467 73.356,131.457 73.334,131.445 73.356,131.434 
		73.336,131.422 73.356,131.412 73.336,131.4 73.356,131.391 73.336,131.379 73.356,131.369 73.336,131.357 73.356,131.348 
		73.335,131.336 73.357,131.325 73.336,131.314 73.357,131.305 73.335,131.291 73.356,131.281 73.335,131.27 73.356,131.26 
		73.335,131.248 73.356,131.238 73.336,131.227 73.356,131.217 73.335,131.205 73.356,131.193 73.336,131.184 73.356,131.173 
		73.335,131.161 73.356,131.15 73.336,131.139 73.356,131.129 73.336,131.117 73.356,131.107 73.335,131.096 73.356,131.085 
		73.336,131.074 73.356,131.062 73.335,131.052 73.356,131.041 73.336,131.029 73.356,131.02 73.336,131.008 73.356,130.998 
		73.336,130.986 73.356,130.977 73.336,130.965 73.356,130.955 73.334,130.943 73.356,130.932 73.336,130.92 73.356,130.91 
		73.336,130.898 73.356,130.889 73.336,130.877 73.356,130.867 73.336,130.855 73.356,130.846 73.336,130.834 73.356,130.824 
		73.334,130.812 73.356,130.801 73.336,130.789 73.356,130.779 73.336,130.768 73.356,130.758 73.336,130.746 73.356,130.736 
		73.336,130.725 73.356,130.715 73.334,130.703 73.356,130.691 73.336,130.68 73.356,130.67 73.336,130.658 73.356,130.648 
		73.336,130.637 73.356,130.627 73.336,130.615 73.356,130.605 73.336,130.594 73.356,130.584 73.334,130.572 73.356,130.561 
		73.336,130.549 73.356,130.539 73.336,130.527 73.356,130.518 73.336,130.506 73.356,130.496 73.336,130.484 73.356,130.475 
		73.335,130.463 73.356,130.452 73.336,130.441 73.356,130.432 73.335,130.419 73.356,130.408 73.336,130.396 73.356,130.387 
		73.336,130.375 73.356,130.365 73.335,130.354 73.356,130.343 73.336,130.332 73.356,130.32 73.336,130.311 73.356,130.3 
		73.335,130.288 73.356,130.277 73.335,130.266 73.356,130.256 73.335,130.244 73.356,130.234 73.335,130.223 73.357,130.212 
		73.336,130.201 73.357,130.189 	"/>
	
		<linearGradient id="SVGID_8_" gradientUnits="userSpaceOnUse" x1="-62.874" y1="95.1992" x2="-18.251" y2="95.1992" gradientTransform="matrix(1 0 0 -1 84 231)">
		<stop  offset="0" style="stop-color:#E10098"/>
		<stop  offset="0.2354" style="stop-color:#DE0198"/>
		<stop  offset="0.4064" style="stop-color:#D50496"/>
		<stop  offset="0.557" style="stop-color:#C50A93"/>
		<stop  offset="0.6958" style="stop-color:#AF1290"/>
		<stop  offset="0.8266" style="stop-color:#921C8B"/>
		<stop  offset="0.9497" style="stop-color:#6F2985"/>
		<stop  offset="1" style="stop-color:#5E2F82"/>
	</linearGradient>
	<polygon fill="url(#SVGID_8_)" points="21.126,115.969 21.126,130.843 65.749,155.633 65.749,140.759 	"/>
	
		<linearGradient id="SVGID_9_" gradientUnits="userSpaceOnUse" x1="-43.042" y1="174.5264" x2="46.2021" y2="174.5264" gradientTransform="matrix(1 0 0 -1 84 231)">
		<stop  offset="0" style="stop-color:#E10098"/>
		<stop  offset="0.2354" style="stop-color:#DE0198"/>
		<stop  offset="0.4064" style="stop-color:#D50496"/>
		<stop  offset="0.557" style="stop-color:#C50A93"/>
		<stop  offset="0.6958" style="stop-color:#AF1290"/>
		<stop  offset="0.8266" style="stop-color:#921C8B"/>
		<stop  offset="0.9497" style="stop-color:#6F2985"/>
		<stop  offset="1" style="stop-color:#5E2F82"/>
	</linearGradient>
	<polygon fill="url(#SVGID_9_)" points="40.958,56.474 85.58,31.684 130.202,56.474 85.58,81.264 	"/>
	
		<linearGradient id="SVGID_10_" gradientUnits="userSpaceOnUse" x1="-43.042" y1="137.3418" x2="1.5801" y2="137.3418" gradientTransform="matrix(1 0 0 -1 84 231)">
		<stop  offset="0" style="stop-color:#E10098"/>
		<stop  offset="0.2354" style="stop-color:#DE0198"/>
		<stop  offset="0.4064" style="stop-color:#D50496"/>
		<stop  offset="0.557" style="stop-color:#C50A93"/>
		<stop  offset="0.6958" style="stop-color:#AF1290"/>
		<stop  offset="0.8266" style="stop-color:#921C8B"/>
		<stop  offset="0.9497" style="stop-color:#6F2985"/>
		<stop  offset="1" style="stop-color:#5E2F82"/>
	</linearGradient>
	<polygon fill="url(#SVGID_10_)" points="85.58,130.843 85.58,81.264 40.958,56.474 40.958,106.053 	"/>
	<polygon fill="#F7F7F7" points="45.365,103.462 45.365,63.963 81.173,83.856 81.173,123.353 	"/>
	
		<linearGradient id="SVGID_11_" gradientUnits="userSpaceOnUse" x1="6.4932" y1="163.1973" x2="21.0919" y2="88.5516" gradientTransform="matrix(1 0 0 -1 84 231)">
		<stop  offset="0" style="stop-color:#E10098"/>
		<stop  offset="0.2354" style="stop-color:#DE0198"/>
		<stop  offset="0.4064" style="stop-color:#D50496"/>
		<stop  offset="0.557" style="stop-color:#C50A93"/>
		<stop  offset="0.6958" style="stop-color:#AF1290"/>
		<stop  offset="0.8266" style="stop-color:#921C8B"/>
		<stop  offset="0.9497" style="stop-color:#6F2985"/>
		<stop  offset="1" style="stop-color:#5E2F82"/>
	</linearGradient>
	<polygon fill="url(#SVGID_11_)" points="130.202,56.474 85.58,81.264 85.58,130.843 65.749,140.759 65.749,155.633 
		130.202,120.926 	"/>
	<path fill="#9DB2C9" d="M209.529,80.953"/>
	<g>
		
			<linearGradient id="SVGID_12_" gradientUnits="userSpaceOnUse" x1="21.5356" y1="123.0449" x2="69.4985" y2="123.0449" gradientTransform="matrix(0.9986 -0.0523 -0.0523 -0.9986 162.308 228.7429)">
			<stop  offset="0" style="stop-color:#00FFE2"/>
			<stop  offset="0.1506" style="stop-color:#06F5E0"/>
			<stop  offset="0.4082" style="stop-color:#15DADC"/>
			<stop  offset="0.7394" style="stop-color:#2EADD6"/>
			<stop  offset="1" style="stop-color:#4486D0"/>
		</linearGradient>
		<polygon fill="url(#SVGID_12_)" points="177.453,106.168 204.803,90.543 225.126,99.408 196.234,116.522 		"/>
		
			<linearGradient id="SVGID_13_" gradientUnits="userSpaceOnUse" x1="55.0771" y1="103.7944" x2="53.8234" y2="121.1382" gradientTransform="matrix(0.9986 -0.0523 -0.0523 -0.9986 162.308 228.7429)">
			<stop  offset="0" style="stop-color:#00FFE2"/>
			<stop  offset="0.1506" style="stop-color:#06F5E0"/>
			<stop  offset="0.4082" style="stop-color:#15DADC"/>
			<stop  offset="0.7394" style="stop-color:#2EADD6"/>
			<stop  offset="1" style="stop-color:#4486D0"/>
		</linearGradient>
		<polygon fill="url(#SVGID_13_)" points="225.126,99.408 225.875,115.383 197.078,132.598 196.234,116.522 		"/>
		
			<linearGradient id="SVGID_14_" gradientUnits="userSpaceOnUse" x1="19.7549" y1="111.8281" x2="45.3265" y2="102.6223" gradientTransform="matrix(0.9986 -0.0523 -0.0523 -0.9986 162.308 228.7429)">
			<stop  offset="0" style="stop-color:#00FFE2"/>
			<stop  offset="0.1506" style="stop-color:#06F5E0"/>
			<stop  offset="0.4082" style="stop-color:#15DADC"/>
			<stop  offset="0.7394" style="stop-color:#2EADD6"/>
			<stop  offset="1" style="stop-color:#4486D0"/>
		</linearGradient>
		<polygon fill="url(#SVGID_14_)" points="177.453,106.168 178.295,122.24 197.078,132.598 196.234,116.522 		"/>
	</g>
	<ellipse opacity="0.1" fill="#262728" enable-background="new    " cx="85.58" cy="53.995" rx="14.874" ry="7.437"/>
	
		<linearGradient id="SVGID_15_" gradientUnits="userSpaceOnUse" x1="-3.377" y1="179.2627" x2="6.5391" y2="179.2627" gradientTransform="matrix(1 0 0 -1 84 231)">
		<stop  offset="0" style="stop-color:#00FFE2"/>
		<stop  offset="0.1506" style="stop-color:#06F5E0"/>
		<stop  offset="0.4082" style="stop-color:#15DADC"/>
		<stop  offset="0.7394" style="stop-color:#2EADD6"/>
		<stop  offset="1" style="stop-color:#4486D0"/>
	</linearGradient>
	<path fill="url(#SVGID_15_)" d="M80.623,47v6.995c0,1.368,2.219,2.479,4.958,2.479c2.737,0,4.958-1.11,4.958-2.479V47H80.623z"/>
	
		<linearGradient id="SVGID_16_" gradientUnits="userSpaceOnUse" x1="1.6777" y1="208.1973" x2="0.7658" y2="171.4197" gradientTransform="matrix(1 0 0 -1 84 231)">
		<stop  offset="0" style="stop-color:#00FFE2"/>
		<stop  offset="0.1506" style="stop-color:#06F5E0"/>
		<stop  offset="0.4082" style="stop-color:#15DADC"/>
		<stop  offset="0.7394" style="stop-color:#2EADD6"/>
		<stop  offset="1" style="stop-color:#4486D0"/>
	</linearGradient>
	<path fill="url(#SVGID_16_)" d="M70.706,26.727l9.917,22.311c0,1.369,2.219,2.479,4.958,2.479c2.737,0,4.958-1.11,4.958-2.479
		l9.917-22.311H70.706z"/>
	
		<linearGradient id="SVGID_17_" gradientUnits="userSpaceOnUse" x1="-13.2939" y1="203.7266" x2="16.4551" y2="203.7266" gradientTransform="matrix(1 0 0 -1 84 231)">
		<stop  offset="0" style="stop-color:#00FFE2"/>
		<stop  offset="0.1506" style="stop-color:#06F5E0"/>
		<stop  offset="0.4082" style="stop-color:#15DADC"/>
		<stop  offset="0.7394" style="stop-color:#2EADD6"/>
		<stop  offset="1" style="stop-color:#4486D0"/>
	</linearGradient>
	<path fill="url(#SVGID_17_)" d="M100.455,27.275c0,3.651-6.661,6.608-14.875,6.608s-14.874-2.957-14.874-6.608
		c0-3.653,6.66-6.611,14.874-6.611S100.455,23.622,100.455,27.275z"/>
	
		<linearGradient id="SVGID_18_" gradientUnits="userSpaceOnUse" x1="1.2842" y1="197.3574" x2="1.927" y2="211.2209" gradientTransform="matrix(1 0 0 -1 84 231)">
		<stop  offset="0" style="stop-color:#00D0E2"/>
		<stop  offset="0.1417" style="stop-color:#05C6E1"/>
		<stop  offset="0.3843" style="stop-color:#13ABDD"/>
		<stop  offset="0.6959" style="stop-color:#2A7ED7"/>
		<stop  offset="1" style="stop-color:#444DD0"/>
	</linearGradient>
	<path fill="url(#SVGID_18_)" d="M85.58,32.508c-3.747,0-7.244-0.673-9.846-1.893c-2.083-0.977-3.375-2.256-3.375-3.34
		c0-1.086,1.292-2.366,3.375-3.342c2.602-1.221,6.099-1.893,9.846-1.893s7.244,0.672,9.845,1.893
		c2.082,0.976,3.375,2.256,3.375,3.342c0,1.084-1.293,2.363-3.375,3.34C92.824,31.835,89.327,32.508,85.58,32.508z"/>
	<g>
		<path fill="#E535AB" d="M83.959,17.279c-0.176-0.006-0.347,0.012-0.508,0.053l-2.229-4.252c0.127-0.11,0.241-0.241,0.336-0.393
			c0.531-0.842,0.281-1.951-0.557-2.484c-0.843-0.531-1.953-0.281-2.487,0.557c-0.096,0.152-0.165,0.312-0.21,0.479l-4.794-0.197
			c-0.032-0.166-0.09-0.332-0.173-0.492c-0.462-0.881-1.549-1.219-2.431-0.757c-0.882,0.462-1.221,1.548-0.759,2.431
			c0.083,0.158,0.186,0.297,0.304,0.419l-2.567,4.056c-0.16-0.055-0.331-0.089-0.51-0.099c-0.992-0.036-1.833,0.736-1.872,1.729
			c-0.039,0.994,0.734,1.834,1.728,1.874c0.177,0.008,0.349-0.013,0.514-0.055l2.229,4.251c-0.126,0.11-0.239,0.24-0.333,0.388
			c-0.531,0.844-0.281,1.953,0.557,2.488c0.839,0.531,1.948,0.281,2.487-0.56c0.094-0.147,0.162-0.308,0.208-0.468l4.793,0.195
			c0.033,0.165,0.089,0.329,0.171,0.484c0.462,0.883,1.548,1.222,2.431,0.76c0.881-0.463,1.217-1.555,0.758-2.432
			c-0.093-0.174-0.209-0.33-0.344-0.459l2.55-4.029c0.176,0.066,0.365,0.105,0.562,0.115c0.993,0.036,1.834-0.736,1.874-1.729
			C85.73,18.156,84.958,17.319,83.959,17.279z M72.513,24.561c-0.11-0.125-0.24-0.238-0.388-0.332
			c-0.149-0.093-0.306-0.162-0.467-0.209L72.1,13.152c0.163-0.032,0.323-0.089,0.478-0.169c0.154-0.082,0.292-0.184,0.413-0.299
			l9.188,5.818c-0.054,0.159-0.086,0.328-0.093,0.506c-0.007,0.175,0.013,0.344,0.053,0.506L72.513,24.561z M78.275,12.094
			c0.096,0.461,0.37,0.88,0.798,1.153c0.429,0.272,0.93,0.34,1.389,0.228l2.231,4.256c-0.017,0.016-0.035,0.031-0.054,0.048
			l-9.19-5.816c0.008-0.021,0.015-0.044,0.021-0.065L78.275,12.094z M71.177,13.096c0.023,0.01,0.046,0.015,0.069,0.021
			l-0.443,10.869c-0.024,0.003-0.047,0.012-0.072,0.016L68.5,19.746c0.354-0.314,0.583-0.766,0.604-1.273
			c0.02-0.506-0.172-0.974-0.498-1.312L71.177,13.096z M80.066,24.397c-0.458-0.166-0.983-0.147-1.451,0.098
			c-0.452,0.237-0.761,0.64-0.892,1.089l-4.799-0.193c-0.005-0.023-0.009-0.047-0.015-0.07l9.628-5.049
			c0.028,0.03,0.056,0.062,0.084,0.091L80.066,24.397z"/>
		<g>
			<path fill="#FFFFFF" d="M72.513,24.559c-0.109-0.127-0.239-0.239-0.387-0.333c-0.149-0.093-0.307-0.161-0.468-0.209L72.1,13.149
				c0.164-0.034,0.324-0.089,0.479-0.17c0.154-0.08,0.291-0.182,0.412-0.297l9.188,5.817c-0.053,0.159-0.085,0.329-0.092,0.506
				C82.08,19.18,82.1,19.35,82.14,19.512L72.513,24.559z"/>
			<path fill="#FFFFFF" d="M78.275,12.091c0.095,0.46,0.37,0.881,0.799,1.154c0.428,0.272,0.929,0.339,1.388,0.228l2.231,4.256
				c-0.018,0.016-0.035,0.031-0.054,0.048l-9.19-5.817c0.007-0.021,0.014-0.043,0.021-0.066L78.275,12.091z"/>
			<path fill="#FFFFFF" d="M71.177,13.094c0.023,0.01,0.046,0.015,0.069,0.021l-0.443,10.87c-0.023,0.003-0.047,0.008-0.072,0.016
				L68.5,19.744c0.353-0.314,0.583-0.766,0.603-1.273c0.02-0.508-0.172-0.974-0.497-1.314L71.177,13.094z"/>
			<path fill="#FFFFFF" d="M80.068,24.396c-0.46-0.167-0.984-0.147-1.452,0.098c-0.452,0.237-0.761,0.637-0.892,1.089l-4.798-0.195
				c-0.004-0.023-0.01-0.045-0.016-0.068l9.629-5.049c0.028,0.03,0.055,0.062,0.084,0.09L80.068,24.396z"/>
		</g>
	</g>
	<g>
		<path fill="#E535AB" d="M91.883,28.139c0.015-0.096,0.014-0.189,0.002-0.281l2.453-0.963c0.053,0.075,0.118,0.146,0.193,0.207
			c0.429,0.338,1.05,0.268,1.391-0.156c0.34-0.43,0.271-1.05-0.157-1.393c-0.076-0.061-0.159-0.107-0.246-0.143l0.394-2.605
			c0.091-0.009,0.185-0.029,0.277-0.064c0.508-0.203,0.758-0.775,0.558-1.281c-0.198-0.512-0.771-0.762-1.282-0.561
			c-0.091,0.037-0.172,0.084-0.246,0.141l-2.062-1.644c0.042-0.082,0.07-0.173,0.084-0.273c0.081-0.538-0.291-1.043-0.831-1.125
			c-0.541-0.079-1.046,0.294-1.128,0.833c-0.014,0.096-0.011,0.19,0,0.283l-2.453,0.965c-0.053-0.077-0.117-0.146-0.192-0.206
			c-0.431-0.341-1.051-0.271-1.393,0.156c-0.34,0.427-0.271,1.048,0.157,1.392c0.076,0.06,0.159,0.107,0.244,0.141l-0.392,2.606
			c-0.092,0.007-0.187,0.029-0.275,0.065c-0.509,0.199-0.76,0.771-0.559,1.282c0.2,0.507,0.774,0.759,1.281,0.557
			c0.103-0.039,0.193-0.094,0.271-0.159l2.05,1.631c-0.047,0.094-0.08,0.194-0.095,0.302c-0.081,0.538,0.29,1.045,0.831,1.125
			C91.298,29.054,91.8,28.682,91.883,28.139z M88.587,21.454c0.076-0.052,0.145-0.115,0.205-0.191
			c0.061-0.075,0.107-0.157,0.143-0.243l5.908,0.889c0.007,0.092,0.028,0.183,0.063,0.271c0.036,0.092,0.083,0.171,0.137,0.244
			l-3.723,4.669c-0.083-0.035-0.173-0.064-0.27-0.078C90.956,27,90.861,27,90.771,27.012L88.587,21.454z M95.053,25.344
			c-0.257,0.023-0.503,0.15-0.678,0.367c-0.175,0.219-0.24,0.486-0.207,0.744l-2.457,0.965c-0.007-0.01-0.016-0.021-0.024-0.032
			l3.723-4.672c0.013,0.005,0.024,0.009,0.036,0.015L95.053,25.344z M94.928,21.408c-0.006,0.012-0.01,0.024-0.016,0.035
			l-5.909-0.888c-0.001-0.013-0.001-0.026-0.003-0.041l2.457-0.964c0.15,0.212,0.382,0.364,0.659,0.404
			c0.275,0.041,0.541-0.035,0.747-0.192L94.928,21.408z M88.227,25.59c0.119-0.241,0.14-0.53,0.033-0.799
			c-0.103-0.262-0.304-0.451-0.543-0.553l0.393-2.607c0.014-0.003,0.027-0.003,0.04-0.006l2.183,5.559
			c-0.018,0.014-0.035,0.027-0.054,0.041L88.227,25.59z"/>
		<g>
			<path fill="#FFFFFF" d="M88.589,21.457c0.075-0.055,0.144-0.118,0.204-0.194c0.061-0.075,0.107-0.156,0.143-0.243l5.908,0.891
				c0.008,0.09,0.029,0.183,0.064,0.27c0.035,0.091,0.082,0.172,0.137,0.243l-3.723,4.673c-0.083-0.039-0.174-0.066-0.271-0.082
				C90.957,27,90.863,27,90.771,27.012L88.589,21.457z"/>
			<path fill="#FFFFFF" d="M95.055,25.345c-0.258,0.022-0.504,0.149-0.679,0.366c-0.175,0.219-0.24,0.489-0.206,0.744l-2.456,0.965
				c-0.009-0.01-0.017-0.021-0.024-0.032l3.724-4.672c0.011,0.005,0.022,0.011,0.035,0.015L95.055,25.345z"/>
			<path fill="#FFFFFF" d="M94.93,21.408c-0.006,0.012-0.013,0.024-0.016,0.037l-5.909-0.89c-0.002-0.013-0.004-0.026-0.004-0.041
				l2.456-0.964c0.15,0.212,0.383,0.364,0.658,0.404c0.279,0.041,0.542-0.035,0.749-0.192L94.93,21.408z"/>
			<path fill="#FFFFFF" d="M88.229,25.59c0.119-0.239,0.139-0.53,0.034-0.797c-0.103-0.262-0.304-0.453-0.543-0.555l0.392-2.607
				c0.013-0.001,0.026-0.003,0.04-0.004l2.184,5.558c-0.02,0.014-0.037,0.026-0.056,0.04L88.229,25.59z"/>
		</g>
	</g>
	<g>
		<path fill="#E535AB" d="M88.459,14.003c0.036-0.077,0.061-0.157,0.075-0.236l2.353-0.22c0.024,0.083,0.063,0.156,0.113,0.23
			c0.285,0.399,0.836,0.494,1.237,0.214c0.399-0.284,0.495-0.837,0.212-1.239c-0.051-0.068-0.109-0.134-0.176-0.184l0.992-2.147
			c0.08,0.017,0.167,0.021,0.255,0.017c0.488-0.048,0.847-0.477,0.801-0.966c-0.044-0.487-0.476-0.845-0.964-0.8
			c-0.087,0.006-0.17,0.029-0.247,0.059l-1.366-1.933c0.057-0.062,0.106-0.136,0.14-0.212c0.206-0.447,0.012-0.973-0.433-1.178
			c-0.444-0.207-0.971-0.012-1.176,0.43c-0.038,0.084-0.061,0.164-0.072,0.246l-2.354,0.218c-0.026-0.078-0.064-0.156-0.113-0.229
			c-0.285-0.398-0.836-0.491-1.238-0.212c-0.399,0.279-0.496,0.836-0.213,1.237c0.049,0.069,0.111,0.134,0.174,0.183L85.47,9.428
			c-0.082-0.017-0.169-0.024-0.255-0.015c-0.489,0.045-0.847,0.473-0.8,0.964c0.042,0.486,0.478,0.845,0.962,0.804
			c0.099-0.01,0.191-0.035,0.274-0.073l1.355,1.922c-0.062,0.066-0.117,0.146-0.156,0.233c-0.206,0.445-0.013,0.971,0.433,1.175
			C87.727,14.646,88.253,14.455,88.459,14.003z M87.295,7.426c0.079-0.025,0.155-0.064,0.226-0.115
			c0.069-0.047,0.13-0.105,0.184-0.172l4.863,2.243c-0.016,0.085-0.02,0.164-0.013,0.253c0.008,0.085,0.03,0.166,0.057,0.241
			l-4.375,3.091c-0.062-0.054-0.133-0.101-0.211-0.136c-0.079-0.039-0.161-0.063-0.242-0.071L87.295,7.426z M91.89,12.394
			c-0.228-0.04-0.471,0.002-0.675,0.145c-0.207,0.146-0.328,0.362-0.366,0.591l-2.356,0.216c-0.005-0.012-0.009-0.021-0.013-0.033
			l4.376-3.089c0.007,0.006,0.017,0.011,0.026,0.021L91.89,12.394z M92.767,8.975c-0.008,0.008-0.017,0.021-0.022,0.029L87.88,6.756
			c0.001-0.011,0.005-0.024,0.007-0.037l2.357-0.212c0.077,0.22,0.237,0.406,0.466,0.511c0.227,0.105,0.475,0.108,0.692,0.021
			L92.767,8.975z M85.95,10.895c0.163-0.175,0.252-0.419,0.229-0.679c-0.023-0.251-0.148-0.466-0.329-0.613l0.991-2.146
			c0.013,0.001,0.022,0.009,0.036,0.009l0.486,5.332c-0.02,0.007-0.038,0.015-0.058,0.021L85.95,10.895z"/>
		<g>
			<path fill="#FFFFFF" d="M87.298,7.426c0.078-0.025,0.152-0.061,0.223-0.113c0.07-0.049,0.133-0.107,0.185-0.174l4.863,2.246
				c-0.016,0.082-0.021,0.163-0.013,0.25c0.007,0.085,0.029,0.167,0.058,0.244l-4.376,3.088c-0.062-0.054-0.134-0.101-0.213-0.136
				c-0.079-0.039-0.159-0.062-0.242-0.071L87.298,7.426z"/>
			<path fill="#FFFFFF" d="M91.89,12.395c-0.228-0.041-0.472,0.001-0.675,0.146c-0.205,0.144-0.328,0.359-0.365,0.588l-2.357,0.216
				c-0.003-0.012-0.007-0.021-0.012-0.033l4.376-3.089c0.007,0.006,0.016,0.014,0.026,0.021L91.89,12.395z"/>
			<path fill="#FFFFFF" d="M92.768,8.975c-0.007,0.01-0.015,0.021-0.021,0.029L87.88,6.756c0.002-0.01,0.004-0.024,0.008-0.037
				l2.356-0.212c0.076,0.22,0.24,0.409,0.465,0.513c0.228,0.105,0.477,0.106,0.692,0.02L92.768,8.975z"/>
			<path fill="#FFFFFF" d="M85.952,10.895c0.162-0.175,0.251-0.418,0.229-0.678C86.157,9.97,86.032,9.75,85.85,9.605l0.991-2.149
				c0.013,0.003,0.023,0.009,0.037,0.011l0.485,5.33c-0.019,0.007-0.035,0.015-0.055,0.022L85.952,10.895z"/>
		</g>
	</g>
	<polygon fill="#F7F7F7" points="32.59,115.469 40.467,111.561 73.356,129.688 65.48,133.598 	"/>
	<path fill="#FFFFFF" d="M123.516,98.582c-0.428-0.275-0.95-0.334-1.496-0.229l-0.195-8.282c0.548-0.374,1.066-0.892,1.483-1.541
		c1.193-1.859,1.128-4.029-0.147-4.849c-1.274-0.818-3.274,0.027-4.468,1.885c-0.021,0.032-0.034,0.065-0.054,0.098l-6.546-1.239
		c0.14-1.201-0.238-2.299-1.113-2.86c-1.381-0.887-3.467-0.097-4.661,1.761c-0.879,1.37-1.023,2.933-0.491,4.019l-6.662,7.154
		c-1.276-0.782-3.25,0.061-4.433,1.901c-1.195,1.861-1.129,4.032,0.146,4.849c0.415,0.268,0.911,0.343,1.428,0.278l0.043,9.414
		c-0.571,0.376-1.111,0.911-1.543,1.584c-1.195,1.861-1.129,4.032,0.146,4.849c1.273,0.822,3.275-0.023,4.469-1.885
		c0.078-0.121,0.136-0.246,0.203-0.37l7.163,1.007c-0.339,1.356-0.057,2.628,0.853,3.21c1.273,0.822,3.275-0.023,4.469-1.885
		c0.884-1.378,1.074-2.924,0.595-3.967l6.726-8.06c1.221,0.547,3.005-0.312,4.125-2.06
		C124.751,101.504,124.733,99.365,123.516,98.582z M100.079,111.696c-0.157-0.422-0.406-0.778-0.762-1.021l9.202-22.077
		c0.51-0.103,1.022-0.342,1.503-0.689l9.24,12.477c-0.036,0.052-0.076,0.096-0.11,0.149c-0.439,0.685-0.711,1.405-0.823,2.084
		L100.079,111.696z M118.015,87.072c-0.393,1.406-0.115,2.742,0.824,3.343c0.435,0.28,0.957,0.354,1.5,0.271l0.197,8.362
		c-0.084,0.062-0.169,0.126-0.252,0.195l-9.188-12.408c0.075-0.101,0.156-0.191,0.225-0.299c0.139-0.217,0.256-0.44,0.359-0.665
		L118.015,87.072z M99.35,99.363c0.793-1.236,1.018-2.602,0.713-3.625l6.826-7.332c0.024,0.012,0.047,0.022,0.071,0.033
		l-9.111,21.86l-0.043-9.35C98.377,100.573,98.917,100.037,99.35,99.363z M100.167,113.68c0.028-0.131,0.059-0.262,0.075-0.389
		l18.182-9.046c0.004,0.012,0.007,0.022,0.011,0.034l-6.815,8.166c-1.269-0.495-3.03,0.341-4.123,2.041
		c-0.043,0.068-0.074,0.139-0.114,0.208L100.167,113.68z"/>
	<g>
		<g>
			<path fill="#F7F7F7" d="M168.299,78.843c0.133,0.383-0.056,0.791-0.508,1.065l-6.833,4.185c-0.451,0.274-1.077,0.374-1.66,0.265
				l-8.888-1.73c-0.252-0.064-0.483-0.168-0.669-0.292c-0.243-0.171-0.38-0.346-0.451-0.528l-0.647-1.996
				c-0.108-0.292,0.082-0.233,0.194-0.191c0.505,0.175,0.601,0.205,1.22,0.33l0.125,0.102l0.494,1.536l0.163,0.116l8.888,1.723
				c0.082,0.021,0.172,0.004,0.244-0.042l6.84-4.189c0.076-0.042,0.104-0.1,0.08-0.157l-2.049-5.912l-0.162-0.117l-8.882-1.733
				l-0.243,0.041l-6.84,4.19l-0.081,0.156l0.562,1.617c0.1,0.232,0.25,0.404,0.43,0.522c0.461,0.308,1.102,0.262,1.475,0.033
				l6.754-4.135c0.084-0.054,0.244-0.058,0.345,0.009l0.694,0.488c0.082,0.054,0.092,0.162-0.018,0.225l-6.749,4.131
				c-1.146,0.705-2.392,0.726-3.409,0.049c-0.02-0.014-0.039-0.026-0.06-0.04c-0.313-0.226-0.558-0.396-0.886-1.113l-0.549-1.55
				c-0.139-0.387,0.062-0.795,0.508-1.065l6.84-4.189c0.445-0.27,1.076-0.373,1.654-0.26l8.895,1.727
				c0.26,0.053,0.501,0.153,0.695,0.283c0.22,0.146,0.381,0.328,0.451,0.521L168.299,78.843z"/>
		</g>
		<g>
			<path fill="#F7F7F7" d="M156.443,77.741c0.088,0.059,0.093,0.146,0.002,0.196c-0.674,0.558-0.748,1.016,0.705,2.032
				c0.062,0.044,0.123,0.085,0.183,0.125c1.048,0.698,1.778,0.83,2.414,0.444c0.38-0.236,0.526-0.503-1.071-1.879
				c-1.33-1.146-1.908-2.013-0.617-2.803c1.162-0.717,2.746-0.535,4.256,0.471c0.049,0.032,0.099,0.066,0.147,0.1
				c1.753,1.227,1.966,2.231,0.653,3.184l-0.18,0.05l-0.164-0.042l-0.709-0.497c-0.074-0.05-0.086-0.133-0.026-0.187
				c0.663-0.616,0.502-1.078-0.625-1.863c-0.042-0.029-0.084-0.058-0.125-0.085c-1.177-0.782-1.774-0.605-2.117-0.393
				c-0.426,0.267-0.386,0.471,1.079,1.802c1.445,1.325,1.9,2.092,0.622,2.873c-1.276,0.765-2.937,0.567-4.623-0.555
				c-0.054-0.035-0.106-0.071-0.159-0.109c-2.395-1.676-1.707-2.749-0.693-3.369c0.084-0.055,0.244-0.058,0.344,0.009
				L156.443,77.741z"/>
		</g>
	</g>
	<path fill="#F7F7F7" d="M191.648,102.215c0.228,0.146,0.469,0.281,0.695,0.426c-0.716,0.434-1.425,0.862-2.141,1.296
		c-0.732,0.442-1.457,0.881-2.195,1.319c-0.412,0.241-0.839,0.488-1.372,0.592c-0.524,0.098-1.129,0.065-1.722-0.078l0.021-0.217
		l0.037-0.198c0.661,0.085,1.163,0.046,1.563-0.117c0.356-0.146,0.669-0.335,0.966-0.514c0.092-0.056,0.191-0.116,0.29-0.176
		c0.556-0.336,1.104-0.669,1.669-1.011C190.18,103.104,190.918,102.656,191.648,102.215z M193.465,104.848
		c-0.086-0.066-0.179-0.131-0.281-0.19c-0.42-0.253-0.967-0.459-1.58-0.606c-0.108,0.101-0.209,0.196-0.31,0.301
		c0.377,0.108,0.842,0.258,1.208,0.478l0.154,0.103c0.132,0.088,0.334,0.265,0.26,0.477c-0.064,0.182-0.279,0.302-0.484,0.426
		l-0.168,0.102l-0.039,0.023l-0.043-0.026c-0.307-0.185-0.621-0.374-0.998-0.517c-0.457-0.191-0.91-0.279-1.328-0.246
		c-0.486,0.021-0.963,0.221-1.256,0.521c-0.179,0.18-0.217,0.413-0.089,0.602c0.095,0.136,0.24,0.262,0.421,0.372
		c0.135,0.08,0.287,0.149,0.455,0.208c0.333,0.117,0.734,0.156,1.115,0.173l0.104,0.008l-0.062,0.046
		c-0.114,0.079-0.207,0.16-0.321,0.248l0.506,0.303l2.612-1.582c0.198-0.119,0.451-0.308,0.503-0.543
		C193.9,105.246,193.677,105.001,193.465,104.848z M191.777,106.23c-0.207,0.116-0.403,0.236-0.588,0.356
		c-0.099,0.06-0.197,0.119-0.297,0.179l-0.022,0.014l-0.021-0.004c-0.352-0.018-0.774-0.061-1.1-0.209l-0.109-0.057
		c-0.205-0.123-0.291-0.265-0.256-0.401c0.043-0.176,0.243-0.341,0.553-0.448c0.219-0.081,0.511-0.081,0.783,0.002
		c0.326,0.094,0.584,0.238,0.803,0.369c0.08,0.05,0.168,0.102,0.25,0.15l0.043,0.026L191.777,106.23 M197.219,107.154
		c-1.068,0.497-2.264,0.947-3.644,1.358l-0.151,0.048l0.078-0.092c0.077-0.081,0.163-0.168,0.254-0.251l0.084-0.077
		c0.186-0.164,0.333-0.343,0.48-0.512c0.07-0.077,0.14-0.154,0.216-0.236c0.179-0.206,0.364-0.406,0.543-0.611
		c0.179-0.197,0.356-0.392,0.535-0.59l-0.726-0.434c-0.466,0.52-0.932,1.04-1.396,1.56c-0.396,0.433-0.784,0.861-1.171,1.291
		l0.863,0.519c1.558-0.36,3.15-0.884,4.727-1.555L197.219,107.154z M200.156,108.863c-0.09-0.069-0.188-0.136-0.292-0.197
		c-0.416-0.251-0.951-0.455-1.578-0.604l-0.154,0.146l-0.147,0.149c0.371,0.113,0.836,0.264,1.201,0.482l0.205,0.133
		c0.204,0.149,0.28,0.324,0.194,0.473c-0.08,0.164-0.278,0.285-0.469,0.399l-0.168,0.101l-0.039,0.024l-0.043-0.026l-0.14-0.084
		c-0.438-0.264-0.93-0.521-1.539-0.639c-0.453-0.087-0.932-0.054-1.302,0.091c-0.485,0.205-0.778,0.488-0.765,0.754
		c0.007,0.207,0.172,0.416,0.488,0.605l0.189,0.104c0.338,0.166,0.805,0.263,1.379,0.276l0.096,0.003l-0.053,0.051
		c-0.085,0.069-0.162,0.132-0.246,0.202l-0.068,0.051l0.182,0.118l0.191,0.105l0.115,0.08c0.549-0.323,1.098-0.656,1.625-0.975
		c0.319-0.193,0.64-0.386,0.967-0.586c0.328-0.189,0.506-0.385,0.543-0.584C200.577,109.252,200.359,109.012,200.156,108.863z
		 M197.584,110.771l-0.016,0.01h-0.029c-0.448-0.012-0.819-0.078-1.1-0.2l-0.117-0.061c-0.146-0.088-0.307-0.229-0.262-0.406
		c0.058-0.175,0.258-0.341,0.56-0.444c0.219-0.08,0.511-0.08,0.769-0.006c0.326,0.094,0.598,0.247,0.817,0.378l0.292,0.177
		l-0.266,0.151C198.02,110.499,197.797,110.635,197.584,110.771 M214.691,96.624c-0.59,0.243-1.342,0.38-2.237,0.401
		c-0.731,0.021-1.463-0.023-2.177-0.066c-0.648-0.04-1.327-0.079-2-0.07c-0.508,0.018-1.047,0.043-1.5,0.193
		c-0.407,0.122-0.744,0.37-0.949,0.689c-0.27,0.427-0.344,0.888-0.371,1.274c-0.025,0.324-0.037,0.667-0.014,1.067
		c0.119-0.225,0.195-0.463,0.27-0.693c0.124-0.366,0.242-0.747,0.53-1.097c0.296-0.364,0.864-0.648,1.526-0.766
		c0.817-0.151,1.662-0.122,2.392-0.089c0.79,0.043,1.433,0.042,2.039,0.002c1.002-0.06,1.791-0.221,2.428-0.482
		c0.583-0.246,1.015-0.631,1.138-1.014C215.421,96.271,215.079,96.479,214.691,96.624z M210.777,98.26
		c-0.709-0.047-1.701-0.037-2.43,0.325c-0.57,0.283-0.93,0.747-1.031,1.374c-0.041,0.297-0.184,0.524-0.436,0.686
		c-0.273,0.175-0.682,0.289-1.13,0.323c0.788,0.087,1.409,0.063,1.942-0.064c0.431-0.11,0.767-0.349,0.888-0.626
		c0.049-0.117,0.091-0.248,0.125-0.365c0.065-0.218,0.134-0.434,0.276-0.644c0.141-0.209,0.386-0.375,0.672-0.46
		c0.437-0.142,0.938-0.163,1.318-0.163c0.963-0.001,1.907,0.116,2.822,0.232l0.273,0.037
		C212.889,98.554,211.798,98.34,210.777,98.26z M200.811,98.231l-0.156-0.028c-0.18-0.042-0.363-0.081-0.565-0.074l-0.092,0.025
		l-0.019,0.012l-0.026,0.047c0.01,0.135,0.118,0.255,0.212,0.356c0.368,0.386,0.865,0.729,1.294,1.035
		c0.336,0.229,0.694,0.461,1.119,0.716l0.22,0.124c1.465,0.852,2.67,1.437,3.901,1.899l0.067,0.022
		c0.117,0.042,0.235,0.086,0.369,0.102c0.2,0.021,0.402,0.058,0.602,0.096c-1.185-0.51-2.088-0.942-2.91-1.371
		c-0.535-0.284-1.232-0.656-1.913-1.064c-0.388-0.234-0.731-0.45-1.046-0.666L201.78,99.4c-0.22-0.166-0.452-0.335-0.587-0.535
		c-0.094-0.146,0.021-0.198,0.074-0.213c0.172-0.033,0.328-0.005,0.461,0.021l0.067,0.013c0.497,0.097,0.962,0.246,1.412,0.398
		C202.562,98.732,201.751,98.448,200.811,98.231z M200.02,99.796c-0.076-0.008-0.291-0.009-0.385,0.073
		c-0.092,0.091-0.044,0.213,0.006,0.316c0.125,0.25,0.364,0.465,0.625,0.695c0.369,0.314,0.801,0.619,1.327,0.936
		c0.286,0.171,0.587,0.342,0.931,0.521c0.903,0.46,1.838,0.847,2.776,1.152c-0.084-0.151-0.159-0.335-0.169-0.532
		c-0.758-0.309-1.545-0.644-2.265-1.029c-0.228-0.118-0.462-0.249-0.689-0.386c-0.461-0.276-0.928-0.594-1.444-0.987
		c-0.131-0.097-0.254-0.199-0.311-0.324c-0.035-0.094-0.009-0.17,0.074-0.221c0.1-0.052,0.212-0.066,0.322-0.072
		C200.553,99.869,200.302,99.81,200.02,99.796z M209.723,102.808c-0.199-0.092-0.435-0.187-0.695-0.205l0.029,0.008
		c0.148,0.053,0.295,0.104,0.42,0.179l0.064,0.04c0.425,0.29,0.484,0.74,0.123,1.047c-0.346,0.306-0.954,0.409-1.402,0.444
		c-0.877,0.062-1.77-0.061-2.445-0.173c0.902,0.303,1.725,0.466,2.515,0.509c0.647,0.021,1.183-0.055,1.576-0.23
		c0.387-0.173,0.606-0.464,0.584-0.751c-0.005-0.28-0.205-0.546-0.55-0.753L209.723,102.808z M196.797,101.014
		c-0.417-0.232-0.913-0.392-1.305-0.498c-0.422-0.115-0.844-0.223-1.292-0.225l-0.263,0.036l-0.139,0.109
		c-0.02,0.161,0.139,0.313,0.283,0.455l0.043,0.044c0.915,0.787,1.979,1.583,3.154,2.344c0.287,0.18,0.57,0.361,0.842,0.523
		c1.427,0.856,2.809,1.538,4.202,2.089c0.618,0.243,1.291,0.488,2.04,0.626l0.051,0.005c0.215,0.038,0.475,0.073,0.673-0.001
		c0.113-0.052,0.116-0.132,0.097-0.217c-0.056,0.067-0.146,0.124-0.289,0.139c-0.313,0.031-0.609-0.054-0.869-0.127l-0.043-0.018
		c-0.821-0.263-1.557-0.611-2.291-0.961c-1.123-0.555-2.164-1.124-3.103-1.688c-0.761-0.456-1.479-0.923-2.135-1.39
		c-0.479-0.362-1.033-0.777-1.376-1.25l-0.021-0.029c-0.05-0.076-0.121-0.184,0.03-0.267c0.159-0.053,0.345-0.022,0.472-0.002
		c0.52,0.091,1.022,0.255,1.471,0.468l-0.182-0.137L196.797,101.014z M198.736,101.103c-0.135-0.008-0.299,0.022-0.355,0.099
		c-0.093,0.109-0.052,0.227,0.003,0.352c0.14,0.304,0.414,0.579,0.705,0.826c0.306,0.259,0.657,0.504,1.041,0.735
		c0.44,0.264,0.925,0.507,1.448,0.724c0.62,0.242,1.181,0.422,1.729,0.55c-0.156-0.24-0.275-0.468-0.365-0.696l-0.072-0.027
		c-0.531-0.217-1.076-0.442-1.575-0.705c-0.169-0.092-0.353-0.192-0.535-0.303c-0.409-0.246-0.819-0.527-1.313-0.917l-0.064-0.058
		c-0.107-0.102-0.232-0.212-0.197-0.348c0.039-0.068,0.131-0.096,0.228-0.103C199.195,101.167,198.975,101.117,198.736,101.103z
		 M203.616,107.016c-0.999-0.296-1.911-0.688-2.685-1.031c-1.088-0.506-2.183-1.08-3.222-1.703
		c-0.263-0.159-0.534-0.331-0.796-0.497c-0.557-0.36-1.257-0.827-1.896-1.358c0.051,0.067,0.108,0.129,0.166,0.191l0.086,0.098
		c0.651,0.611,1.461,1.144,2.369,1.725c0.19,0.114,0.373,0.224,0.564,0.338c1.215,0.729,2.367,1.328,3.509,1.82
		c0.654,0.266,1.414,0.564,2.274,0.714c0.459,0.083,0.834,0.078,1.136-0.008C204.592,107.289,204.096,107.147,203.616,107.016z"/>
</g>
</svg>
