<?xml version="1.0" encoding="utf-8"?>
<!-- Generator: Adobe Illustrator 16.0.3, SVG Export Plug-In . SVG Version: 6.00 Build 0)  -->
<!DOCTYPE svg PUBLIC "-//W3C//DTD SVG 1.1//EN" "http://www.w3.org/Graphics/SVG/1.1/DTD/svg11.dtd">
<svg version="1.1" xmlns="http://www.w3.org/2000/svg" xmlns:xlink="http://www.w3.org/1999/xlink" x="0px" y="0px" width="751px"
	 height="571px" viewBox="-90 90 751 571" enable-background="new -90 90 751 571" xml:space="preserve">
<g id="Ebene_1">
	<title>bg-graph</title>
	<desc>Created with Sketch.</desc>
	<g id="Landing-Page" opacity="0.347">
		
			<g id="bg-graph" transform="translate(303.750239, 379.840845) rotate(-70.000000) translate(-303.750239, -379.840845) translate(-20.749761, 102.340845)">
			<circle id="Combined-Shape" fill="#D6D6D6" cx="351.668" cy="60.233" r="6.705"/>
			<circle id="Oval" fill="#D6D6D6" cx="327.285" cy="17.305" r="6.705"/>
			<circle id="Oval_1_" fill="#D6D6D6" cx="404.427" cy="60.11" r="6.705"/>
			<circle id="Oval_2_" fill="#D6D6D6" cx="422.497" cy="17.926" r="6.705"/>
			<circle id="Oval_3_" fill="#D6D6D6" cx="402.482" cy="-24.505" r="6.706"/>
			<circle id="Oval_4_" fill="#D6D6D6" cx="352.372" cy="-23.74" r="6.705"/>
			<circle id="Oval_5_" fill="#D6D6D6" cx="334.695" cy="-89.727" r="6.704"/>
			<circle id="Oval_6_" fill="#D6D6D6" cx="456.029" cy="-25.561" r="6.706"/>
			<circle id="Oval_7_" fill="#D6D6D6" cx="475.031" cy="-66.958" r="6.705"/>
			<circle id="Oval_8_" fill="#D6D6D6" cx="455.801" cy="-110.321" r="6.705"/>
			<circle id="Oval_9_" fill="#D6D6D6" cx="403.973" cy="-109.41" r="6.705"/>
			<circle id="Combined-Shape_1_" fill="#D6D6D6" cx="473.788" cy="123.467" r="6.705"/>
			<circle id="Oval_10_" fill="#D6D6D6" cx="448.618" cy="81.471" r="6.705"/>
			<circle id="Oval_11_" fill="#D6D6D6" cx="524.83" cy="123.488" r="6.705"/>
			<circle id="Combined-Shape_2_" fill="#D6D6D6" cx="360.463" cy="123.508" r="6.705"/>
			<circle id="Oval_12_" fill="#D6D6D6" cx="411.506" cy="123.529" r="6.704"/>
			<circle id="Oval_13_" fill="#D6D6D6" cx="544.618" cy="81.16" r="6.705"/>
			<circle id="Oval_14_" fill="#D6D6D6" cx="524.603" cy="38.729" r="6.705"/>
			<circle id="Oval_15_" fill="#D6D6D6" cx="473.705" cy="40.425" r="6.705"/>
			<circle id="Combined-Shape_3_" fill="#D6D6D6" cx="524.603" cy="38.729" r="6.705"/>
			<circle id="Oval_16_" fill="#D6D6D6" cx="577.363" cy="38.604" r="6.705"/>
			<circle id="Oval_17_" fill="#D6D6D6" cx="597.15" cy="-3.723" r="6.705"/>
			<circle id="Oval_18_" fill="#D6D6D6" cx="577.135" cy="-46.156" r="6.706"/>
			<circle id="Oval_19_" fill="#D6D6D6" cx="525.307" cy="-45.245" r="6.705"/>
			<circle id="Combined-Shape_4_" fill="#D6D6D6" cx="42.516" cy="25.748" r="6.705"/>
			<circle id="Oval_20_" fill="#D6D6D6" cx="19.065" cy="-16.394" r="6.706"/>
			<circle id="Oval_21_" fill="#D6D6D6" cx="94.489" cy="26.556" r="6.705"/>
			<circle id="Oval_22_" fill="#D6D6D6" cx="114.278" cy="-15.773" r="6.705"/>
			<circle id="Oval_23_" fill="#D6D6D6" cx="93.332" cy="-58.992" r="6.705"/>
			<circle id="Oval_24_" fill="#D6D6D6" cx="42.433" cy="-57.294" r="6.705"/>
			<circle id="Oval_25_" fill="#D6D6D6" cx="25.689" cy="-122.495" r="6.705"/>
			<circle id="Oval_26_" fill="#D6D6D6" cx="146.093" cy="-59.115" r="6.705"/>
			<circle id="Oval_27_" fill="#D6D6D6" cx="166.81" cy="-100.657" r="6.705"/>
			<circle id="Oval_28_" fill="#D6D6D6" cx="145.863" cy="-143.875" r="6.705"/>
			<circle id="Oval_29_" fill="#D6D6D6" cx="94.036" cy="-142.965" r="6.705"/>
			<circle id="Combined-Shape_5_" fill="#D6D6D6" cx="163.85" cy="89.914" r="6.705"/>
			<circle id="Oval_30_" fill="#D6D6D6" cx="139.468" cy="46.985" r="6.705"/>
			<circle id="Oval_31_" fill="#D6D6D6" cx="215.823" cy="90.721" r="6.705"/>
			<circle id="Combined-Shape_6_" fill="#D6D6D6" cx="51.313" cy="89.022" r="6.705"/>
			<circle id="Oval_32_" fill="#D6D6D6" cx="103.287" cy="89.83" r="6.705"/>
			<circle id="Oval_33_" fill="#D6D6D6" cx="235.612" cy="48.393" r="6.706"/>
			<circle id="Oval_34_" fill="#D6D6D6" cx="215.452" cy="4.243" r="6.705"/>
			<circle id="Oval_35_" fill="#D6D6D6" cx="164.554" cy="5.941" r="6.705"/>
			<circle id="Combined-Shape_7_" fill="#D6D6D6" cx="215.452" cy="4.243" r="6.705"/>
			<circle id="Oval_36_" fill="#D6D6D6" cx="267.424" cy="5.051" r="6.705"/>
			<circle id="Oval_37_" fill="#D6D6D6" cx="287.213" cy="-37.277" r="6.705"/>
			<circle id="Oval_38_" fill="#D6D6D6" cx="267.197" cy="-79.709" r="6.705"/>
			<circle id="Oval_39_" fill="#D6D6D6" cx="215.369" cy="-78.798" r="6.706"/>
			<circle id="Combined-Shape_8_" fill="#D6D6D6" cx="407.654" cy="570.243" r="6.705"/>
			<circle id="Oval_40_" fill="#D6D6D6" cx="384.204" cy="528.101" r="6.705"/>
			<circle id="Oval_41_" fill="#D6D6D6" cx="460.415" cy="570.119" r="6.705"/>
			<circle id="Oval_42_" fill="#D6D6D6" cx="479.416" cy="528.723" r="6.705"/>
			<circle id="Oval_43_" fill="#D6D6D6" cx="460.186" cy="485.358" r="6.706"/>
			<circle id="Oval_44_" fill="#D6D6D6" cx="408.358" cy="486.27" r="6.705"/>
			<circle id="Oval_45_" fill="#D6D6D6" cx="391.613" cy="421.068" r="6.705"/>
			<circle id="Oval_46_" fill="#D6D6D6" cx="512.947" cy="485.235" r="6.705"/>
			<circle id="Oval_47_" fill="#D6D6D6" cx="532.735" cy="442.906" r="6.705"/>
			<circle id="Oval_48_" fill="#D6D6D6" cx="512.719" cy="400.475" r="6.705"/>
			<circle id="Oval_49_" fill="#D6D6D6" cx="460.89" cy="401.385" r="6.705"/>
			<circle id="Combined-Shape_9_" fill="#D6D6D6" cx="529.774" cy="633.477" r="6.705"/>
			<circle id="Oval_50_" fill="#D6D6D6" cx="505.536" cy="592.267" r="6.705"/>
			<circle id="Oval_51_" fill="#D6D6D6" cx="581.747" cy="634.284" r="6.705"/>
			<circle id="Combined-Shape_10_" fill="#D6D6D6" cx="417.381" cy="634.304" r="6.705"/>
			<circle id="Oval_52_" fill="#D6D6D6" cx="469.212" cy="633.394" r="6.705"/>
			<circle id="Oval_53_" fill="#D6D6D6" cx="601.535" cy="591.957" r="6.705"/>
			<circle id="Oval_54_" fill="#D6D6D6" cx="582.307" cy="548.593" r="6.706"/>
			<circle id="Oval_55_" fill="#D6D6D6" cx="529.692" cy="550.435" r="6.704"/>
			<circle id="Combined-Shape_11_" fill="#D6D6D6" cx="582.307" cy="548.593" r="6.706"/>
			<circle id="Oval_56_" fill="#D6D6D6" cx="634.281" cy="549.401" r="6.705"/>
			<circle id="Oval_57_" fill="#D6D6D6" cx="654.068" cy="507.072" r="6.706"/>
			<circle id="Oval_58_" fill="#D6D6D6" cx="634.053" cy="464.64" r="6.706"/>
			<circle id="Oval_59_" fill="#D6D6D6" cx="582.224" cy="465.55" r="6.705"/>
			<circle id="Combined-Shape_12_" fill="#D6D6D6" cx="111.315" cy="462.009" r="6.704"/>
			<circle id="Oval_60_" fill="#D6D6D6" cx="87.16" cy="503.839" r="6.705"/>
			<circle id="Oval_61_" fill="#D6D6D6" cx="164.076" cy="461.884" r="6.705"/>
			<circle id="Oval_62_" fill="#D6D6D6" cx="182.373" cy="504.461" r="6.706"/>
			<circle id="Oval_63_" fill="#D6D6D6" cx="162.585" cy="546.79" r="6.704"/>
			<circle id="Oval_64_" fill="#D6D6D6" cx="111.397" cy="545.051" r="6.705"/>
			<circle id="Oval_65_" fill="#D6D6D6" cx="94.424" cy="610.499" r="6.705"/>
			<circle id="Oval_66_" fill="#D6D6D6" cx="215.49" cy="548.383" r="6.705"/>
			<circle id="Oval_67_" fill="#D6D6D6" cx="234.573" cy="590.029" r="6.706"/>
			<circle id="Oval_68_" fill="#D6D6D6" cx="214.786" cy="632.357" r="6.705"/>
			<circle id="Oval_69_" fill="#D6D6D6" cx="162.812" cy="631.55" r="6.704"/>
			<circle id="Combined-Shape_13_" fill="#D6D6D6" cx="233.167" cy="398.962" r="6.705"/>
			<circle id="Oval_70_" fill="#D6D6D6" cx="209.012" cy="440.794" r="6.705"/>
			<circle id="Oval_71_" fill="#D6D6D6" cx="285.928" cy="398.839" r="6.705"/>
			<circle id="Combined-Shape_14_" fill="#D6D6D6" cx="121.562" cy="398.858" r="6.705"/>
			<circle id="Oval_72_" fill="#D6D6D6" cx="172.603" cy="398.879" r="6.705"/>
			<circle id="Oval_73_" fill="#D6D6D6" cx="304.226" cy="441.415" r="6.705"/>
			<circle id="Oval_74_" fill="#D6D6D6" cx="285.368" cy="484.529" r="6.705"/>
			<circle id="Oval_75_" fill="#D6D6D6" cx="233.25" cy="482.004" r="6.706"/>
			<circle id="Combined-Shape_15_" fill="#D6D6D6" cx="285.368" cy="484.529" r="6.705"/>
			<circle id="Oval_76_" fill="#D6D6D6" cx="337.342" cy="485.337" r="6.705"/>
			<circle id="Oval_77_" fill="#D6D6D6" cx="356.426" cy="526.982" r="6.705"/>
			<circle id="Oval_78_" fill="#D6D6D6" cx="336.638" cy="569.31" r="6.705"/>
			<circle id="Oval_79_" fill="#D6D6D6" cx="284.665" cy="568.503" r="6.705"/>
			<circle id="Combined-Shape_16_" fill="#D6D6D6" cx="433.88" cy="306.772" r="6.706"/>
			<circle id="Oval_80_" fill="#D6D6D6" cx="410.429" cy="264.63" r="6.705"/>
			<circle id="Oval_81_" fill="#D6D6D6" cx="486.64" cy="306.649" r="6.705"/>
			<circle id="Oval_82_" fill="#D6D6D6" cx="505.642" cy="265.251" r="6.705"/>
			<circle id="Oval_83_" fill="#D6D6D6" cx="485.627" cy="222.82" r="6.705"/>
			<circle id="Oval_84_" fill="#D6D6D6" cx="433.797" cy="223.73" r="6.705"/>
			<circle id="Oval_85_" fill="#D6D6D6" cx="417.053" cy="158.53" r="6.705"/>
			<circle id="Oval_86_" fill="#D6D6D6" cx="539.173" cy="221.765" r="6.705"/>
			<circle id="Oval_87_" fill="#D6D6D6" cx="558.174" cy="180.367" r="6.705"/>
			<circle id="Oval_88_" fill="#D6D6D6" cx="538.946" cy="137.005" r="6.706"/>
			<circle id="Oval_89_" fill="#D6D6D6" cx="486.331" cy="138.846" r="6.705"/>
			<circle id="Combined-Shape_17_" fill="#D6D6D6" cx="556" cy="370.007" r="6.705"/>
			<circle id="Oval_90_" fill="#D6D6D6" cx="531.763" cy="328.796" r="6.705"/>
			<circle id="Oval_91_" fill="#D6D6D6" cx="607.974" cy="370.813" r="6.705"/>
			<circle id="Combined-Shape_18_" fill="#D6D6D6" cx="442.677" cy="370.047" r="6.705"/>
			<circle id="Oval_92_" fill="#D6D6D6" cx="494.651" cy="370.855" r="6.705"/>
			<circle id="Oval_93_" fill="#D6D6D6" cx="627.762" cy="328.486" r="6.705"/>
			<circle id="Oval_94_" fill="#D6D6D6" cx="607.747" cy="286.055" r="6.705"/>
			<circle id="Oval_95_" fill="#D6D6D6" cx="555.917" cy="286.965" r="6.705"/>
			<circle id="Combined-Shape_19_" fill="#D6D6D6" cx="607.747" cy="286.055" r="6.705"/>
			<path id="Oval_96_" fill="#D6D6D6" d="M653.802,285.909c0.01-3.703,3.023-6.695,6.726-6.684c3.703,0.011,6.695,3.022,6.684,6.727
				c-0.013,3.7-3.023,6.694-6.726,6.683C656.783,292.624,653.79,289.611,653.802,285.909z"/>
			<circle id="Oval_97_" fill="#D6D6D6" cx="680.295" cy="243.603" r="6.705"/>
			<circle id="Oval_98_" fill="#D6D6D6" cx="659.348" cy="200.384" r="6.705"/>
			<circle id="Oval_99_" fill="#D6D6D6" cx="608.45" cy="202.082" r="6.705"/>
			<circle id="Combined-Shape_20_" fill="#D6D6D6" cx="137.541" cy="198.538" r="6.705"/>
			<circle id="Oval_100_" fill="#D6D6D6" cx="113.385" cy="240.37" r="6.705"/>
			<circle id="Oval_101_" fill="#D6D6D6" cx="189.514" cy="199.347" r="6.705"/>
			<circle id="Oval_102_" fill="#D6D6D6" cx="208.598" cy="240.992" r="6.705"/>
			<circle id="Oval_103_" fill="#D6D6D6" cx="188.025" cy="284.252" r="6.705"/>
			<circle id="Oval_104_" fill="#D6D6D6" cx="136.838" cy="282.512" r="6.705"/>
			<circle id="Oval_105_" fill="#D6D6D6" cx="119.865" cy="347.96" r="6.705"/>
			<circle id="Oval_106_" fill="#D6D6D6" cx="241.715" cy="284.913" r="6.705"/>
			<circle id="Oval_107_" fill="#D6D6D6" cx="260.8" cy="326.558" r="6.705"/>
			<circle id="Oval_108_" fill="#D6D6D6" cx="240.225" cy="369.818" r="6.705"/>
			<circle id="Oval_109_" fill="#D6D6D6" cx="189.039" cy="368.08" r="6.705"/>
			<circle id="Combined-Shape_21_" fill="#D6D6D6" cx="259.394" cy="135.492" r="6.705"/>
			<circle id="Oval_110_" fill="#D6D6D6" cx="235.238" cy="177.323" r="6.705"/>
			<circle id="Oval_111_" fill="#D6D6D6" cx="311.367" cy="136.299" r="6.704"/>
			<circle id="Combined-Shape_22_" fill="#D6D6D6" cx="146.069" cy="135.533" r="6.705"/>
			<circle id="Oval_112_" fill="#D6D6D6" cx="198.83" cy="135.409" r="6.705"/>
			<circle id="Oval_113_" fill="#D6D6D6" cx="330.45" cy="177.945" r="6.705"/>
			<circle id="Oval_114_" fill="#D6D6D6" cx="310.809" cy="221.99" r="6.705"/>
			<circle id="Oval_115_" fill="#D6D6D6" cx="258.69" cy="219.465" r="6.705"/>
			<circle id="Combined-Shape_23_" fill="#D6D6D6" cx="310.809" cy="221.99" r="6.705"/>
			<circle id="Oval_116_" fill="#D6D6D6" cx="363.568" cy="221.867" r="6.705"/>
			<circle id="Oval_117_" fill="#D6D6D6" cx="382.651" cy="263.512" r="6.705"/>
			<circle id="Oval_118_" fill="#D6D6D6" cx="362.078" cy="306.772" r="6.705"/>
			<circle id="Oval_119_" fill="#D6D6D6" cx="310.89" cy="305.034" r="6.705"/>
			<path id="Path-10" fill="none" stroke="#D6D6D6" stroke-width="2.4382" d="M327.17,15.212l23.285-38.938"/>
			<polyline id="Path-11" fill="none" stroke="#D6D6D6" stroke-width="2.4382" points="352.057,-25.213 350.569,57.682 
				404.034,59.068 425.064,15.856 353.65,55.253 			"/>
			<polyline id="Path-12" fill="none" stroke="#D6D6D6" stroke-width="1.8287" points="350.456,-24.202 401.474,-26.515 
				424.691,17.446 			"/>
			<path id="Path-13" fill="none" stroke="#D6D6D6" stroke-width="1.8287" d="M421.366,17.716l-70.574-42.89"/>
			<path id="Path-10_1_" fill="none" stroke="#D6D6D6" stroke-width="2.4382" d="M334.273-88.889l69.554-20.507"/>
			<polyline id="Path-11_1_" fill="none" stroke="#D6D6D6" stroke-width="2.4382" points="404.591,-110.096 403.101,-27.202 
				456.566,-25.815 477.598,-69.028 406.182,-29.631 			"/>
			<polyline id="Path-12_1_" fill="none" stroke="#D6D6D6" stroke-width="1.8287" points="402.989,-109.086 454.007,-111.398 
				477.223,-67.438 			"/>
			<path id="Path-13_1_" fill="none" stroke="#D6D6D6" stroke-width="1.8287" d="M473.899-67.167l-70.573-42.89"/>
			<path id="Path-10_2_" fill="none" stroke="#D6D6D6" stroke-width="2.4382" d="M448.504,79.377l23.285-38.938"/>
			<polyline id="Path-11_2_" fill="none" stroke="#D6D6D6" stroke-width="2.4382" points="473.392,38.953 471.902,121.848 
				525.367,123.234 546.399,80.021 474.983,119.419 			"/>
			<polyline id="Path-12_2_" fill="none" stroke="#D6D6D6" stroke-width="1.8287" points="471.79,39.964 522.808,37.652 
				546.024,81.612 			"/>
			<path id="Path-13_2_" fill="none" stroke="#D6D6D6" stroke-width="1.8287" d="M542.699,81.882l-70.573-42.89"/>
			<path id="Path-10_3_" fill="none" stroke="#D6D6D6" stroke-width="2.4382" d="M455.607-24.723L525.16-45.23"/>
			<polyline id="Path-11_3_" fill="none" stroke="#D6D6D6" stroke-width="2.4382" points="524.992,-46.717 523.504,36.177 
				576.969,37.564 598,-5.649 526.583,33.749 			"/>
			<polyline id="Path-12_3_" fill="none" stroke="#D6D6D6" stroke-width="1.8287" points="524.323,-44.92 575.34,-47.233 
				598.558,-3.272 			"/>
			<path id="Path-13_3_" fill="none" stroke="#D6D6D6" stroke-width="1.8287" d="M595.233-3.003l-70.573-42.89"/>
			<path id="Path-14" fill="none" stroke="#D6D6D6" stroke-width="1.8287" d="M472.013,38.598L455.16-29.725"/>
			<polyline id="Path-15" fill="none" stroke="#D6D6D6" stroke-width="1.8287" points="350.001,60.075 411.369,123.002 
				403.042,57.167 448.682,81.297 471.712,123.806 413.8,125.47 			"/>
			<polyline id="Path-16" fill="none" stroke="#D6D6D6" stroke-width="1.8287" points="333.183,-88.506 403.086,-25.504 
				346.4,-26.291 333.183,-88.506 327.366,17.538 357.513,123.084 411.152,123.862 			"/>
			<path id="Path-17" fill="none" stroke="#D6D6D6" stroke-width="1.8287" d="M350.576,61.192l-21.802-45.176"/>
			<polyline id="Path-18" fill="none" stroke="#D6D6D6" stroke-width="1.8287" points="470.853,39.528 418.202,14.371 
				455.735,-27.57 522.975,37.253 			"/>
			<polyline id="Path-19" fill="none" stroke="#D6D6D6" stroke-width="1.8287" points="474.792,-66.788 525.759,-45.714 
				455.261,-112.985 			"/>
			<path id="Path-20" fill="none" stroke="#D6D6D6" stroke-width="1.8287" d="M576.45-48.15l-120.491-63.771"/>
			<path id="Path-21" fill="none" stroke="#D6D6D6" stroke-width="1.8287" d="M578.353,42.535l-34.269,42.561"/>
			<path id="Path-10_4_" fill="none" stroke="#D6D6D6" stroke-width="2.4382" d="M18.165-17.557l23.284-38.938"/>
			<polyline id="Path-11_4_" fill="none" stroke="#D6D6D6" stroke-width="2.4382" points="42.12,-58.766 40.631,24.128 
				94.096,25.515 115.127,-17.698 43.711,21.699 			"/>
			<polyline id="Path-12_4_" fill="none" stroke="#D6D6D6" stroke-width="1.8287" points="42.237,-57.9 93.254,-60.213 
				116.47,-16.253 			"/>
			<path id="Path-13_4_" fill="none" stroke="#D6D6D6" stroke-width="1.8287" d="M112.359-15.052l-70.573-42.89"/>
			<path id="Path-10_5_" fill="none" stroke="#D6D6D6" stroke-width="2.4382" d="M25.266-121.656l69.555-20.507"/>
			<polyline id="Path-11_5_" fill="none" stroke="#D6D6D6" stroke-width="2.4382" points="94.652,-143.65 93.166,-60.756 
				146.628,-59.369 167.66,-102.581 96.244,-63.185 			"/>
			<polyline id="Path-12_5_" fill="none" stroke="#D6D6D6" stroke-width="1.8287" points="93.838,-143.571 144.857,-145.883 
				168.072,-101.923 			"/>
			<path id="Path-13_5_" fill="none" stroke="#D6D6D6" stroke-width="1.8287" d="M163.962-100.722l-70.574-42.89"/>
			<path id="Path-10_6_" fill="none" stroke="#D6D6D6" stroke-width="2.4382" d="M139.354,44.891l23.285-38.938"/>
			<polyline id="Path-11_6_" fill="none" stroke="#D6D6D6" stroke-width="2.4382" points="164.24,4.468 162.752,87.362 
				216.217,88.749 237.248,45.537 165.832,84.933 			"/>
			<polyline id="Path-12_6_" fill="none" stroke="#D6D6D6" stroke-width="1.8287" points="162.637,5.479 213.656,3.166 
				236.873,47.127 			"/>
			<path id="Path-13_6_" fill="none" stroke="#D6D6D6" stroke-width="1.8287" d="M232.762,48.328L162.19,5.438"/>
			<path id="Path-10_7_" fill="none" stroke="#D6D6D6" stroke-width="2.4382" d="M145.669-58.278l69.553-20.506"/>
			<polyline id="Path-11_7_" fill="none" stroke="#D6D6D6" stroke-width="2.4382" points="216.772,-80.416 215.284,2.479 
				268.748,3.865 289.78,-39.348 218.366,0.049 			"/>
			<polyline id="Path-12_7_" fill="none" stroke="#D6D6D6" stroke-width="1.8287" points="215.171,-79.405 266.19,-81.717 
				289.406,-37.757 			"/>
			<path id="Path-13_7_" fill="none" stroke="#D6D6D6" stroke-width="1.8287" d="M285.295-36.557l-70.573-42.889"/>
			<path id="Path-14_1_" fill="none" stroke="#D6D6D6" stroke-width="1.8287" d="M162.863,4.112l-16.854-68.323"/>
			<polyline id="Path-15_1_" fill="none" stroke="#D6D6D6" stroke-width="1.8287" points="40.851,25.59 102.219,88.517 
				93.892,22.681 139.532,46.81 162.562,89.321 104.649,90.984 			"/>
			<polyline id="Path-16_1_" fill="none" stroke="#D6D6D6" stroke-width="1.8287" points="24.178,-121.274 94.079,-58.271 
				37.393,-59.059 24.178,-121.274 18.359,-15.23 48.507,90.316 102.145,91.094 			"/>
			<path id="Path-17_1_" fill="none" stroke="#D6D6D6" stroke-width="1.8287" d="M41.57,28.424L19.767-16.75"/>
			<polyline id="Path-18_1_" fill="none" stroke="#D6D6D6" stroke-width="1.8287" points="161.847,6.76 109.197,-18.396 
				146.728,-60.338 213.969,4.486 			"/>
			<polyline id="Path-19_1_" fill="none" stroke="#D6D6D6" stroke-width="1.8287" points="164.854,-100.342 215.822,-79.267 
				145.324,-146.539 			"/>
			<path id="Path-20_1_" fill="none" stroke="#D6D6D6" stroke-width="1.8287" d="M266.513-81.704l-120.493-63.771"/>
			<path id="Path-21_1_" fill="none" stroke="#D6D6D6" stroke-width="1.8287" d="M269.202,8.05l-34.268,42.561"/>
			<path id="Path-10_8_" fill="none" stroke="#D6D6D6" stroke-width="2.4382" d="M384.09,526.007l23.284-38.939"/>
			<polyline id="Path-11_8_" fill="none" stroke="#D6D6D6" stroke-width="2.4382" points="408.975,485.582 407.488,568.478 
				460.951,569.864 481.982,526.652 410.568,566.048 			"/>
			<polyline id="Path-12_8_" fill="none" stroke="#D6D6D6" stroke-width="1.8287" points="408.161,485.663 459.178,483.351 
				482.395,527.31 			"/>
			<path id="Path-13_8_" fill="none" stroke="#D6D6D6" stroke-width="1.8287" d="M478.284,528.511l-70.574-42.888"/>
			<path id="Path-10_9_" fill="none" stroke="#D6D6D6" stroke-width="2.4382" d="M391.191,421.907l69.553-20.508"/>
			<polyline id="Path-11_9_" fill="none" stroke="#D6D6D6" stroke-width="2.4382" points="460.576,399.913 459.087,482.806 
				512.553,484.193 533.584,440.981 462.168,480.378 			"/>
			<polyline id="Path-12_9_" fill="none" stroke="#D6D6D6" stroke-width="1.8287" points="460.693,400.779 511.711,398.465 
				534.928,442.427 			"/>
			<path id="Path-13_9_" fill="none" stroke="#D6D6D6" stroke-width="1.8287" d="M530.817,443.628l-70.575-42.89"/>
			<path id="Path-10_10_" fill="none" stroke="#D6D6D6" stroke-width="2.4382" d="M505.422,590.174l23.285-38.94"/>
			<polyline id="Path-11_10_" fill="none" stroke="#D6D6D6" stroke-width="2.4382" points="530.309,549.748 528.82,632.645 
				582.284,634.03 603.317,590.816 531.9,630.214 			"/>
			<polyline id="Path-12_10_" fill="none" stroke="#D6D6D6" stroke-width="1.8287" points="529.494,549.828 580.513,547.515 
				603.728,591.476 			"/>
			<path id="Path-13_10_" fill="none" stroke="#D6D6D6" stroke-width="1.8287" d="M599.617,592.677l-70.574-42.889"/>
			<path id="Path-10_11_" fill="none" stroke="#D6D6D6" stroke-width="2.4382" d="M512.525,486.073l69.553-20.508"/>
			<polyline id="Path-11_11_" fill="none" stroke="#D6D6D6" stroke-width="2.4382" points="581.91,464.079 580.422,546.972 
				633.887,548.36 654.917,505.147 583.503,544.544 			"/>
			<polyline id="Path-12_11_" fill="none" stroke="#D6D6D6" stroke-width="1.8287" points="582.027,464.943 633.045,462.631 
				656.262,506.593 			"/>
			<path id="Path-13_11_" fill="none" stroke="#D6D6D6" stroke-width="1.8287" d="M651.219,507.007l-70.573-42.89"/>
			<path id="Path-14_2_" fill="none" stroke="#D6D6D6" stroke-width="1.8287" d="M529.717,548.461l-16.852-68.322"/>
			<polyline id="Path-15_2_" fill="none" stroke="#D6D6D6" stroke-width="1.8287" points="406.318,571.53 467.689,633.336 
				459.357,568.676 504.999,592.377 528.032,634.129 470.12,635.76 			"/>
			<polyline id="Path-16_2_" fill="none" stroke="#D6D6D6" stroke-width="1.8287" points="390.104,422.289 460.003,485.292 
				403.318,484.505 390.104,422.289 384.284,528.332 414.43,633.88 468.069,634.657 			"/>
			<path id="Path-17_2_" fill="none" stroke="#D6D6D6" stroke-width="1.8287" d="M407.493,571.989l-21.802-45.176"/>
			<polyline id="Path-18_2_" fill="none" stroke="#D6D6D6" stroke-width="1.8287" points="527.771,550.324 475.12,525.167 
				512.652,483.226 579.892,548.05 			"/>
			<polyline id="Path-19_2_" fill="none" stroke="#D6D6D6" stroke-width="1.8287" points="531.709,444.008 582.677,465.082 
				512.179,397.812 			"/>
			<path id="Path-20_2_" fill="none" stroke="#D6D6D6" stroke-width="1.8287" d="M633.367,462.646l-120.491-63.771"/>
			<path id="Path-21_2_" fill="none" stroke="#D6D6D6" stroke-width="1.8287" d="M634.339,552.544l-34.268,42.563"/>
			<path id="Path-10_12_" fill="none" stroke="#D6D6D6" stroke-width="2.4382" d="M87.353,505.974l23.042,39.084"/>
			<polyline id="Path-11_12_" fill="none" stroke="#D6D6D6" stroke-width="2.4382" points="111.814,547.158 110.843,464.256 
				164.317,463.205 185.077,506.548 113.909,466.703 			"/>
			<polyline id="Path-12_12_" fill="none" stroke="#D6D6D6" stroke-width="1.8287" points="110.54,546.233 161.543,548.865 
				185.034,505.051 			"/>
			<path id="Path-13_12_" fill="none" stroke="#D6D6D6" stroke-width="1.8287" d="M180.629,504.035l-70.841,42.448"/>
			<path id="Path-10_13_" fill="none" stroke="#D6D6D6" stroke-width="2.4382" d="M93.157,610.586l69.422,20.941"/>
			<polyline id="Path-11_13_" fill="none" stroke="#D6D6D6" stroke-width="2.4382" points="163.084,631.938 162.114,549.036 
				215.587,547.986 236.347,591.329 165.179,551.484 			"/>
			<polyline id="Path-12_13_" fill="none" stroke="#D6D6D6" stroke-width="1.8287" points="162.741,631.8 213.743,634.433 
				237.235,590.619 			"/>
			<path id="Path-13_13_" fill="none" stroke="#D6D6D6" stroke-width="1.8287" d="M232.832,589.604l-70.843,42.446"/>
			<path id="Path-10_14_" fill="none" stroke="#D6D6D6" stroke-width="2.4382" d="M209.205,442.929l23.042,39.083"/>
			<polyline id="Path-11_14_" fill="none" stroke="#D6D6D6" stroke-width="2.4382" points="233.666,484.111 232.697,401.208 
				286.169,400.158 306.929,443.5 235.762,403.658 			"/>
			<polyline id="Path-12_14_" fill="none" stroke="#D6D6D6" stroke-width="1.8287" points="232.392,483.187 283.394,485.818 
				306.886,442.006 			"/>
			<path id="Path-13_14_" fill="none" stroke="#D6D6D6" stroke-width="1.8287" d="M302.482,440.988l-70.841,42.448"/>
			<path id="Path-10_15_" fill="none" stroke="#D6D6D6" stroke-width="2.4382" d="M215.008,547.539l69.422,20.942"/>
			<polyline id="Path-11_15_" fill="none" stroke="#D6D6D6" stroke-width="2.4382" points="284.149,569.824 283.18,486.92 
				336.652,485.871 357.414,529.213 286.246,489.371 			"/>
			<polyline id="Path-12_15_" fill="none" stroke="#D6D6D6" stroke-width="1.8287" points="284.592,568.753 335.596,571.385 
				359.087,527.573 			"/>
			<path id="Path-13_15_" fill="none" stroke="#D6D6D6" stroke-width="1.8287" d="M354.684,526.556l-70.843,42.448"/>
			<path id="Path-14_3_" fill="none" stroke="#D6D6D6" stroke-width="1.8287" d="M232.703,484.495l-17.282,68.218"/>
			<polyline id="Path-15_3_" fill="none" stroke="#D6D6D6" stroke-width="1.8287" points="110.324,462.475 172.086,399.934 
				163.346,465.717 209.138,441.873 232.433,399.508 174.532,397.481 			"/>
			<polyline id="Path-16_3_" fill="none" stroke="#D6D6D6" stroke-width="1.8287" points="92.395,610.152 162.69,547.588 
				105.998,548.02 92.395,610.152 87.241,504.072 118.05,398.716 171.691,398.275 			"/>
			<path id="Path-17_3_" fill="none" stroke="#D6D6D6" stroke-width="1.8287" d="M111.337,460.169l-22.084,45.038"/>
			<polyline id="Path-18_3_" fill="none" stroke="#D6D6D6" stroke-width="1.8287" points="231.249,483.211 178.443,508.035 
				215.711,550.211 283.354,485.812 			"/>
			<polyline id="Path-19_3_" fill="none" stroke="#D6D6D6" stroke-width="1.8287" points="233.938,590.106 285.036,569.351 
				214.117,636.18 			"/>
			<path id="Path-20_3_" fill="none" stroke="#D6D6D6" stroke-width="1.8287" d="M335.716,570.571l-120.888,63.016"/>
			<path id="Path-21_3_" fill="none" stroke="#D6D6D6" stroke-width="1.8287" d="M338.22,480.894l-34.001-42.775"/>
			<path id="Path-10_16_" fill="none" stroke="#D6D6D6" stroke-width="2.4382" d="M410.314,262.538l23.285-38.939"/>
			<polyline id="Path-11_16_" fill="none" stroke="#D6D6D6" stroke-width="2.4382" points="435.202,222.114 433.712,305.007 
				487.178,306.394 508.209,263.182 436.794,302.579 			"/>
			<polyline id="Path-12_16_" fill="none" stroke="#D6D6D6" stroke-width="1.8287" points="433.6,223.124 484.618,220.812 
				507.835,264.772 			"/>
			<path id="Path-13_16_" fill="none" stroke="#D6D6D6" stroke-width="1.8287" d="M503.724,265.974l-70.573-42.891"/>
			<path id="Path-10_17_" fill="none" stroke="#D6D6D6" stroke-width="2.4382" d="M417.418,158.437l69.554-20.507"/>
			<polyline id="Path-11_17_" fill="none" stroke="#D6D6D6" stroke-width="2.4382" points="486.803,136.442 485.314,219.337 
				538.78,220.724 559.811,177.512 488.395,216.909 			"/>
			<polyline id="Path-12_17_" fill="none" stroke="#D6D6D6" stroke-width="1.8287" points="486.133,138.24 537.151,135.928 
				560.367,179.888 			"/>
			<path id="Path-13_17_" fill="none" stroke="#D6D6D6" stroke-width="1.8287" d="M556.257,181.088l-70.573-42.889"/>
			<path id="Path-10_18_" fill="none" stroke="#D6D6D6" stroke-width="2.4382" d="M531.649,326.703l23.284-38.939"/>
			<polyline id="Path-11_18_" fill="none" stroke="#D6D6D6" stroke-width="2.4382" points="555.604,285.493 554.114,368.387 
				607.58,369.774 628.611,326.561 557.196,365.958 			"/>
			<polyline id="Path-12_18_" fill="none" stroke="#D6D6D6" stroke-width="1.8287" points="554.933,287.291 605.952,284.978 
				629.168,328.939 			"/>
			<path id="Path-13_18_" fill="none" stroke="#D6D6D6" stroke-width="1.8287" d="M625.844,329.208l-70.573-42.892"/>
			<path id="Path-10_19_" fill="none" stroke="#D6D6D6" stroke-width="2.4382" d="M538.751,222.602l69.553-20.506"/>
			<polyline id="Path-11_19_" fill="none" stroke="#D6D6D6" stroke-width="2.4382" points="608.135,200.608 606.648,283.503 
				660.113,284.889 681.144,241.678 609.729,281.075 			"/>
			<polyline id="Path-12_19_" fill="none" stroke="#D6D6D6" stroke-width="1.8287" points="606.535,201.618 657.553,199.307 
				680.77,243.267 			"/>
			<path id="Path-13_19_" fill="none" stroke="#D6D6D6" stroke-width="1.8287" d="M677.445,243.536l-70.573-42.89"/>
			<path id="Path-14_4_" fill="none" stroke="#D6D6D6" stroke-width="1.8287" d="M555.156,285.922L538.304,217.6"/>
			<polyline id="Path-15_4_" fill="none" stroke="#D6D6D6" stroke-width="1.8287" points="433.146,307.402 494.514,370.329 
				486.186,304.492 531.827,328.622 554.857,371.131 496.944,372.796 			"/>
			<polyline id="Path-16_4_" fill="none" stroke="#D6D6D6" stroke-width="1.8287" points="416.329,158.819 486.23,221.822 
				429.544,221.034 416.329,158.819 410.51,264.864 440.657,370.409 494.296,371.187 			"/>
			<path id="Path-17_4_" fill="none" stroke="#D6D6D6" stroke-width="1.8287" d="M433.72,308.517l-21.803-45.175"/>
			<polyline id="Path-18_4_" fill="none" stroke="#D6D6D6" stroke-width="1.8287" points="553.996,286.854 501.347,261.698 
				538.878,219.754 606.118,284.578 			"/>
			<polyline id="Path-19_4_" fill="none" stroke="#D6D6D6" stroke-width="1.8287" points="557.936,180.537 608.903,201.612 
				538.405,134.341 			"/>
			<path id="Path-20_4_" fill="none" stroke="#D6D6D6" stroke-width="1.8287" d="M659.594,199.176l-120.491-63.772"/>
			<path id="Path-21_4_" fill="none" stroke="#D6D6D6" stroke-width="1.8287" d="M660.565,289.074l-34.268,42.562"/>
			<path id="Path-10_20_" fill="none" stroke="#D6D6D6" stroke-width="2.4382" d="M112.794,243.436l23.041,39.084"/>
			<polyline id="Path-11_20_" fill="none" stroke="#D6D6D6" stroke-width="2.4382" points="138.04,283.688 137.071,200.786 
				190.544,199.734 211.304,243.078 140.135,203.234 			"/>
			<polyline id="Path-12_20_" fill="none" stroke="#D6D6D6" stroke-width="1.8287" points="136.765,282.763 187.769,285.395 
				211.26,241.581 			"/>
			<path id="Path-13_20_" fill="none" stroke="#D6D6D6" stroke-width="1.8287" d="M206.856,240.565l-70.842,42.447"/>
			<path id="Path-10_21_" fill="none" stroke="#D6D6D6" stroke-width="2.4382" d="M119.383,347.116l69.423,20.943"/>
			<polyline id="Path-11_21_" fill="none" stroke="#D6D6D6" stroke-width="2.4382" points="188.523,369.401 187.553,286.498 
				241.026,285.447 261.787,328.79 190.619,288.946 			"/>
			<polyline id="Path-12_21_" fill="none" stroke="#D6D6D6" stroke-width="1.8287" points="188.968,368.332 239.97,370.963 
				263.462,327.149 			"/>
			<path id="Path-13_21_" fill="none" stroke="#D6D6D6" stroke-width="1.8287" d="M259.057,326.133l-70.841,42.446"/>
			<path id="Path-10_22_" fill="none" stroke="#D6D6D6" stroke-width="2.4382" d="M234.647,180.389l23.04,39.084"/>
			<polyline id="Path-11_22_" fill="none" stroke="#D6D6D6" stroke-width="2.4382" points="259.106,221.573 258.137,138.671 
				311.61,137.618 332.37,180.962 261.202,141.119 			"/>
			<polyline id="Path-12_22_" fill="none" stroke="#D6D6D6" stroke-width="1.8287" points="258.618,219.717 309.621,222.349 
				333.112,178.534 			"/>
			<path id="Path-13_22_" fill="none" stroke="#D6D6D6" stroke-width="1.8287" d="M328.706,177.519l-70.84,42.447"/>
			<path id="Path-10_23_" fill="none" stroke="#D6D6D6" stroke-width="2.4382" d="M241.234,284.069l69.423,20.943"/>
			<polyline id="Path-11_23_" fill="none" stroke="#D6D6D6" stroke-width="2.4382" points="310.375,306.354 309.406,223.452 
				362.878,222.4 383.638,265.743 312.472,225.899 			"/>
			<polyline id="Path-12_23_" fill="none" stroke="#D6D6D6" stroke-width="1.8287" points="309.101,305.43 360.104,308.061 
				383.596,264.247 			"/>
			<path id="Path-13_23_" fill="none" stroke="#D6D6D6" stroke-width="1.8287" d="M380.908,263.087l-70.841,42.445"/>
			<path id="Path-14_5_" fill="none" stroke="#D6D6D6" stroke-width="1.8287" d="M258.93,221.025l-17.283,68.217"/>
			<polyline id="Path-15_5_" fill="none" stroke="#D6D6D6" stroke-width="1.8287" points="136.552,199.005 198.312,136.464 
				189.572,202.247 235.364,178.403 258.659,136.038 200.757,134.011 			"/>
			<polyline id="Path-16_5_" fill="none" stroke="#D6D6D6" stroke-width="1.8287" points="118.62,346.681 188.915,284.116 
				132.227,284.549 118.62,346.681 113.468,240.603 144.276,135.246 197.918,134.805 			"/>
			<path id="Path-17_5_" fill="none" stroke="#D6D6D6" stroke-width="1.8287" d="M136.779,197.629l-22.086,45.038"/>
			<polyline id="Path-18_5_" fill="none" stroke="#D6D6D6" stroke-width="1.8287" points="257.474,219.74 204.67,244.565 
				241.937,286.743 309.581,222.342 			"/>
			<polyline id="Path-19_5_" fill="none" stroke="#D6D6D6" stroke-width="1.8287" points="260.164,326.636 311.262,305.88 
				240.345,372.71 			"/>
			<path id="Path-20_5_" fill="none" stroke="#D6D6D6" stroke-width="1.8287" d="M361.156,308.034l-120.889,63.014"/>
			<path id="Path-21_5_" fill="none" stroke="#D6D6D6" stroke-width="1.8287" d="M363.66,218.355l-34.002-42.775"/>
			<polyline id="Path-22" fill="none" stroke="#D6D6D6" stroke-width="1.8287" points="357.94,122.406 306.704,133.218 
				324.748,16.241 287.133,-40.566 334.841,-92.229 267.148,-82.078 			"/>
			<polyline id="Path-23" fill="none" stroke="#D6D6D6" stroke-width="1.8287" points="266.117,4.242 324.736,16.617 231.758,49.85 
				312.137,137.27 415.338,157.098 358.008,123.392 410.551,124.776 485.053,138.421 469.823,124.352 419.001,158.329 			"/>
			<polyline id="Path-24" fill="none" stroke="#D6D6D6" stroke-width="1.8287" points="416.064,157.732 362.219,222.785 
				408.411,265.599 363.175,306.907 441.006,368.105 459.801,400.47 492.808,371.317 512.835,399.419 			"/>
			<polyline id="Path-25" fill="none" stroke="#D6D6D6" stroke-width="1.8287" points="171.212,399.862 186.551,367.458 
				234.005,396.999 240.796,369.467 287.031,398.39 363.513,306.779 390.591,418.921 306.406,440.702 			"/>
			<polyline id="Path-26" fill="none" stroke="#D6D6D6" stroke-width="1.8287" points="335.534,568.795 385.934,530.371 
				336.417,483.056 408.147,486.343 304.669,439.474 			"/>
			<path id="Path-27" fill="none" stroke="#D6D6D6" stroke-width="1.8287" d="M335.036,570.4l81.154,63.142"/>
			<polyline id="Path-28" fill="none" stroke="#D6D6D6" stroke-width="1.8287" points="217.489,88.789 259.072,132.79 
				165.331,91.098 197.714,133.833 			"/>
			<polyline id="Path-29" fill="none" stroke="#D6D6D6" stroke-width="1.8287" points="284.536,400.174 392.774,421.482 
				444.337,369.222 			"/>
			<path id="Path-30" fill="none" stroke="#D6D6D6" stroke-width="1.8287" d="M524.209,124.701l14.591,12.236"/>
			<polyline id="Path-31" fill="none" stroke="#D6D6D6" stroke-width="1.8287" points="390.032,419.004 307.785,302.931 
				287.29,398.568 443.431,367.97 			"/>
		</g>
	</g>
</g>
<g id="Ebene_3">
	<g id="start">
		<g id="angular" transform="translate(-967.000000, -430.000000)">
			<g transform="translate(967.000000, 430.000000)">
				<g id="Layer_1">
					<g id="Group">
						<polygon id="Shape" fill="#DD0031" points="431.601,237.826 394.509,251.107 400.166,300.354 431.601,317.836 
							463.035,300.354 468.693,251.107 						"/>
						<polygon id="Shape_1_" fill="#C3002F" points="431.601,246.707 431.601,287.192 431.601,317.836 463.035,300.354 
							468.693,251.107 431.601,237.826 						"/>
						<path id="Shape_2_" fill="#FFFFFF" d="M431.601,246.667l-23.188,52.207l0,0h8.646l0,0l4.662-11.682h19.681l4.661,11.682l0,0
							h8.646l0,0L431.601,246.667L431.601,246.667L431.601,246.667L431.601,246.667L431.601,246.667z M438.374,279.991h-13.547
							l6.773-16.362L438.374,279.991z"/>
					</g>
				</g>
			</g>
		</g>
	</g>
</g>
<g id="Ebene_2">
	<g id="Layer_1_2_">
		<g>
			<path fill="#33475C" d="M321.365,356.809c-0.461-0.285-0.978-0.43-1.551-0.43c-0.818,0-1.484,0.328-1.996,0.982
				c-0.513,0.654-0.769,1.516-0.769,2.578c0,1.086,0.25,1.963,0.752,2.627c0.501,0.664,1.172,0.998,2.013,0.998
				c1.248,0,2.129-0.613,2.641-1.844l4.822,2.426c-0.635,1.373-1.633,2.438-2.996,3.195c-1.36,0.756-2.963,1.135-4.805,1.135
				c-1.742,0-3.267-0.354-4.576-1.061c-1.312-0.705-2.324-1.697-3.041-2.979c-0.717-1.277-1.076-2.768-1.076-4.469
				c0-1.721,0.363-3.229,1.091-4.529c0.726-1.299,1.75-2.307,3.071-3.023c1.32-0.715,2.851-1.074,4.59-1.074
				c1.74,0,3.281,0.379,4.623,1.137c1.341,0.758,2.369,1.832,3.086,3.225l-4.76,2.334
				C322.199,357.506,321.826,357.096,321.365,356.809z"/>
			<path fill="#33475C" d="M341.987,352.403c1.393,0.707,2.473,1.705,3.24,2.994c0.768,1.291,1.151,2.795,1.151,4.516
				c0,1.699-0.384,3.197-1.151,4.498c-0.768,1.303-1.848,2.305-3.24,3.012c-1.393,0.703-3.021,1.059-4.883,1.059
				c-1.863,0-3.496-0.354-4.897-1.059c-1.402-0.707-2.487-1.709-3.255-3.012c-0.769-1.301-1.151-2.799-1.151-4.498
				c0-1.721,0.384-3.225,1.151-4.516c0.768-1.289,1.853-2.287,3.255-2.994c1.401-0.705,3.034-1.059,4.897-1.059
				S340.595,351.698,341.987,352.403z M334.893,357.286c-0.553,0.686-0.828,1.58-0.828,2.688c0,1.127,0.275,2.025,0.828,2.703
				c0.553,0.676,1.291,1.012,2.211,1.012c0.9,0,1.627-0.336,2.18-1.012c0.554-0.678,0.83-1.576,0.83-2.703
				c0-1.105-0.276-2.002-0.83-2.688c-0.553-0.688-1.279-1.029-2.18-1.029C336.183,356.256,335.446,356.6,334.893,357.286z"/>
			<path fill="#33475C" d="M366.186,345.479v22.785h-6.203v-1.904c-0.553,0.676-1.218,1.199-1.996,1.566
				c-0.777,0.367-1.638,0.553-2.58,0.553c-1.535,0-2.887-0.357-4.053-1.074c-1.168-0.717-2.074-1.725-2.719-3.023
				s-0.967-2.82-0.967-4.563c0-1.699,0.313-3.188,0.938-4.467c0.625-1.281,1.51-2.27,2.655-2.965s2.478-1.043,3.993-1.043
				c0.982,0,1.873,0.184,2.671,0.553c0.798,0.367,1.483,0.9,2.058,1.596v-8.014H366.186L366.186,345.479z M359.153,362.69
				c0.554-0.686,0.83-1.59,0.83-2.717c0-1.105-0.276-2.002-0.83-2.688c-0.553-0.688-1.279-1.029-2.18-1.029
				c-0.921,0-1.658,0.344-2.211,1.029c-0.552,0.686-0.828,1.58-0.828,2.688c0,1.127,0.275,2.031,0.828,2.717
				c0.553,0.689,1.29,1.029,2.211,1.029C357.874,363.719,358.602,363.375,359.153,362.69z"/>
			<path fill="#33475C" d="M384.151,353.786c1.537,1.627,2.303,3.854,2.303,6.68c0,0.43-0.01,0.748-0.03,0.951h-11.239
				c0.245,0.799,0.649,1.412,1.213,1.844c0.563,0.43,1.243,0.645,2.041,0.645c1.291,0,2.519-0.531,3.686-1.598l3.225,3.164
				c-0.88,0.982-1.949,1.729-3.209,2.242c-1.259,0.512-2.667,0.768-4.222,0.768c-1.843,0-3.438-0.355-4.791-1.061
				c-1.351-0.705-2.392-1.699-3.117-2.979c-0.728-1.279-1.09-2.77-1.09-4.469c0-1.721,0.369-3.23,1.104-4.529
				c0.737-1.301,1.771-2.309,3.103-3.023c1.331-0.717,2.866-1.074,4.606-1.074C380.477,351.344,382.615,352.157,384.151,353.786z
				 M379.637,356.35c-0.471-0.533-1.085-0.799-1.843-0.799c-0.718,0-1.312,0.256-1.781,0.768c-0.471,0.512-0.788,1.197-0.952,2.057
				h5.252C380.333,357.557,380.108,356.881,379.637,356.35z"/>
			<path fill="#33475C" d="M411.974,351.559v15.262c0,1.535-0.384,2.887-1.151,4.055c-0.769,1.166-1.842,2.063-3.226,2.689
				c-1.382,0.623-2.983,0.938-4.806,0.938c-1.475,0-2.887-0.205-4.238-0.613c-1.352-0.41-2.508-0.934-3.47-1.566l2.058-4.178
				c0.737,0.492,1.557,0.871,2.457,1.137c0.9,0.268,1.791,0.4,2.672,0.4c1.105,0,1.975-0.242,2.609-0.723
				c0.634-0.48,0.952-1.133,0.952-1.949v-1.689c-1.104,1.33-2.601,1.996-4.483,1.996c-1.352,0-2.554-0.332-3.607-0.998
				c-1.055-0.666-1.885-1.613-2.488-2.842s-0.906-2.641-0.906-4.236c0-1.557,0.292-2.934,0.875-4.131s1.396-2.125,2.441-2.779
				c1.044-0.652,2.23-0.98,3.562-0.98c1.945,0,3.48,0.676,4.606,2.023v-1.811h6.144V351.559z M405.048,361.909
				c0.522-0.635,0.783-1.465,0.783-2.486c0-1.064-0.261-1.914-0.783-2.551c-0.522-0.635-1.213-0.951-2.073-0.951
				c-0.84,0-1.52,0.322-2.041,0.969c-0.523,0.645-0.783,1.486-0.783,2.533c0,1.021,0.26,1.854,0.783,2.486
				c0.521,0.637,1.201,0.951,2.041,0.951C403.836,362.86,404.528,362.542,405.048,361.909z"/>
			<path fill="#33475C" d="M429.694,353.786c1.535,1.627,2.303,3.854,2.303,6.68c0,0.43-0.012,0.748-0.031,0.951h-11.24
				c0.246,0.799,0.65,1.412,1.213,1.844c0.563,0.43,1.244,0.645,2.043,0.645c1.289,0,2.518-0.531,3.685-1.598l3.225,3.164
				c-0.88,0.982-1.95,1.729-3.209,2.242c-1.259,0.512-2.667,0.768-4.222,0.768c-1.844,0-3.439-0.355-4.791-1.061
				s-2.391-1.699-3.117-2.979s-1.09-2.77-1.09-4.469c0-1.721,0.369-3.23,1.105-4.529c0.736-1.301,1.771-2.309,3.102-3.023
				c1.331-0.717,2.865-1.074,4.605-1.074C426.018,351.344,428.156,352.157,429.694,353.786z M425.178,356.35
				c-0.471-0.533-1.085-0.799-1.843-0.799c-0.718,0-1.312,0.256-1.781,0.768c-0.471,0.512-0.788,1.197-0.952,2.057h5.252
				C425.874,357.557,425.649,356.881,425.178,356.35z"/>
			<path fill="#33475C" d="M449.239,352.096c0.912,0.521,1.617,1.264,2.119,2.227s0.752,2.078,0.752,3.35v10.592h-6.203v-8.813
				c0-0.816-0.219-1.475-0.659-1.967c-0.44-0.49-1.019-0.736-1.735-0.736c-0.839,0.021-1.504,0.328-1.996,0.924
				c-0.49,0.594-0.736,1.369-0.736,2.334v8.258h-6.205v-16.705h6.205v2.58c0.594-0.922,1.336-1.623,2.228-2.105
				c0.892-0.479,1.919-0.721,3.086-0.721C447.278,351.313,448.328,351.575,449.239,352.096z"/>
			<path fill="#33475C" d="M469.461,353.786c1.536,1.627,2.303,3.854,2.303,6.68c0,0.43-0.011,0.748-0.031,0.951h-11.24
				c0.246,0.799,0.65,1.412,1.215,1.844c0.563,0.43,1.242,0.645,2.042,0.645c1.29,0,2.519-0.531,3.685-1.598l3.227,3.164
				c-0.881,0.982-1.95,1.729-3.209,2.242c-1.26,0.512-2.668,0.768-4.223,0.768c-1.844,0-3.438-0.355-4.791-1.061
				c-1.352-0.705-2.392-1.699-3.117-2.979c-0.728-1.279-1.09-2.77-1.09-4.469c0-1.721,0.368-3.23,1.104-4.529
				c0.735-1.301,1.771-2.309,3.103-3.023c1.33-0.719,2.865-1.074,4.605-1.074C465.785,351.344,467.925,352.157,469.461,353.786z
				 M464.948,356.35c-0.471-0.533-1.086-0.799-1.844-0.799c-0.718,0-1.312,0.256-1.781,0.768c-0.471,0.512-0.787,1.197-0.951,2.057
				h5.251C465.643,357.557,465.418,356.881,464.948,356.35z"/>
			<path fill="#33475C" d="M482.774,352.065c0.893-0.502,1.898-0.752,3.025-0.752v5.59c-0.246-0.041-0.604-0.061-1.075-0.061
				c-1.29,0-2.308,0.307-3.056,0.92s-1.121,1.455-1.121,2.52v7.982h-6.204v-16.705h6.204v2.641
				C481.14,353.278,481.883,352.567,482.774,352.065z"/>
			<path fill="#33475C" d="M501.106,352.924c1.321,1.074,1.981,2.574,1.981,4.5v10.84h-6.081v-1.842
				c-0.512,0.676-1.182,1.197-2.012,1.564c-0.828,0.367-1.786,0.553-2.871,0.553c-1.762,0-3.143-0.477-4.146-1.428
				c-1.003-0.951-1.505-2.227-1.505-3.822c0-1.617,0.548-2.861,1.644-3.73c1.096-0.871,2.697-1.316,4.807-1.336h4.084v-0.063
				c0-0.695-0.246-1.238-0.736-1.629c-0.492-0.389-1.207-0.582-2.15-0.582c-0.674,0-1.457,0.104-2.348,0.307
				c-0.893,0.205-1.787,0.502-2.688,0.891l-1.536-4.113c2.825-1.145,5.507-1.721,8.046-1.721
				C497.948,351.313,499.785,351.85,501.106,352.924z M495.901,364.026c0.514-0.307,0.881-0.727,1.105-1.258v-1.506h-2.825
				c-1.249,0-1.872,0.521-1.872,1.566c0,0.531,0.163,0.939,0.49,1.229c0.327,0.287,0.788,0.43,1.382,0.43
				C494.817,364.487,495.389,364.333,495.901,364.026z"/>
			<path fill="#33475C" d="M517.92,367.465c-0.594,0.328-1.316,0.59-2.165,0.783c-0.851,0.193-1.705,0.291-2.563,0.291
				c-1.781,0-3.205-0.49-4.27-1.475s-1.598-2.322-1.598-4.021v-6.664h-2.303v-3.961h2.303v-4.639h6.173v4.639h4.114v3.961h-4.114
				v5.713c0,0.531,0.122,0.932,0.368,1.197s0.594,0.396,1.045,0.396c0.389,0,1.021-0.162,1.904-0.49L517.92,367.465z"/>
			<path fill="#33475C" d="M533.276,352.403c1.393,0.707,2.473,1.705,3.239,2.994c0.769,1.291,1.151,2.795,1.151,4.516
				c0,1.699-0.385,3.197-1.151,4.498c-0.768,1.303-1.848,2.305-3.239,3.012c-1.394,0.703-3.021,1.059-4.883,1.059
				c-1.863,0-3.496-0.354-4.898-1.059c-1.401-0.707-2.486-1.709-3.256-3.012c-0.768-1.301-1.149-2.799-1.149-4.498
				c0-1.721,0.384-3.225,1.149-4.516c0.77-1.289,1.854-2.287,3.256-2.994c1.402-0.705,3.035-1.059,4.898-1.059
				C530.254,351.344,531.882,351.698,533.276,352.403z M526.18,357.286c-0.553,0.686-0.828,1.58-0.828,2.688
				c0,1.127,0.275,2.025,0.828,2.703c0.553,0.676,1.29,1.012,2.211,1.012c0.9,0,1.627-0.336,2.18-1.012
				c0.555-0.678,0.83-1.576,0.83-2.703c0-1.105-0.275-2.002-0.83-2.688c-0.553-0.688-1.278-1.029-2.18-1.029
				C527.47,356.256,526.733,356.6,526.18,357.286z"/>
			<path fill="#33475C" d="M548.675,352.065c0.892-0.502,1.897-0.752,3.024-0.752v5.59c-0.245-0.041-0.604-0.061-1.074-0.061
				c-1.29,0-2.309,0.307-3.057,0.92s-1.121,1.455-1.121,2.52v7.982h-6.203v-16.705h6.203v2.641
				C547.042,353.278,547.785,352.567,548.675,352.065z"/>
		</g>
		<g>
			<path fill="#E10098" d="M382.524,336.86c-0.096,0.217-0.225,0.396-0.389,0.531c-0.164,0.137-0.422,0.307-0.775,0.512
				c0.354,0.217,0.612,0.387,0.775,0.51c0.164,0.123,0.293,0.297,0.389,0.521c0.096,0.227,0.144,0.529,0.144,0.91v4.252
				c0,0.545,0.159,0.939,0.479,1.186s0.85,0.367,1.584,0.367v1.125h-0.49c-0.994,0-1.717-0.184-2.166-0.553
				c-0.45-0.367-0.676-0.967-0.676-1.799v-4.66c0-0.449-0.082-0.775-0.244-0.98c-0.164-0.205-0.416-0.307-0.756-0.307h-0.512v-1.146
				h0.512c0.666,0,1-0.428,1-1.287v-4.68c0-0.832,0.226-1.432,0.676-1.799c0.449-0.369,1.17-0.553,2.166-0.553h0.49v1.125
				c-0.734,0-1.264,0.125-1.584,0.377c-0.32,0.254-0.479,0.65-0.479,1.195v4.252C382.667,336.342,382.619,336.641,382.524,336.86z"
				/>
			<path fill="#E10098" d="M403.331,337.206h1.247v5.232c-0.695,0.586-1.502,1.047-2.422,1.381s-1.857,0.5-2.812,0.5
				c-1.349,0-2.592-0.326-3.729-0.98c-1.139-0.654-2.041-1.539-2.709-2.656c-0.666-1.117-1-2.338-1-3.658
				c0-1.322,0.334-2.535,1-3.639c0.668-1.105,1.578-1.98,2.729-2.627s2.408-0.973,3.771-0.973c0.968,0,1.904,0.172,2.812,0.514
				c0.906,0.34,1.707,0.816,2.401,1.43l-0.817,1.002c-0.586-0.545-1.261-0.965-2.022-1.258c-0.765-0.293-1.555-0.439-2.371-0.439
				c-1.104,0-2.119,0.271-3.045,0.811c-0.928,0.537-1.664,1.264-2.209,2.176c-0.545,0.914-0.817,1.914-0.817,3.006
				c0,1.104,0.272,2.115,0.817,3.035s1.285,1.646,2.219,2.188c0.933,0.539,1.951,0.809,3.056,0.809c0.681,0,1.359-0.113,2.034-0.338
				c0.674-0.227,1.298-0.541,1.87-0.951v-4.561h-0.002V337.206z"/>
			<path fill="#E10098" d="M411.374,334.11c0.661-0.43,1.454-0.65,2.381-0.664v1.287c-1.131-0.012-2.041,0.318-2.729,0.992
				c-0.688,0.674-1.08,1.592-1.174,2.75v5.723h-1.371v-10.711h1.371v2.494C410.205,335.163,410.713,334.54,411.374,334.11z"/>
			<path fill="#E10098" d="M422.156,344.198l-0.021-1.799c-0.422,0.627-0.975,1.094-1.654,1.4c-0.683,0.307-1.466,0.459-2.352,0.459
				c-0.723,0-1.359-0.141-1.911-0.418c-0.552-0.279-0.978-0.666-1.276-1.156c-0.301-0.49-0.451-1.041-0.451-1.654
				c0-0.928,0.357-1.656,1.074-2.188c0.715-0.531,1.699-0.799,2.953-0.799h3.598v-0.814c0-0.846-0.252-1.5-0.756-1.963
				s-1.24-0.693-2.207-0.693c-1.146,0-2.297,0.428-3.455,1.287l-0.613-0.939c0.722-0.504,1.41-0.877,2.064-1.113
				c0.653-0.238,1.402-0.357,2.248-0.357c1.293,0,2.295,0.322,3.004,0.973c0.709,0.645,1.069,1.543,1.084,2.688l0.021,7.094h-1.349
				V344.198z M420.797,342.45c0.661-0.441,1.107-1.064,1.338-1.871v-1.471h-3.454c-0.94,0-1.655,0.156-2.146,0.471
				c-0.491,0.313-0.736,0.783-0.736,1.41c0,0.643,0.234,1.154,0.705,1.543c0.47,0.391,1.093,0.582,1.87,0.582
				C419.328,343.114,420.136,342.893,420.797,342.45z"/>
			<path fill="#E10098" d="M435.574,334.131c0.783,0.457,1.393,1.096,1.828,1.92c0.437,0.824,0.653,1.762,0.653,2.811
				c0,1.037-0.218,1.963-0.653,2.781c-0.437,0.816-1.041,1.453-1.818,1.91s-1.663,0.686-2.657,0.686
				c-0.981,0-1.84-0.223-2.575-0.664c-0.736-0.441-1.309-1.061-1.717-1.852v6.438h-1.369v-14.674h1.369v2.475
				c0.395-0.791,0.964-1.406,1.707-1.852c0.742-0.443,1.598-0.664,2.564-0.664C433.903,333.446,434.791,333.674,435.574,334.131z
				 M434.727,342.51c0.612-0.359,1.09-0.861,1.43-1.502c0.342-0.641,0.513-1.369,0.513-2.188c0-0.805-0.17-1.525-0.513-2.166
				c-0.34-0.643-0.816-1.143-1.43-1.504c-0.613-0.359-1.303-0.541-2.063-0.541c-0.777,0-1.47,0.182-2.075,0.541
				c-0.605,0.361-1.083,0.861-1.432,1.504c-0.348,0.641-0.521,1.361-0.521,2.166c0,0.816,0.17,1.547,0.511,2.188
				c0.34,0.641,0.817,1.143,1.432,1.502c0.613,0.361,1.308,0.543,2.085,0.543C433.424,343.053,434.114,342.872,434.727,342.51z"/>
			<path fill="#E10098" d="M449.698,334.559c0.729,0.744,1.094,1.762,1.094,3.057v6.582h-1.391v-6.256
				c0-1.008-0.279-1.797-0.838-2.371c-0.56-0.572-1.334-0.855-2.33-0.855c-1.187,0.014-2.115,0.404-2.789,1.176
				c-0.674,0.77-1.014,1.787-1.014,3.057v5.252h-1.367v-15.166h1.367v6.99c0.723-1.689,2.141-2.549,4.251-2.574
				C447.964,333.446,448.968,333.817,449.698,334.559z"/>
			<path fill="#E10098" d="M468.942,345.465c-0.545,0.504-1.127,0.891-1.748,1.164c-0.619,0.271-1.229,0.408-1.828,0.408
				c-1.555,0-3.039-0.906-4.457-2.719h-0.266c-1.363,0-2.613-0.326-3.75-0.98c-1.138-0.654-2.041-1.539-2.707-2.656
				c-0.668-1.117-1.002-2.338-1.002-3.658c0-1.322,0.334-2.535,1.002-3.639c0.666-1.105,1.569-1.98,2.707-2.627
				c1.139-0.646,2.389-0.973,3.75-0.973c1.362,0,2.613,0.324,3.75,0.973c1.139,0.646,2.041,1.521,2.709,2.627
				c0.666,1.104,1,2.314,1,3.639c0,1.131-0.244,2.189-0.736,3.178c-0.489,0.988-1.164,1.822-2.021,2.504
				c-0.857,0.684-1.833,1.15-2.923,1.41c1.104,1.131,2.132,1.695,3.086,1.695c0.856,0,1.792-0.441,2.8-1.328L468.942,345.465z
				 M455.431,340.047c0.546,0.928,1.281,1.658,2.208,2.197c0.926,0.539,1.936,0.809,3.025,0.809c1.076,0,2.074-0.27,2.994-0.809
				s1.652-1.271,2.197-2.197s0.817-1.936,0.817-3.023c0-1.092-0.272-2.092-0.817-3.006c-0.545-0.912-1.277-1.635-2.197-2.166
				s-1.918-0.797-2.994-0.797c-1.09,0-2.1,0.266-3.025,0.797c-0.927,0.531-1.662,1.254-2.208,2.166
				c-0.545,0.914-0.817,1.914-0.817,3.006C454.614,338.114,454.886,339.12,455.431,340.047z"/>
			<path fill="#E10098" d="M471.477,329.911h1.409v13.02h6.295v1.268h-7.706v-14.287H471.477L471.477,329.911z"/>
			<path fill="#E10098" d="M490.873,337.329v1.146h-0.512c-0.34,0-0.592,0.102-0.756,0.307c-0.164,0.203-0.246,0.531-0.246,0.98
				v4.66c0,0.83-0.226,1.43-0.674,1.799c-0.449,0.367-1.173,0.551-2.166,0.551h-0.492v-1.123c0.735,0,1.265-0.123,1.584-0.369
				c0.319-0.244,0.479-0.641,0.479-1.186v-4.25c0-0.383,0.048-0.686,0.144-0.91c0.096-0.227,0.226-0.398,0.39-0.521
				c0.163-0.123,0.422-0.293,0.776-0.512c-0.354-0.205-0.613-0.375-0.776-0.512c-0.164-0.137-0.293-0.313-0.39-0.531
				s-0.144-0.518-0.144-0.898v-4.252c0-0.545-0.16-0.941-0.479-1.195c-0.319-0.252-0.849-0.377-1.584-0.377v-1.125h0.492
				c0.993,0,1.717,0.184,2.166,0.553c0.449,0.367,0.674,0.967,0.674,1.799v4.68c0,0.859,0.334,1.287,1.002,1.287H490.873
				L490.873,337.329z"/>
		</g>
	</g>
	<g>
		<g>
			<g>
				<g>
					<path fill="#DFE8EF" d="M104.111,384.9c-4.822,2.645-12.731,2.672-17.574,0.064l-46.844-25.226
						c-4.844-2.606-4.877-6.938-0.076-9.618l90.662-50.662c4.801-2.683,13.104-5.933,18.451-7.223l12.834,0.128
						c5.318,1.396,13.641,4.657,18.491,7.249l94.866,50.674c4.852,2.592,4.936,6.979,0.184,9.751l-42.221,24.628
						c-4.751,2.771-12.615,2.934-17.477,0.359l-47.879-25.35c-4.86-2.571-12.785-2.519-17.607,0.126L104.111,384.9z"/>
				</g>
			</g>
		</g>
		
			<linearGradient id="SVGID_1_" gradientUnits="userSpaceOnUse" x1="198.2751" y1="949.8564" x2="167.7745" y2="943.1063" gradientTransform="matrix(1 0 0 1 75.6401 -585.9453)">
			<stop  offset="4.810700e-004" style="stop-color:#22313F"/>
			<stop  offset="1" style="stop-color:#33475C"/>
		</linearGradient>
		<path fill="url(#SVGID_1_)" d="M272.346,350.149c0.32-1.004,0.466-1.996,0.396-2.918c-0.008-0.11-0.027-0.213-0.043-0.319
			c-0.015-1.021-0.155-2.154-0.56-3.259c-1.924-5.28-9.812-7.987-9.812-7.987v9.916l0.521,0.261l-26.302,14.612h-18.842v14.875
			c0,0,4.619,4.481,9.849,3.028c0.94-0.262,1.791-0.635,2.562-1.094c0.406-0.133,0.836-0.313,1.295-0.559l34.541-18.972
			c2.867-1.529,5.238-4.381,6.263-7.211l0.03,0.016C272.244,350.539,272.287,350.397,272.346,350.149z"/>
		
			<linearGradient id="SVGID_2_" gradientUnits="userSpaceOnUse" x1="68.8196" y1="884.5518" x2="156.9575" y2="931.5148" gradientTransform="matrix(1 0 0 1 75.6401 -585.9453)">
			<stop  offset="4.810700e-004" style="stop-color:#22313F"/>
			<stop  offset="1" style="stop-color:#33475C"/>
		</linearGradient>
		<path fill="url(#SVGID_2_)" d="M265.021,344.635c3.973-2.207,3.897-5.677-0.168-7.709L170.56,289.78
			c-4.064-2.031-10.641-1.889-14.615,0.317l-30.174,16.763c-3.974,2.208-3.898,5.677,0.168,7.708l94.293,47.146
			c4.063,2.032,10.641,1.891,14.612-0.316L265.021,344.635z"/>
		<g>
			
				<linearGradient id="SVGID_3_" gradientUnits="userSpaceOnUse" x1="-0.6301" y1="897.6348" x2="47.3347" y2="897.6348" gradientTransform="matrix(0.9986 -0.0523 0.0523 0.9986 114.5585 -591.4927)">
				<stop  offset="0" style="stop-color:#00FFE2"/>
				<stop  offset="0.1506" style="stop-color:#06F5E0"/>
				<stop  offset="0.4082" style="stop-color:#15DADC"/>
				<stop  offset="0.7394" style="stop-color:#2EADD6"/>
				<stop  offset="1" style="stop-color:#4486D0"/>
			</linearGradient>
			<polygon fill="url(#SVGID_3_)" points="160.951,306.339 188.302,290.717 208.626,299.582 179.734,316.696 			"/>
			
				<linearGradient id="SVGID_4_" gradientUnits="userSpaceOnUse" x1="32.9114" y1="916.8848" x2="31.6575" y2="899.5399" gradientTransform="matrix(0.9986 -0.0523 0.0523 0.9986 114.5585 -591.4927)">
				<stop  offset="0" style="stop-color:#00FFE2"/>
				<stop  offset="0.1506" style="stop-color:#06F5E0"/>
				<stop  offset="0.4082" style="stop-color:#15DADC"/>
				<stop  offset="0.7394" style="stop-color:#2EADD6"/>
				<stop  offset="1" style="stop-color:#4486D0"/>
			</linearGradient>
			<polygon fill="url(#SVGID_4_)" points="208.626,299.582 209.375,315.558 180.576,332.772 179.734,316.696 			"/>
			
				<linearGradient id="SVGID_5_" gradientUnits="userSpaceOnUse" x1="-2.4104" y1="908.8496" x2="23.1631" y2="918.0562" gradientTransform="matrix(0.9986 -0.0523 0.0523 0.9986 114.5585 -591.4927)">
				<stop  offset="0" style="stop-color:#00FFE2"/>
				<stop  offset="0.1506" style="stop-color:#06F5E0"/>
				<stop  offset="0.4082" style="stop-color:#15DADC"/>
				<stop  offset="0.7394" style="stop-color:#2EADD6"/>
				<stop  offset="1" style="stop-color:#4486D0"/>
			</linearGradient>
			<polygon fill="url(#SVGID_5_)" points="160.951,306.339 161.795,322.415 180.576,332.772 179.734,316.696 			"/>
		</g>
		<path fill="#E4EAEF" d="M262.328,335.665"/>
		<path fill="#22313F" d="M155.667,344.358c-4.056-2.055-7.371-7.082-7.371-11.172c0-4.092,3.338-5.799,7.418-3.797l67.14,32.932
			c4.081,2.002,7.071,7.109,6.646,11.354c-0.428,4.241-4.094,6.03-8.146,3.977L155.667,344.358z"/>
		
			<linearGradient id="SVGID_6_" gradientUnits="userSpaceOnUse" x1="74.3088" y1="939.8975" x2="152.7102" y2="939.8975" gradientTransform="matrix(1 0 0 1 75.6401 -585.9453)">
			<stop  offset="4.810700e-004" style="stop-color:#22313F"/>
			<stop  offset="1" style="stop-color:#33475C"/>
		</linearGradient>
		<path fill="url(#SVGID_6_)" d="M157.3,343.383c-4.043-2.076-7.351-6.296-7.351-9.38c0-3.082,3.346-3.981,7.437-2.001
			l63.799,30.906c4.091,1.98,7.312,6.578,7.161,10.215c-0.152,3.634-3.583,4.912-7.626,2.834L157.3,343.383z"/>
		
			<linearGradient id="SVGID_7_" gradientUnits="userSpaceOnUse" x1="11.7668" y1="921.8887" x2="-3.1074" y2="952.4635" gradientTransform="matrix(1 0 0 1 75.6401 -585.9453)">
			<stop  offset="0" style="stop-color:#E10098"/>
			<stop  offset="0.2354" style="stop-color:#DE0198"/>
			<stop  offset="0.4064" style="stop-color:#D50496"/>
			<stop  offset="0.557" style="stop-color:#C50A93"/>
			<stop  offset="0.6958" style="stop-color:#AF1290"/>
			<stop  offset="0.8266" style="stop-color:#921C8B"/>
			<stop  offset="0.9497" style="stop-color:#6F2985"/>
			<stop  offset="1" style="stop-color:#5E2F82"/>
		</linearGradient>
		<polygon fill="url(#SVGID_7_)" points="68.968,331.016 49.135,340.932 93.759,365.722 113.59,355.806 		"/>
		<polygon fill="#EDEDED" points="101.344,355.143 101.365,355.131 101.345,355.12 101.365,355.11 101.345,355.098 101.365,355.088 
			101.345,355.077 101.365,355.067 101.345,355.055 101.365,355.045 101.344,355.034 101.365,355.024 101.344,355.011 101.365,355 
			101.345,354.989 101.365,354.979 101.345,354.967 101.365,354.958 101.344,354.946 101.365,354.936 101.345,354.924 
			101.365,354.914 101.345,354.903 101.365,354.893 101.344,354.88 101.365,354.87 101.344,354.858 101.365,354.848 
			101.345,354.837 101.367,354.827 101.345,354.815 101.365,354.805 101.345,354.793 101.365,354.784 101.344,354.772 
			101.365,354.76 101.345,354.749 101.365,354.739 101.345,354.727 101.365,354.717 101.345,354.706 101.365,354.696 
			101.344,354.684 101.365,354.673 101.345,354.663 101.365,354.651 68.476,336.524 60.599,340.432 60.621,340.444 60.599,340.454 
			60.621,340.465 60.599,340.477 60.621,340.487 60.599,340.498 60.621,340.508 60.599,340.52 60.621,340.53 60.599,340.541 
			60.621,340.552 60.599,340.563 60.621,340.575 60.599,340.585 60.621,340.596 60.599,340.608 60.621,340.618 60.599,340.628 
			60.621,340.64 60.599,340.651 60.621,340.663 60.599,340.672 60.621,340.684 60.599,340.694 60.621,340.706 60.599,340.715 
			60.621,340.727 60.599,340.737 60.621,340.749 60.599,340.759 60.621,340.77 60.599,340.78 60.621,340.792 60.599,340.802 
			60.621,340.815 60.599,340.825 60.621,340.836 60.599,340.846 60.621,340.858 60.599,340.868 60.621,340.879 60.599,340.889 
			60.623,340.901 60.599,340.913 60.621,340.924 60.599,340.934 60.621,340.946 60.599,340.956 60.621,340.967 60.599,340.977 
			60.621,340.989 60.599,341 60.621,341.01 60.599,341.022 60.621,341.032 60.599,341.043 60.621,341.055 60.599,341.065 
			60.621,341.077 60.599,341.086 60.621,341.098 60.599,341.108 60.621,341.12 60.599,341.13 60.621,341.141 60.599,341.151 
			60.621,341.164 60.599,341.174 60.621,341.186 60.599,341.196 60.621,341.208 60.599,341.217 60.621,341.229 60.599,341.239 
			60.621,341.25 60.599,341.261 60.621,341.272 60.599,341.282 60.621,341.294 60.599,341.305 60.621,341.317 60.599,341.327 
			60.621,341.338 60.599,341.348 60.621,341.36 60.599,341.37 60.621,341.381 60.599,341.393 60.621,341.403 60.599,341.414 
			60.621,341.425 60.599,341.436 60.621,341.448 60.599,341.458 60.621,341.469 60.599,341.479 60.621,341.491 60.599,341.5 
			60.621,341.512 60.599,341.524 60.621,341.534 60.599,341.545 60.621,341.557 60.599,341.567 60.621,341.579 60.599,341.588 
			60.621,341.6 60.599,341.61 60.621,341.622 60.599,341.631 60.621,341.643 60.599,341.653 60.621,341.666 60.599,341.676 
			60.621,341.688 60.599,341.698 60.621,341.709 60.599,341.719 60.621,341.731 60.599,341.741 60.621,341.752 60.599,341.762 
			60.621,341.774 60.599,341.784 60.621,341.795 60.599,341.806 60.621,341.817 60.599,341.829 60.621,341.84 60.599,341.85 
			60.621,341.862 60.599,341.872 60.621,341.883 60.599,341.893 60.621,341.905 60.599,341.916 60.621,341.927 60.599,341.938 
			60.621,341.95 60.599,341.959 60.621,341.971 60.599,341.981 60.621,341.993 60.599,342.002 60.621,342.014 60.599,342.024 
			60.621,342.036 60.599,342.046 60.621,342.058 60.599,342.069 60.621,342.081 60.599,342.09 60.621,342.102 60.599,342.112 
			60.621,342.124 60.599,342.133 60.621,342.145 60.599,342.155 60.621,342.167 60.599,342.177 60.621,342.188 60.599,342.198 
			60.621,342.209 60.599,342.22 60.621,342.233 60.599,342.243 60.621,342.254 60.599,342.264 60.621,342.276 60.599,342.287 
			60.621,342.297 60.599,342.308 60.621,342.319 60.599,342.331 60.621,342.342 60.599,342.352 60.621,342.364 60.599,342.374 
			60.621,342.385 60.599,342.395 60.621,342.407 60.599,342.417 60.621,342.428 60.599,342.44 60.621,342.45 60.599,342.46 
			60.621,342.471 60.599,342.483 60.621,342.494 60.599,342.504 60.621,342.516 60.599,342.526 60.621,342.538 60.599,342.547 
			60.621,342.559 60.599,342.569 60.621,342.582 60.599,342.592 60.621,342.604 60.599,342.614 60.621,342.625 60.599,342.635 
			93.49,360.764 101.365,356.856 101.344,356.844 101.365,356.833 101.345,356.823 101.365,356.813 101.345,356.801 
			101.365,356.791 101.345,356.78 101.365,356.77 101.344,356.757 101.365,356.747 101.345,356.735 101.365,356.725 
			101.345,356.713 101.365,356.704 101.345,356.692 101.365,356.682 101.344,356.67 101.365,356.659 101.345,356.647 
			101.365,356.637 101.345,356.625 101.367,356.616 101.345,356.604 101.365,356.594 101.344,356.583 101.365,356.571 
			101.345,356.561 101.365,356.55 101.345,356.54 101.365,356.528 101.345,356.518 101.365,356.507 101.344,356.496 
			101.365,356.485 101.345,356.473 101.365,356.463 101.345,356.452 101.365,356.442 101.345,356.43 101.365,356.42 
			101.344,356.409 101.365,356.397 101.345,356.385 101.365,356.375 101.345,356.364 101.365,356.354 101.345,356.342 
			101.365,356.333 101.345,356.321 101.365,356.311 101.344,356.299 101.367,356.289 101.345,356.278 101.367,356.268 
			101.344,356.254 101.365,356.245 101.344,356.233 101.365,356.223 101.344,356.211 101.365,356.202 101.345,356.19 
			101.365,356.18 101.344,356.168 101.365,356.157 101.345,356.147 101.365,356.136 101.344,356.125 101.365,356.114 
			101.345,356.102 101.365,356.092 101.345,356.081 101.365,356.071 101.344,356.059 101.365,356.048 101.345,356.038 
			101.365,356.026 101.344,356.015 101.365,356.004 101.345,355.993 101.365,355.983 101.345,355.971 101.365,355.961 
			101.345,355.95 101.365,355.94 101.345,355.928 101.365,355.918 101.344,355.907 101.365,355.895 101.345,355.883 
			101.365,355.874 101.345,355.862 101.365,355.852 101.345,355.84 101.365,355.831 101.345,355.819 101.365,355.809 
			101.345,355.797 101.365,355.788 101.344,355.776 101.365,355.764 101.345,355.752 101.365,355.743 101.345,355.731 
			101.365,355.721 101.345,355.709 101.365,355.7 101.345,355.688 101.365,355.678 101.344,355.667 101.365,355.655 
			101.345,355.643 101.365,355.633 101.345,355.622 101.365,355.612 101.345,355.6 101.365,355.59 101.345,355.579 101.365,355.569 
			101.345,355.557 101.365,355.547 101.344,355.536 101.365,355.524 101.345,355.512 101.365,355.502 101.345,355.491 
			101.365,355.481 101.345,355.469 101.365,355.459 101.345,355.448 101.365,355.438 101.344,355.426 101.365,355.416 
			101.345,355.405 101.365,355.395 101.344,355.382 101.365,355.372 101.345,355.36 101.365,355.35 101.345,355.338 
			101.365,355.329 101.344,355.317 101.365,355.306 101.345,355.295 101.365,355.284 101.345,355.274 101.365,355.263 
			101.344,355.251 101.365,355.241 101.344,355.229 101.365,355.219 101.344,355.208 101.365,355.198 101.344,355.186 
			101.367,355.175 101.345,355.165 101.367,355.153 		"/>
		
			<linearGradient id="SVGID_8_" gradientUnits="userSpaceOnUse" x1="-26.5046" y1="946.709" x2="18.1184" y2="946.709" gradientTransform="matrix(1 0 0 1 75.6401 -585.9453)">
			<stop  offset="0" style="stop-color:#E10098"/>
			<stop  offset="0.2354" style="stop-color:#DE0198"/>
			<stop  offset="0.4064" style="stop-color:#D50496"/>
			<stop  offset="0.557" style="stop-color:#C50A93"/>
			<stop  offset="0.6958" style="stop-color:#AF1290"/>
			<stop  offset="0.8266" style="stop-color:#921C8B"/>
			<stop  offset="0.9497" style="stop-color:#6F2985"/>
			<stop  offset="1" style="stop-color:#5E2F82"/>
		</linearGradient>
		<polygon fill="url(#SVGID_8_)" points="49.135,340.932 49.135,355.806 93.759,380.596 93.759,365.722 		"/>
		
			<linearGradient id="SVGID_9_" gradientUnits="userSpaceOnUse" x1="-6.6726" y1="867.3828" x2="82.5715" y2="867.3828" gradientTransform="matrix(1 0 0 1 75.6401 -585.9453)">
			<stop  offset="0" style="stop-color:#E10098"/>
			<stop  offset="0.2354" style="stop-color:#DE0198"/>
			<stop  offset="0.4064" style="stop-color:#D50496"/>
			<stop  offset="0.557" style="stop-color:#C50A93"/>
			<stop  offset="0.6958" style="stop-color:#AF1290"/>
			<stop  offset="0.8266" style="stop-color:#921C8B"/>
			<stop  offset="0.9497" style="stop-color:#6F2985"/>
			<stop  offset="1" style="stop-color:#5E2F82"/>
		</linearGradient>
		<polygon fill="url(#SVGID_9_)" points="68.968,281.438 113.59,256.647 158.212,281.438 113.59,306.228 		"/>
		
			<linearGradient id="SVGID_10_" gradientUnits="userSpaceOnUse" x1="-6.6726" y1="904.5674" x2="37.9495" y2="904.5674" gradientTransform="matrix(1 0 0 1 75.6401 -585.9453)">
			<stop  offset="0" style="stop-color:#E10098"/>
			<stop  offset="0.2354" style="stop-color:#DE0198"/>
			<stop  offset="0.4064" style="stop-color:#D50496"/>
			<stop  offset="0.557" style="stop-color:#C50A93"/>
			<stop  offset="0.6958" style="stop-color:#AF1290"/>
			<stop  offset="0.8266" style="stop-color:#921C8B"/>
			<stop  offset="0.9497" style="stop-color:#6F2985"/>
			<stop  offset="1" style="stop-color:#5E2F82"/>
		</linearGradient>
		<polygon fill="url(#SVGID_10_)" points="113.59,355.806 113.59,306.228 68.968,281.438 68.968,331.016 		"/>
		<polygon fill="#F7F7F7" points="73.375,328.425 73.375,288.926 109.182,308.819 109.182,348.317 		"/>
		
			<linearGradient id="SVGID_11_" gradientUnits="userSpaceOnUse" x1="42.864" y1="878.7109" x2="57.4625" y2="953.3558" gradientTransform="matrix(1 0 0 1 75.6401 -585.9453)">
			<stop  offset="0" style="stop-color:#E10098"/>
			<stop  offset="0.2354" style="stop-color:#DE0198"/>
			<stop  offset="0.4064" style="stop-color:#D50496"/>
			<stop  offset="0.557" style="stop-color:#C50A93"/>
			<stop  offset="0.6958" style="stop-color:#AF1290"/>
			<stop  offset="0.8266" style="stop-color:#921C8B"/>
			<stop  offset="0.9497" style="stop-color:#6F2985"/>
			<stop  offset="1" style="stop-color:#5E2F82"/>
		</linearGradient>
		<polygon fill="url(#SVGID_11_)" points="158.212,281.438 113.59,306.228 113.59,355.806 93.759,365.722 93.759,380.596 
			158.212,345.889 		"/>
		<path fill="#9DB2C9" d="M237.539,305.917"/>
		<g>
			
				<linearGradient id="SVGID_12_" gradientUnits="userSpaceOnUse" x1="44.9783" y1="921.0645" x2="92.9407" y2="921.0645" gradientTransform="matrix(0.9986 -0.0523 0.0523 0.9986 112.3006 -587.7153)">
				<stop  offset="0" style="stop-color:#00FFE2"/>
				<stop  offset="0.1506" style="stop-color:#06F5E0"/>
				<stop  offset="0.4082" style="stop-color:#15DADC"/>
				<stop  offset="0.7394" style="stop-color:#2EADD6"/>
				<stop  offset="1" style="stop-color:#4486D0"/>
			</linearGradient>
			<polygon fill="url(#SVGID_12_)" points="205.463,331.131 232.812,315.506 253.135,324.372 224.244,341.485 			"/>
			
				<linearGradient id="SVGID_13_" gradientUnits="userSpaceOnUse" x1="78.5183" y1="940.3145" x2="77.2646" y2="922.9713" gradientTransform="matrix(0.9986 -0.0523 0.0523 0.9986 112.3006 -587.7153)">
				<stop  offset="0" style="stop-color:#00FFE2"/>
				<stop  offset="0.1506" style="stop-color:#06F5E0"/>
				<stop  offset="0.4082" style="stop-color:#15DADC"/>
				<stop  offset="0.7394" style="stop-color:#2EADD6"/>
				<stop  offset="1" style="stop-color:#4486D0"/>
			</linearGradient>
			<polygon fill="url(#SVGID_13_)" points="253.135,324.372 253.885,340.346 225.088,357.561 224.244,341.485 			"/>
			
				<linearGradient id="SVGID_14_" gradientUnits="userSpaceOnUse" x1="43.1975" y1="932.2813" x2="68.7691" y2="941.4871" gradientTransform="matrix(0.9986 -0.0523 0.0523 0.9986 112.3006 -587.7153)">
				<stop  offset="0" style="stop-color:#00FFE2"/>
				<stop  offset="0.1506" style="stop-color:#06F5E0"/>
				<stop  offset="0.4082" style="stop-color:#15DADC"/>
				<stop  offset="0.7394" style="stop-color:#2EADD6"/>
				<stop  offset="1" style="stop-color:#4486D0"/>
			</linearGradient>
			<polygon fill="url(#SVGID_14_)" points="205.463,331.131 206.304,347.204 225.088,357.561 224.244,341.485 			"/>
		</g>
		<ellipse opacity="0.1" fill="#262728" enable-background="new    " cx="113.59" cy="278.958" rx="14.874" ry="7.437"/>
		
			<linearGradient id="SVGID_15_" gradientUnits="userSpaceOnUse" x1="32.9924" y1="862.6455" x2="42.9084" y2="862.6455" gradientTransform="matrix(1 0 0 1 75.6401 -585.9453)">
			<stop  offset="0" style="stop-color:#00FFE2"/>
			<stop  offset="0.1506" style="stop-color:#06F5E0"/>
			<stop  offset="0.4082" style="stop-color:#15DADC"/>
			<stop  offset="0.7394" style="stop-color:#2EADD6"/>
			<stop  offset="1" style="stop-color:#4486D0"/>
		</linearGradient>
		<path fill="url(#SVGID_15_)" d="M108.633,271.963v6.995c0,1.368,2.219,2.479,4.958,2.479c2.737,0,4.958-1.11,4.958-2.479v-6.995
			H108.633z"/>
		
			<linearGradient id="SVGID_16_" gradientUnits="userSpaceOnUse" x1="38.0476" y1="833.7109" x2="37.1357" y2="870.49" gradientTransform="matrix(1 0 0 1 75.6401 -585.9453)">
			<stop  offset="0" style="stop-color:#00FFE2"/>
			<stop  offset="0.1506" style="stop-color:#06F5E0"/>
			<stop  offset="0.4082" style="stop-color:#15DADC"/>
			<stop  offset="0.7394" style="stop-color:#2EADD6"/>
			<stop  offset="1" style="stop-color:#4486D0"/>
		</linearGradient>
		<path fill="url(#SVGID_16_)" d="M98.716,251.69l9.917,22.311c0,1.369,2.219,2.479,4.958,2.479c2.737,0,4.958-1.11,4.958-2.479
			l9.917-22.311H98.716z"/>
		
			<linearGradient id="SVGID_17_" gradientUnits="userSpaceOnUse" x1="23.0754" y1="838.1816" x2="52.8245" y2="838.1816" gradientTransform="matrix(1 0 0 1 75.6401 -585.9453)">
			<stop  offset="0" style="stop-color:#00FFE2"/>
			<stop  offset="0.1506" style="stop-color:#06F5E0"/>
			<stop  offset="0.4082" style="stop-color:#15DADC"/>
			<stop  offset="0.7394" style="stop-color:#2EADD6"/>
			<stop  offset="1" style="stop-color:#4486D0"/>
		</linearGradient>
		<path fill="url(#SVGID_17_)" d="M128.465,252.238c0,3.651-6.661,6.608-14.875,6.608s-14.874-2.957-14.874-6.608
			c0-3.653,6.66-6.611,14.874-6.611S128.465,248.585,128.465,252.238z"/>
		
			<linearGradient id="SVGID_18_" gradientUnits="userSpaceOnUse" x1="37.6541" y1="844.5518" x2="38.2969" y2="830.6876" gradientTransform="matrix(1 0 0 1 75.6401 -585.9453)">
			<stop  offset="0" style="stop-color:#00D0E2"/>
			<stop  offset="0.1417" style="stop-color:#05C6E1"/>
			<stop  offset="0.3843" style="stop-color:#13ABDD"/>
			<stop  offset="0.6959" style="stop-color:#2A7ED7"/>
			<stop  offset="1" style="stop-color:#444DD0"/>
		</linearGradient>
		<path fill="url(#SVGID_18_)" d="M113.59,257.471c-3.747,0-7.244-0.673-9.846-1.893c-2.084-0.977-3.375-2.256-3.375-3.34
			c0-1.086,1.291-2.366,3.375-3.342c2.602-1.221,6.099-1.893,9.846-1.893s7.244,0.672,9.845,1.893
			c2.082,0.976,3.375,2.256,3.375,3.342c0,1.084-1.293,2.363-3.375,3.34C120.834,256.798,117.337,257.471,113.59,257.471z"/>
		<g>
			<path fill="#E535AB" d="M111.969,242.242c-0.176-0.006-0.348,0.012-0.508,0.053l-2.229-4.252c0.127-0.11,0.24-0.241,0.336-0.393
				c0.53-0.842,0.28-1.951-0.558-2.484c-0.843-0.531-1.953-0.281-2.487,0.557c-0.096,0.152-0.164,0.313-0.209,0.479l-4.795-0.197
				c-0.031-0.166-0.09-0.332-0.173-0.492c-0.462-0.881-1.549-1.219-2.431-0.757c-0.883,0.462-1.221,1.548-0.76,2.431
				c0.084,0.158,0.187,0.297,0.305,0.419l-2.567,4.056c-0.159-0.055-0.331-0.089-0.51-0.099c-0.992-0.036-1.833,0.736-1.872,1.729
				c-0.039,0.994,0.734,1.834,1.729,1.874c0.177,0.008,0.349-0.013,0.514-0.055l2.229,4.251c-0.125,0.11-0.238,0.24-0.332,0.388
				c-0.531,0.844-0.281,1.953,0.557,2.488c0.839,0.531,1.947,0.281,2.486-0.56c0.094-0.147,0.162-0.308,0.209-0.468l4.793,0.195
				c0.032,0.165,0.088,0.329,0.17,0.484c0.463,0.883,1.549,1.222,2.432,0.76c0.881-0.463,1.217-1.555,0.758-2.432
				c-0.093-0.174-0.209-0.33-0.344-0.459l2.55-4.029c0.176,0.066,0.365,0.105,0.562,0.115c0.994,0.036,1.834-0.736,1.875-1.729
				C113.74,243.12,112.968,242.282,111.969,242.242z M100.523,249.524c-0.111-0.125-0.24-0.238-0.389-0.332
				c-0.148-0.093-0.307-0.162-0.467-0.209l0.441-10.868c0.164-0.032,0.323-0.089,0.479-0.169c0.154-0.082,0.292-0.184,0.413-0.299
				l9.188,5.818c-0.055,0.159-0.087,0.328-0.094,0.506c-0.007,0.175,0.014,0.344,0.053,0.506L100.523,249.524z M106.285,237.057
				c0.096,0.461,0.369,0.88,0.797,1.153c0.43,0.272,0.931,0.34,1.39,0.228l2.231,4.256c-0.018,0.016-0.035,0.031-0.055,0.048
				l-9.189-5.816c0.008-0.021,0.015-0.044,0.021-0.065L106.285,237.057z M99.187,238.06c0.022,0.01,0.045,0.015,0.068,0.021
				l-0.443,10.869c-0.023,0.003-0.047,0.012-0.072,0.016l-2.23-4.256c0.354-0.314,0.583-0.766,0.604-1.273
				c0.021-0.506-0.172-0.974-0.498-1.312L99.187,238.06z M108.076,249.36c-0.459-0.166-0.983-0.147-1.451,0.098
				c-0.452,0.237-0.762,0.64-0.893,1.089l-4.799-0.193c-0.005-0.023-0.009-0.047-0.015-0.07l9.628-5.049
				c0.027,0.03,0.056,0.062,0.084,0.091L108.076,249.36z"/>
			<g>
				<path fill="#FFFFFF" d="M100.523,249.522c-0.109-0.127-0.24-0.239-0.388-0.333c-0.149-0.093-0.308-0.161-0.468-0.209
					l0.441-10.868c0.164-0.034,0.324-0.089,0.479-0.17c0.153-0.08,0.291-0.182,0.412-0.297l9.188,5.817
					c-0.054,0.159-0.086,0.329-0.093,0.506c-0.007,0.175,0.013,0.345,0.054,0.507L100.523,249.522z"/>
				<path fill="#FFFFFF" d="M106.285,237.054c0.095,0.46,0.369,0.881,0.799,1.154c0.428,0.272,0.929,0.339,1.388,0.228l2.231,4.256
					c-0.019,0.016-0.035,0.031-0.055,0.048l-9.189-5.817c0.007-0.021,0.014-0.043,0.021-0.066L106.285,237.054z"/>
				<path fill="#FFFFFF" d="M99.187,238.057c0.022,0.01,0.045,0.015,0.068,0.021l-0.443,10.87c-0.023,0.003-0.047,0.008-0.072,0.016
					l-2.23-4.257c0.354-0.314,0.583-0.766,0.604-1.273c0.02-0.508-0.172-0.974-0.498-1.314L99.187,238.057z"/>
				<path fill="#FFFFFF" d="M108.078,249.359c-0.461-0.167-0.984-0.147-1.452,0.098c-0.452,0.237-0.761,0.637-0.892,1.089
					l-4.799-0.195c-0.004-0.023-0.01-0.045-0.016-0.068l9.629-5.049c0.027,0.03,0.055,0.062,0.084,0.09L108.078,249.359z"/>
			</g>
		</g>
		<g>
			<path fill="#E535AB" d="M119.892,253.103c0.016-0.096,0.014-0.189,0.002-0.281l2.453-0.963c0.053,0.075,0.118,0.146,0.193,0.207
				c0.429,0.338,1.05,0.268,1.391-0.156c0.34-0.43,0.271-1.05-0.156-1.393c-0.076-0.061-0.16-0.107-0.246-0.143l0.394-2.605
				c0.091-0.009,0.185-0.029,0.276-0.064c0.509-0.203,0.759-0.775,0.559-1.281c-0.198-0.512-0.771-0.762-1.282-0.561
				c-0.091,0.037-0.172,0.084-0.245,0.141l-2.063-1.644c0.042-0.082,0.07-0.173,0.084-0.273c0.081-0.538-0.291-1.043-0.831-1.125
				c-0.541-0.079-1.046,0.294-1.128,0.833c-0.014,0.096-0.012,0.19,0,0.283l-2.453,0.965c-0.053-0.077-0.117-0.146-0.191-0.206
				c-0.432-0.341-1.052-0.271-1.394,0.156c-0.341,0.427-0.271,1.048,0.157,1.392c0.076,0.06,0.158,0.107,0.244,0.141l-0.393,2.606
				c-0.092,0.007-0.188,0.029-0.275,0.065c-0.508,0.199-0.76,0.771-0.559,1.282c0.2,0.507,0.773,0.759,1.281,0.557
				c0.104-0.039,0.193-0.094,0.271-0.159l2.049,1.631c-0.047,0.094-0.08,0.194-0.094,0.302c-0.082,0.538,0.289,1.045,0.83,1.125
				C119.307,254.018,119.809,253.646,119.892,253.103z M116.596,246.417c0.076-0.052,0.146-0.115,0.205-0.191
				c0.062-0.075,0.106-0.157,0.144-0.243l5.907,0.889c0.007,0.092,0.028,0.183,0.063,0.271c0.035,0.092,0.082,0.171,0.137,0.244
				l-3.723,4.669c-0.084-0.035-0.174-0.064-0.271-0.078c-0.094-0.015-0.188-0.015-0.278-0.003L116.596,246.417z M123.062,250.307
				c-0.257,0.023-0.503,0.15-0.678,0.367c-0.175,0.219-0.24,0.486-0.207,0.744l-2.457,0.965c-0.007-0.01-0.016-0.021-0.023-0.032
				l3.723-4.672c0.013,0.005,0.023,0.009,0.035,0.015L123.062,250.307z M122.937,246.372c-0.006,0.012-0.01,0.024-0.016,0.035
				l-5.909-0.888c-0.001-0.013-0.001-0.026-0.003-0.041l2.457-0.964c0.15,0.212,0.382,0.364,0.659,0.404
				c0.274,0.041,0.541-0.035,0.747-0.192L122.937,246.372z M116.236,250.553c0.119-0.241,0.141-0.53,0.033-0.799
				c-0.103-0.262-0.304-0.451-0.543-0.553l0.393-2.607c0.015-0.003,0.027-0.003,0.041-0.006l2.183,5.559
				c-0.019,0.014-0.035,0.027-0.054,0.041L116.236,250.553z"/>
			<g>
				<path fill="#FFFFFF" d="M116.598,246.42c0.075-0.055,0.144-0.118,0.204-0.194c0.061-0.075,0.107-0.156,0.143-0.243l5.908,0.891
					c0.008,0.09,0.029,0.183,0.064,0.27c0.035,0.091,0.082,0.172,0.137,0.243l-3.723,4.673c-0.084-0.039-0.174-0.066-0.271-0.082
					c-0.094-0.015-0.188-0.015-0.279-0.003L116.598,246.42z"/>
				<path fill="#FFFFFF" d="M123.064,250.308c-0.258,0.022-0.504,0.149-0.679,0.366c-0.175,0.219-0.239,0.489-0.206,0.744
					l-2.456,0.965c-0.009-0.01-0.017-0.021-0.024-0.032l3.725-4.672c0.011,0.005,0.021,0.011,0.035,0.015L123.064,250.308z"/>
				<path fill="#FFFFFF" d="M122.939,246.372c-0.006,0.012-0.013,0.024-0.016,0.037l-5.909-0.89
					c-0.002-0.013-0.004-0.026-0.004-0.041l2.456-0.964c0.15,0.212,0.383,0.364,0.658,0.404c0.279,0.041,0.542-0.035,0.748-0.192
					L122.939,246.372z"/>
				<path fill="#FFFFFF" d="M116.238,250.553c0.119-0.239,0.14-0.53,0.035-0.797c-0.104-0.262-0.305-0.453-0.543-0.555l0.391-2.607
					c0.014-0.001,0.027-0.003,0.041-0.004l2.184,5.558c-0.02,0.014-0.037,0.026-0.057,0.04L116.238,250.553z"/>
			</g>
		</g>
		<g>
			<path fill="#E535AB" d="M116.469,238.966c0.036-0.077,0.061-0.157,0.075-0.236l2.353-0.22c0.024,0.083,0.063,0.156,0.113,0.23
				c0.285,0.399,0.836,0.494,1.236,0.214c0.4-0.284,0.496-0.837,0.213-1.239c-0.051-0.068-0.109-0.134-0.176-0.184l0.992-2.147
				c0.08,0.017,0.166,0.021,0.254,0.017c0.488-0.048,0.848-0.477,0.801-0.966c-0.043-0.487-0.475-0.845-0.963-0.8
				c-0.088,0.006-0.17,0.029-0.248,0.059l-1.365-1.933c0.057-0.062,0.105-0.136,0.14-0.212c0.206-0.447,0.013-0.973-0.433-1.178
				c-0.444-0.207-0.971-0.012-1.176,0.43c-0.039,0.084-0.062,0.164-0.072,0.246l-2.354,0.218c-0.027-0.078-0.064-0.156-0.113-0.229
				c-0.285-0.398-0.836-0.491-1.238-0.212c-0.398,0.279-0.496,0.836-0.213,1.237c0.049,0.069,0.111,0.134,0.174,0.183l-0.988,2.146
				c-0.082-0.017-0.17-0.024-0.256-0.015c-0.488,0.045-0.847,0.473-0.8,0.964c0.042,0.486,0.478,0.845,0.962,0.804
				c0.1-0.01,0.191-0.035,0.273-0.073l1.355,1.922c-0.063,0.066-0.117,0.146-0.156,0.233c-0.205,0.445-0.013,0.971,0.434,1.175
				C115.736,239.609,116.262,239.418,116.469,238.966z M115.304,232.389c0.079-0.025,0.155-0.064,0.227-0.115
				c0.068-0.047,0.129-0.105,0.184-0.172l4.863,2.243c-0.017,0.085-0.021,0.164-0.014,0.253c0.008,0.085,0.03,0.166,0.057,0.241
				l-4.375,3.091c-0.062-0.054-0.133-0.101-0.211-0.136c-0.078-0.039-0.16-0.063-0.241-0.071L115.304,232.389z M119.9,237.357
				c-0.229-0.04-0.472,0.002-0.676,0.145c-0.207,0.146-0.328,0.362-0.365,0.591l-2.356,0.216c-0.005-0.012-0.009-0.021-0.013-0.033
				l4.375-3.089c0.008,0.006,0.018,0.011,0.026,0.021L119.9,237.357z M120.777,233.938c-0.009,0.008-0.018,0.021-0.022,0.029
				l-4.865-2.248c0.001-0.011,0.005-0.024,0.007-0.037l2.357-0.212c0.076,0.22,0.236,0.406,0.466,0.511
				c0.228,0.105,0.476,0.108,0.692,0.021L120.777,233.938z M113.96,235.858c0.163-0.175,0.252-0.419,0.229-0.679
				c-0.023-0.251-0.148-0.466-0.33-0.613l0.991-2.146c0.013,0.001,0.022,0.009,0.036,0.009l0.486,5.332
				c-0.021,0.007-0.038,0.015-0.059,0.021L113.96,235.858z"/>
			<g>
				<path fill="#FFFFFF" d="M115.307,232.389c0.078-0.025,0.152-0.061,0.224-0.113c0.069-0.049,0.133-0.107,0.185-0.174l4.862,2.246
					c-0.016,0.082-0.021,0.163-0.012,0.25c0.006,0.085,0.028,0.167,0.057,0.244l-4.375,3.088c-0.063-0.054-0.135-0.101-0.213-0.136
					c-0.08-0.039-0.159-0.062-0.242-0.071L115.307,232.389z"/>
				<path fill="#FFFFFF" d="M119.9,237.358c-0.229-0.041-0.473,0.001-0.676,0.146c-0.205,0.144-0.328,0.359-0.365,0.588
					l-2.356,0.216c-0.003-0.012-0.007-0.021-0.013-0.033l4.377-3.089c0.006,0.006,0.016,0.014,0.025,0.021L119.9,237.358z"/>
				<path fill="#FFFFFF" d="M120.777,233.938c-0.006,0.01-0.015,0.021-0.021,0.029l-4.867-2.248c0.002-0.01,0.004-0.024,0.009-0.037
					l2.355-0.212c0.076,0.22,0.24,0.409,0.465,0.513c0.229,0.105,0.477,0.106,0.691,0.02L120.777,233.938z"/>
				<path fill="#FFFFFF" d="M113.962,235.858c0.161-0.175,0.251-0.418,0.229-0.678c-0.024-0.247-0.149-0.467-0.332-0.612
					l0.991-2.149c0.013,0.003,0.022,0.009,0.037,0.011l0.485,5.33c-0.02,0.007-0.035,0.015-0.055,0.022L113.962,235.858z"/>
			</g>
		</g>
		<polygon fill="#F7F7F7" points="60.599,340.432 68.476,336.524 101.365,354.651 93.49,358.561 		"/>
		<path fill="#FFFFFF" d="M151.525,323.545c-0.428-0.275-0.949-0.334-1.496-0.229l-0.194-8.283c0.548-0.373,1.065-0.891,1.483-1.54
			c1.192-1.859,1.127-4.029-0.147-4.849c-1.274-0.818-3.274,0.026-4.468,1.885c-0.021,0.031-0.034,0.064-0.055,0.098l-6.546-1.239
			c0.14-1.2-0.237-2.299-1.112-2.86c-1.381-0.887-3.467-0.097-4.662,1.761c-0.879,1.37-1.022,2.933-0.49,4.02l-6.662,7.153
			c-1.275-0.782-3.25,0.062-4.434,1.901c-1.194,1.86-1.129,4.031,0.146,4.849c0.415,0.269,0.911,0.343,1.428,0.278l0.043,9.414
			c-0.57,0.375-1.111,0.91-1.543,1.584c-1.195,1.86-1.129,4.031,0.146,4.849c1.273,0.821,3.275-0.022,4.469-1.885
			c0.078-0.121,0.137-0.246,0.203-0.37l7.163,1.007c-0.339,1.356-0.058,2.628,0.853,3.21c1.273,0.822,3.275-0.023,4.469-1.885
			c0.885-1.378,1.074-2.924,0.596-3.967l6.727-8.061c1.221,0.547,3.004-0.313,4.125-2.06
			C152.76,326.467,152.742,324.329,151.525,323.545z M128.089,336.659c-0.157-0.422-0.406-0.777-0.763-1.021l9.203-22.077
			c0.51-0.103,1.021-0.342,1.502-0.688l9.24,12.477c-0.035,0.052-0.076,0.097-0.109,0.149c-0.439,0.685-0.711,1.404-0.823,2.084
			L128.089,336.659z M146.025,312.036c-0.394,1.406-0.115,2.742,0.823,3.343c0.435,0.28,0.957,0.354,1.5,0.271l0.197,8.362
			c-0.084,0.062-0.169,0.126-0.252,0.195l-9.188-12.408c0.075-0.101,0.156-0.19,0.225-0.299c0.14-0.218,0.257-0.44,0.359-0.665
			L146.025,312.036z M127.359,324.327c0.793-1.236,1.019-2.603,0.713-3.625l6.826-7.332c0.024,0.012,0.047,0.021,0.071,0.033
			l-9.11,21.859l-0.043-9.35C126.386,325.537,126.927,325,127.359,324.327z M128.177,338.643c0.028-0.131,0.06-0.262,0.075-0.389
			l18.182-9.046c0.004,0.012,0.008,0.022,0.012,0.034l-6.815,8.166c-1.269-0.495-3.03,0.341-4.123,2.041
			c-0.043,0.068-0.074,0.139-0.114,0.207L128.177,338.643z"/>
		<g>
			<g>
				<path fill="#F7F7F7" d="M196.308,303.806c0.133,0.383-0.056,0.791-0.508,1.065l-6.833,4.185
					c-0.451,0.274-1.077,0.374-1.66,0.265l-8.888-1.729c-0.252-0.064-0.482-0.168-0.669-0.292c-0.243-0.171-0.38-0.346-0.451-0.528
					l-0.647-1.996c-0.107-0.292,0.082-0.233,0.194-0.191c0.505,0.175,0.601,0.205,1.22,0.33l0.125,0.102l0.494,1.536l0.163,0.116
					l8.888,1.723c0.082,0.021,0.172,0.004,0.244-0.042l6.84-4.188c0.076-0.042,0.104-0.1,0.08-0.157l-2.049-5.912l-0.162-0.117
					l-8.882-1.733l-0.243,0.041l-6.84,4.19l-0.081,0.156l0.562,1.617c0.101,0.232,0.25,0.404,0.431,0.522
					c0.461,0.308,1.103,0.262,1.476,0.033l6.754-4.135c0.084-0.054,0.244-0.058,0.345,0.009l0.694,0.488
					c0.082,0.054,0.092,0.162-0.019,0.225l-6.749,4.131c-1.146,0.705-2.393,0.726-3.409,0.049c-0.021-0.014-0.038-0.026-0.06-0.04
					c-0.313-0.226-0.559-0.396-0.887-1.113l-0.549-1.55c-0.139-0.387,0.063-0.795,0.508-1.065l6.84-4.189
					c0.445-0.27,1.076-0.373,1.654-0.26l8.896,1.727c0.26,0.053,0.501,0.153,0.694,0.283c0.221,0.146,0.381,0.328,0.451,0.521
					L196.308,303.806z"/>
			</g>
			<g>
				<path fill="#F7F7F7" d="M184.453,302.705c0.088,0.059,0.093,0.146,0.002,0.196c-0.674,0.558-0.748,1.016,0.705,2.032
					c0.062,0.044,0.123,0.085,0.183,0.125c1.048,0.698,1.778,0.83,2.414,0.444c0.38-0.236,0.526-0.503-1.071-1.879
					c-1.33-1.146-1.908-2.013-0.617-2.803c1.162-0.717,2.746-0.535,4.256,0.471c0.049,0.032,0.1,0.066,0.147,0.1
					c1.753,1.227,1.966,2.231,0.653,3.184l-0.18,0.05l-0.164-0.042l-0.709-0.497c-0.074-0.05-0.086-0.133-0.026-0.187
					c0.663-0.616,0.502-1.078-0.625-1.863c-0.042-0.029-0.084-0.058-0.125-0.085c-1.177-0.782-1.774-0.605-2.117-0.393
					c-0.426,0.267-0.386,0.471,1.079,1.802c1.445,1.325,1.9,2.092,0.622,2.873c-1.276,0.765-2.937,0.567-4.623-0.555
					c-0.054-0.035-0.106-0.071-0.159-0.109c-2.395-1.676-1.707-2.749-0.693-3.369c0.084-0.055,0.244-0.058,0.344,0.009
					L184.453,302.705z"/>
			</g>
		</g>
	</g>
</g>
</svg>
